<?xml version="1.0" encoding="UTF-8"?>
<svg id="Capa_1" xmlns="http://www.w3.org/2000/svg" version="1.1" viewBox="0 0 261 101">
  <!-- Generator: Adobe Illustrator 29.8.5, SVG Export Plug-In . SVG Version: 2.1.1 Build 2)  -->
  <defs>
    <style>
      .st0 {
        fill: #fff;
      }
    </style>
  </defs>
  <path class="st0" d="M196.85,59.13v-17.17h3.87v2.91h.2c.35-.98.96-1.76,1.78-2.31.83-.56,1.81-.84,2.96-.84s2.14.29,2.94.85,1.38,1.32,1.7,2.29h.18c.38-.96,1.02-1.72,1.93-2.28.9-.58,1.98-.87,3.23-.87,1.59,0,2.87.5,3.87,1.49s1.49,2.45,1.49,4.37v11.53h-4.05v-10.9c0-1.06-.29-1.85-.85-2.33-.56-.5-1.26-.75-2.08-.75-.97,0-1.74.3-2.29.92-.55.6-.81,1.39-.81,2.36v10.7h-3.97v-11.07c0-.89-.26-1.6-.8-2.12-.52-.52-1.22-.8-2.08-.8-.58,0-1.11.14-1.59.45-.47.29-.85.71-1.14,1.25-.29.52-.42,1.15-.42,1.85v10.44h-4.04v.03h-.03Z"/>
  <path class="st0" d="M186.61,59.47c-1.68,0-3.13-.37-4.35-1.1-1.23-.73-2.19-1.77-2.86-3.09s-1.01-2.87-1.01-4.66.34-3.33,1.01-4.66c.68-1.34,1.63-2.37,2.86-3.11,1.23-.73,2.69-1.1,4.35-1.1s3.13.37,4.35,1.1c1.23.73,2.18,1.77,2.85,3.11.68,1.34,1.02,2.88,1.02,4.66s-.34,3.32-1.02,4.66c-.67,1.32-1.63,2.36-2.85,3.09-1.23.73-2.68,1.1-4.35,1.1ZM186.64,56.23c.9,0,1.67-.25,2.28-.75.62-.51,1.06-1.18,1.36-2.03s.46-1.8.46-2.83-.16-2.01-.46-2.85c-.3-.85-.75-1.53-1.36-2.05-.62-.51-1.36-.76-2.28-.76s-1.7.25-2.32.76c-.62.51-1.06,1.19-1.38,2.05-.3.85-.45,1.8-.45,2.85s.14,1.99.45,2.83c.3.85.76,1.52,1.38,2.03.62.5,1.39.75,2.32.75Z"/>
  <path class="st0" d="M169.08,59.47c-1.72,0-3.19-.38-4.42-1.13-1.22-.75-2.16-1.8-2.83-3.12-.66-1.34-.98-2.87-.98-4.6s.34-3.28,1.01-4.62,1.61-2.39,2.83-3.13c1.23-.75,2.69-1.13,4.35-1.13,1.39,0,2.62.26,3.7.77s1.94,1.22,2.58,2.15c.64.92,1.01,2.01,1.1,3.24h-3.87c-.16-.83-.52-1.52-1.11-2.07-.58-.56-1.36-.84-2.33-.84-.83,0-1.55.22-2.18.67-.63.45-1.11,1.08-1.47,1.9-.34.83-.51,1.82-.51,2.98s.17,2.18.51,3.02.83,1.48,1.44,1.93c.63.45,1.36.67,2.2.67.59,0,1.13-.12,1.6-.34.47-.24.88-.56,1.19-1,.33-.43.54-.96.66-1.57h3.87c-.09,1.22-.46,2.29-1.08,3.23s-1.46,1.67-2.53,2.19c-1.06.52-2.32.79-3.75.79v.03l.02-.02Z"/>
  <path class="st0" d="M157.34,58.85c-.68,0-1.26-.24-1.74-.72-.49-.47-.72-1.06-.72-1.74s.24-1.25.72-1.72c.49-.47,1.06-.72,1.74-.72s1.22.24,1.7.72c.5.47.75,1.05.75,1.72,0,.46-.13.87-.35,1.25-.22.37-.52.67-.89.89-.37.21-.77.33-1.21.33h0Z"/>
  <path class="st0" d="M144.95,65.57c-.52,0-1.39-.13-2.14-.39v-3.41c1.01.47,1.55.47,2.01.47s.87-.16,1.22-.43c.35-.28.66-.73.9-1.39l.34-.93-6.23-17.52h4.29l3.96,12.97h.18l3.97-12.97h4.3l-6.87,19.25c-.31.9-.75,1.69-1.27,2.33-.52.66-1.18,1.15-1.94,1.49-.76.35-1.67.52-2.73.52h.01Z"/>
  <path class="st0" d="M139.28,41.96v3.13h-7.62v-3.13h7.62ZM131.67,37.85h4.05v16.12c0,.54.08.96.25,1.25s.39.47.67.58c.28.1.58.16.92.16.25,0,.49,0,.69-.05.64-.12,1-.28,1.11-.3v3.38c-.21.08-.46.14-.87.22-.39.09-.88.14-1.46.16-1.01.03-1.93-.12-2.74-.46s-1.46-.87-1.93-1.59-.69-1.61-.69-2.69v-16.78h0,0Z"/>
  <path class="st0" d="M122,59.47c-1.72,0-3.21-.35-4.46-1.08-1.25-.72-2.2-1.74-2.87-3.07s-1.01-2.88-1.01-4.68.34-3.32,1.01-4.66c.68-1.34,1.63-2.39,2.83-3.13,1.22-.75,2.64-1.13,4.27-1.13,1.06,0,2.06.17,2.99.51.94.34,1.78.85,2.5,1.56.73.71,1.3,1.61,1.72,2.7s.63,2.39.63,3.89v1.25h-14.07v-2.73h10.19c0-.77-.17-1.47-.5-2.07-.33-.62-.79-1.09-1.38-1.44-.58-.35-1.26-.52-2.03-.52-.83,0-1.55.2-2.18.6-.63.39-1.11.92-1.47,1.56-.34.64-.51,1.35-.52,2.11v2.39c0,1,.18,1.85.55,2.57.37.71.88,1.25,1.53,1.63.66.37,1.43.56,2.31.56.59,0,1.13-.08,1.6-.25s.89-.42,1.25-.75.62-.73.8-1.22l3.95-.04c-.24,1-.71,2.15-1.53,3.08-.67.73-1.51,1.31-2.54,1.72s-2.22.6-3.55.6v.03h-.02Z"/>
  <path class="st0" d="M113.24,41.96v3.13h-7.61v-3.13h7.61ZM105.62,59.13v-18.53c0-1.15.24-2.11.72-2.88s1.13-1.34,1.94-1.72,1.72-.56,2.7-.56c.34,0,1.56,0,2.24.3v3.37c-.17-.1-.37-.17-.63-.22-.26-.07-.55-.09-.87-.09-.75,0-1.29.18-1.6.55-.3.35-.46.87-.46,1.55v18.25h-4.05v-.02Z"/>
  <path class="st0" d="M94.27,59.48c-1.09,0-2.07-.2-2.94-.58-.87-.39-1.55-.97-2.06-1.74-.5-.77-.75-1.72-.75-2.83,0-.97.18-1.77.54-2.4.35-.63.84-1.14,1.47-1.52.62-.38,1.31-.67,2.08-.87.79-.2,1.59-.34,2.43-.43,1.01-.1,1.82-.2,2.45-.28.63-.09,1.08-.22,1.36-.41.29-.18.43-.47.43-.87v-.07c0-.84-.25-1.49-.75-1.95s-1.22-.69-2.15-.69c-1,0-1.78.21-2.36.64s-.92.79-1.17,1.85h-3.8c0-1.42.66-2.6,1.49-3.47.68-.71,1.52-1.23,2.52-1.59,1-.35,2.08-.54,3.29-.54.83,0,1.65.09,2.47.29.81.2,1.57.51,2.24.96.68.45,1.22,1.04,1.63,1.8.42.76.63,1.7.63,2.85v11.49h-3.89v-2.36h-.13c-.25.47-.59.92-1.04,1.34-.45.41-1,.75-1.67,1s-1.44.37-2.33.37v.03-.02ZM95.32,56.51c.81,0,1.52-.16,2.11-.49s1.05-.76,1.38-1.3.5-1.13.5-1.76v-2.02c-.13.1-.34.2-.64.29s-.63.17-1.01.24c-.37.07-.75.13-1.1.18-.37.05-.68.09-.94.13-.6.08-1.14.21-1.63.41-.47.18-.85.45-1.13.79-.28.33-.42.75-.42,1.27,0,.75.28,1.31.81,1.69s1.23.56,2.08.56h-.01Z"/>
  <path class="st0" d="M82.52,42.76c-.1-.97-.55-1.97-1.32-2.5-.77-.54-1.77-.81-2.99-.81-.87,0-1.6.13-2.23.39-.62.26-1.09.62-1.42,1.06s-.5.96-.5,1.53c0,.47.1.89.33,1.25s.52.64.9.89c.38.24.8.45,1.26.6s.93.3,1.4.42l2.15.54c.87.2,1.69.47,2.49.81s1.52.77,2.15,1.3c.64.52,1.15,1.15,1.52,1.89s.56,1.6.56,2.6c0,1.34-.34,2.52-1.02,3.54-.68,1.01-1.68,1.81-2.98,2.39-1.29.56-2.85.85-4.68.85s-3.33-.28-4.64-.83c-1.3-.55-2.32-1.35-3.07-2.41-.73-1.06-1.13-2.81-1.18-4.33h4.08c.07.8.3,1.93.73,2.45s1,.92,1.69,1.18,1.48.39,2.35.39,1.69-.13,2.37-.41,1.22-.66,1.61-1.14c.39-.5.59-1.06.59-1.72,0-.59-.18-1.09-.52-1.47-.34-.39-.83-.72-1.44-.98s-1.32-.51-2.15-.72l-2.61-.67c-1.89-.49-3.37-1.22-4.47-2.2-1.09-1-1.63-2.31-1.63-3.95,0-1.35.37-2.53,1.1-3.54s1.74-1.8,3-2.36c1.27-.56,2.7-.85,4.3-.85s3.04.29,4.27.85,2.19,1.34,2.9,2.33c.69,1,1.08,2.36,1.1,3.65h-3.99l-.04-.03h.03Z"/>
  <path class="st0" d="M67.15,36.25v22.88h-4.14v-22.88h4.14Z"/>
  <path class="st0" d="M44.42,59.13h-4.42l8.05-22.88h5.11l8.06,22.88h-4.43l-6.11-18.19h-.18l-6.1,18.19h.02ZM44.57,51.34h12.06v3.33h-12.06s0-3.33,0-3.33Z"/>
</svg>