<?xml version="1.0" encoding="UTF-8"?>
<svg id="Capa_1" xmlns="http://www.w3.org/2000/svg" xmlns:xlink="http://www.w3.org/1999/xlink" version="1.1" viewBox="0 0 261 101">
  <!-- Generator: Adobe Illustrator 29.8.5, SVG Export Plug-In . SVG Version: 2.1.1 Build 2)  -->
  <defs>
    <style>
      .st0 {
        fill: url(#Degradado_sin_nombre);
      }

      .st1 {
        fill: #333;
      }
    </style>
    <linearGradient id="Degradado_sin_nombre" data-name="Degradado sin nombre" x1="-2505.14" y1="-191.88" x2="-2505.07" y2="-191.88" gradientTransform="translate(2198895 168472.94) scale(877.75)" gradientUnits="userSpaceOnUse">
      <stop offset="0" stop-color="#6d5bf5"/>
      <stop offset=".5" stop-color="#a08eef"/>
      <stop offset="1" stop-color="#c09ae8"/>
      <stop offset="1" stop-color="#c09ae8"/>
    </linearGradient>
  </defs>
  <path class="st0" d="M38.18,18.85l-23.11,9.63h-.05c-1.24.52-2.02,1.76-2.02,3.16l.36,24.4c0,1.81.36,3.52,1.14,5.18,1.66,3.73,6.27,11.04,18.08,17.77l5.44,3.1s.1.05.16.05c.21.16.47.21.73.21h0c.26,0,.52-.05.73-.21.05,0,.1-.05.16-.05l5.44-3.1c11.81-6.74,16.42-14.04,18.08-17.77.78-1.66,1.14-3.36,1.14-5.18l.36-24.4c0-1.4-.78-2.65-2.02-3.16h-.05l-23.11-9.63c-.21-.16-.47-.21-.73-.21h0c-.26,0-.52.05-.73.21h.02ZM17.05,60.03c-.62-1.24-.89-2.59-.94-4.04l-.31-24.4c0-.26.1-.47.36-.57l22.48-9.37c.16-.05.36-.05.52,0l22.48,9.37c.26.1.36.31.36.57l-.31,24.4c-.05,1.45-.31,2.8-.94,4.04-1.4,3.21-5.18,9.22-14.56,15.13v-6.48l9.02-8.86c.47.16.94.21,1.45.1,1.19-.21,2.12-1.24,2.18-2.49.1-1.71-1.29-3.1-3.01-2.91-1.24.1-2.28,1.08-2.44,2.33-.1.68.05,1.24.36,1.76l-9.22,9.02c-.16.16-.26.42-.26.68v8.03c-.16.05-.31.16-.47.26l-3.94,2.23v-18.96c.68-.36,1.19-1.08,1.19-1.92s-.52-1.55-1.19-1.92v-6.32c2.85,6.53,8.39,6.32,10.73,5.38,1.24-.52,1.81-1.76,1.86-3.06.21-3.1-1.34-5.8-3.99-7.25,5.64-.16,7.66-5.54,7.61-8.03-.05-1.34-1.03-2.28-2.18-2.8-3.26-1.55-7.66-.78-10,2.02,0,0,2.96-7.1-3.62-9.89-.89-.42-1.92-.42-2.8,0-6.58,2.8-3.62,9.89-3.62,9.89-2.33-2.8-6.74-3.57-10-2.02-1.14.52-2.12,1.45-2.18,2.8-.05,2.49,1.97,7.87,7.61,8.03-2.65,1.45-4.2,4.14-3.99,7.25.05,1.29.62,2.54,1.86,3.06,2.33.94,7.93,1.19,10.78-5.38v6.32c-.73.36-1.24,1.08-1.24,1.92s.52,1.55,1.24,1.92v18.96l-3.99-2.23c-.16-.1-.31-.21-.47-.26v-8.03c0-.26-.1-.52-.26-.68l-9.07-8.86c.36-.52.52-1.14.47-1.81-.1-1.29-1.14-2.28-2.44-2.44-1.6-.21-3.01,1.08-3.01,2.7s1.19,2.75,2.7,2.75c.26,0,.52,0,.73-.1l9.02,8.81v6.53c-9.42-5.96-13.22-11.97-14.61-15.18h.01ZM38.91,35.42c.68,2.02,0,8.29,0,8.29,0,0-.68-6.27,0-8.29ZM47.41,39.67s-4.41,1.4-7.72,4.51c0,0,3.62-4.98,7.72-4.51ZM30.41,39.67c4.09-.47,7.72,4.51,7.72,4.51-3.31-3.1-7.72-4.51-7.72-4.51ZM40.83,45.68c2.96-.31,5.08,3.31,5.08,3.31-2.28-2.18-5.08-3.31-5.08-3.31ZM36.99,45.68s-2.8,1.14-5.08,3.31c0,0,2.12-3.62,5.08-3.31ZM55.12,57.24c0-.57.47-.99.99-.99.57,0,1.03.42,1.03.99s-.47,1.03-1.03,1.03c-.52,0-.99-.47-.99-1.03ZM20.94,57.24c0-.57.47-.99.99-.99.57,0,1.03.42,1.03.99s-.47,1.03-1.03,1.03c-.52,0-.99-.47-.99-1.03Z"/>
  <g>
    <path class="st1" d="M72.79,44.44v-.67h2.15v.88h-.19s-1.96-.21-1.96-.21ZM74.93,52.35v.88h-2.15v-.67l1.96-.21s.19,0,.19,0ZM74.01,48.23c0-1.48,0-2.97-.05-4.45h1.92c-.05,1.45-.05,2.95-.05,4.45v.42c0,1.62,0,3.11.05,4.59h-1.92c.05-1.45.05-2.94.05-4.45,0,0,0-.56,0-.56ZM74.93,47.96h1.49c1.48,0,2.13-.57,2.13-1.78s-.63-1.67-1.93-1.67h-1.69v-.74h2.21c2.19,0,3.21.96,3.21,2.27,0,1.08-.71,2.03-2.82,2.28v-.13c2.38.17,3.33,1.12,3.33,2.43s-.98,2.62-4.1,2.62h-1.84v-.74h1.61c1.58,0,2.42-.67,2.42-1.89,0-1.31-.77-1.93-2.47-1.93h-1.55v-.71h.01Z"/>
    <path class="st1" d="M84.06,50.81c0,1.07.33,1.44.96,1.44s1.36-.46,1.93-1.12h.43v.83h-.83l.48-.31c-.75,1.19-1.7,1.8-2.76,1.8-1.19,0-1.95-.69-1.93-2.57l.05-3.81.38.37-1.3-.29v-.55l2.49-.3.18.14-.07,2.01v2.36h0ZM86.8,53.37l-.15-1.68.05-4.64.38.37-1.28-.29v-.52l2.44-.32.18.14-.05,2.01v4.51l-.65-.62,1.51.32v.58l-2.44.13h.02Z"/>
    <path class="st1" d="M96.35,49.07c0,.32-.04.57-.1.79h-5.43v-.68h3.03c.69,0,.86-.3.86-.81,0-.88-.56-1.48-1.27-1.48-.75,0-1.55.7-1.55,2.76,0,1.77.89,2.65,2.13,2.65.84,0,1.39-.37,1.86-.89l.42.36c-.55,1.07-1.52,1.67-2.87,1.67-2,0-3.36-1.34-3.36-3.58s1.67-3.65,3.47-3.65c1.68,0,2.8,1.14,2.8,2.87Z"/>
    <path class="st1" d="M98.3,53.23c.02-.64.05-2.11.05-3v-.75c0-.79-.01-1.15-.05-1.73l-1-.13v-.54l2.38-.9.23.14.15,1.62v2.27c0,.88.01,2.36.05,3h-1.81ZM100.92,52.65v.58h-3.52v-.58l1.44-.29h.69l1.38.29h.01ZM104.38,48.75v1.49c0,.92.01,2.36.05,3h-1.81c.02-.64.05-2.08.05-3v-1.36c0-1.12-.29-1.49-1-1.49-.61,0-1.25.33-1.93,1.01h-.39v-.79h.84l-.57.33c.83-1.18,1.81-1.76,2.83-1.76,1.24,0,1.94.79,1.94,2.55h-.01ZM103.84,52.37l1.42.29v.58h-3.53v-.58l1.43-.29h.69Z"/>
    <path class="st1" d="M106.16,49.82c0-2.28,1.59-3.62,3.44-3.62s3.44,1.32,3.44,3.62-1.52,3.62-3.44,3.62-3.44-1.33-3.44-3.62ZM111.18,49.83c0-1.98-.56-2.94-1.58-2.94s-1.58.96-1.58,2.94.55,2.9,1.58,2.9,1.58-.93,1.58-2.9Z"/>
    <path class="st1" d="M114.17,52.83v-1.65h.94l.36,1.8-.75-.3v-.54c.56.38,1.08.58,1.77.58.95,0,1.44-.36,1.44-.96,0-.54-.35-.83-1.26-1.13l-.71-.24c-1.07-.36-1.73-1-1.73-2.02,0-1.18.96-2.17,2.72-2.17.81,0,1.45.21,2.13.58l-.08,1.5h-.93l-.35-1.61.65.29v.45c-.49-.35-.88-.5-1.45-.5-.76,0-1.2.33-1.2.89,0,.51.29.77,1.26,1.09l.56.18c1.39.46,1.93,1.18,1.93,2.14,0,1.28-1.07,2.2-3,2.2-.87,0-1.57-.2-2.3-.59h-.01Z"/>
    <path class="st1" d="M123.21,52.57l1.45-.21h.27l1.46.21v.67h-3.18v-.67h-.01ZM127.36,43.73h1.17l3.25,9.51h-1.89l-2.65-8.1.43-.37-2.82,8.46h-.76l3.27-9.51h.01ZM125.77,49.57h3.85l.27.75h-4.37l.24-.75ZM128.36,52.58l1.7-.21h.63l1.8.21v.65h-4.13s0-.65,0-.65Z"/>
    <path class="st1" d="M133.98,53.23c.02-.64.05-2.11.05-3v-.68c0-.79-.01-1.23-.05-1.8l-1.02-.13v-.54l2.58-.9.23.14-.05,2v1.89c0,.88.01,2.36.05,3h-1.78ZM136.61,52.65v.58h-3.53v-.58l1.44-.29h.69l1.4.29ZM133.78,43.85c0-.61.48-1.02,1.08-1.02s1.08.42,1.08,1.02-.48,1.02-1.08,1.02-1.08-.43-1.08-1.02Z"/>
    <path class="st1" d="M138.43,50.24v-.75c0-.79-.01-1.15-.05-1.71l-1-.13v-.54l2.38-.9.23.14.15,1.77v2.12c0,.88.01,2.36.05,3h-1.81c.02-.64.05-2.11.05-3ZM137.49,52.65l1.46-.29h.9l1.46.29v.58h-3.83v-.58h0ZM139.33,48.33h.94l-.27.25c.36-1.55,1.28-2.38,2.13-2.38.52,0,.99.27,1.13.77-.01.7-.35,1.11-.92,1.11-.38,0-.68-.17-.99-.5l-.4-.44.63.04c-.69.42-1.21,1.15-1.46,2.12l-.8-.05v-.9h.01Z"/>
    <path class="st1" d="M149.91,49.07c0,.32-.04.57-.1.79h-5.43v-.68h3.03c.69,0,.86-.3.86-.81,0-.88-.56-1.48-1.27-1.48-.75,0-1.55.7-1.55,2.76,0,1.77.89,2.65,2.13,2.65.84,0,1.39-.37,1.86-.89l.42.36c-.55,1.07-1.52,1.67-2.87,1.67-2,0-3.36-1.34-3.36-3.58s1.67-3.65,3.47-3.65c1.68,0,2.8,1.14,2.8,2.87h0Z"/>
    <path class="st1" d="M151.05,52.83v-1.65h.94l.36,1.8-.75-.3v-.54c.56.38,1.08.58,1.77.58.95,0,1.44-.36,1.44-.96,0-.54-.35-.83-1.26-1.13l-.71-.24c-1.07-.36-1.73-1-1.73-2.02,0-1.18.96-2.17,2.72-2.17.81,0,1.45.21,2.13.58l-.08,1.5h-.93l-.35-1.61.65.29v.45c-.49-.35-.88-.5-1.45-.5-.76,0-1.2.33-1.2.89,0,.51.29.77,1.26,1.09l.56.18c1.39.46,1.93,1.18,1.93,2.14,0,1.28-1.07,2.2-3,2.2-.87,0-1.57-.2-2.3-.59h-.01Z"/>
    <path class="st1" d="M160.11,52.57l1.45-.21h.27l1.46.21v.67h-3.18v-.67h-.01ZM164.26,43.73h1.17l3.25,9.51h-1.89l-2.65-8.1.43-.37-2.82,8.46h-.76l3.27-9.51h.01ZM162.65,49.57h3.85l.27.75h-4.37l.24-.75ZM165.26,52.58l1.7-.21h.63l1.8.21v.65h-4.13v-.65h0Z"/>
    <path class="st1" d="M170.03,44.44v-.67h4.31v.67l-1.99.21h-.36l-1.96-.21ZM172.35,52.35l1.99.21v.67h-4.31v-.67l1.96-.21h.36ZM171.26,48.19c0-1.48,0-2.95-.05-4.43h1.94c-.05,1.44-.05,2.93-.05,4.43v.62c0,1.48,0,2.96.05,4.43h-1.94c.05-1.44.05-2.93.05-4.43v-.62Z"/>
    <path class="st1" d="M183.43,51.14c0-.83-.46-1.21-1.51-1.65l-.57-.25c-1.57-.67-2.56-1.51-2.56-3.02,0-1.68,1.38-2.7,3.38-2.7.99,0,1.86.29,2.51.74l-.1,1.93h-1.08l-.37-2.15,1.04.44v.71c-.73-.62-1.26-.88-2.01-.88-.96,0-1.71.54-1.71,1.46,0,.82.51,1.28,1.46,1.68l.62.26c1.86.77,2.59,1.58,2.59,2.97,0,1.69-1.34,2.8-3.55,2.8-1.07,0-2.2-.29-2.94-.75l.08-2.06h1.09l.37,2.26-1.01-.37v-.69c.89.56,1.43.83,2.38.83,1.18,0,1.9-.61,1.9-1.55h-.02Z"/>
    <path class="st1" d="M188.7,49.38c.59-.19,1.55-.45,2.25-.59v.56c-.65.15-1.46.39-1.88.57-.96.38-1.25.89-1.25,1.44,0,.74.44,1.05,1,1.05.38,0,.64-.14,1.31-.63l.43-.32.18.25-.51.54c-.77.8-1.24,1.21-2.19,1.21-1.07,0-1.89-.63-1.89-1.81,0-.9.5-1.58,2.56-2.26ZM190.06,52v-3.41c0-1.33-.32-1.69-1.25-1.69-.35,0-.74.05-1.31.23l.79-.5-.24,1.11c-.08.69-.42.99-.89.99s-.74-.23-.81-.64c.17-1.14,1.27-1.88,3.02-1.88,1.65,0,2.37.73,2.37,2.58v3.12c0,.46.15.64.43.64.19,0,.33-.11.5-.31l.33.29c-.35.67-.8.9-1.48.9-.88,0-1.4-.54-1.46-1.42Z"/>
    <path class="st1" d="M194.48,47.26h-1.06v-.74l1.65-.21-.59.31c.14-1.64.5-2.47,1.12-3.09.68-.68,1.45-.9,2.19-.9s1.38.24,1.53.89c-.02.45-.37.79-.94.79-.42,0-.79-.23-1.15-.71l-.52-.51,1.3-.3.24.43c-.13-.1-.35-.18-.52-.18-.46,0-.89.36-1.13.76-.37.62-.51,1.59-.4,3.26v3.19c0,1,.01,2,.05,3h-1.81c.02-1,.05-2,.05-3v-2.97h.01ZM197.42,52.65v.58h-3.94v-.58l1.51-.29h.88l1.55.29h0ZM197.93,46.4v.87h-2.58v-.87h2.58Z"/>
    <path class="st1" d="M204.74,49.07c0,.32-.04.57-.1.79h-5.43v-.68h3.03c.69,0,.86-.3.86-.81,0-.88-.56-1.48-1.27-1.48-.75,0-1.55.7-1.55,2.76,0,1.77.89,2.65,2.13,2.65.84,0,1.39-.37,1.86-.89l.42.36c-.55,1.07-1.52,1.67-2.87,1.67-2,0-3.36-1.34-3.36-3.58s1.67-3.65,3.47-3.65c1.68,0,2.8,1.14,2.8,2.87h0Z"/>
    <path class="st1" d="M208.99,52.5c.29,0,.55-.12.87-.36l.33.37c-.37.59-.99.94-1.88.94-1.14,0-1.83-.55-1.83-1.8,0-.42.01-.76.01-1.32v-3.05h-1.06v-.74l1.73-.23-.7.52.67-2.4h1.14l-.07,2.53v4.51c0,.7.31,1.01.76,1.01h.04ZM209.95,46.4v.87h-2.58v-.87h2.58Z"/>
    <path class="st1" d="M210.2,55.7c.11-.51.57-.76,1.06-.76.38,0,.75.12,1.13.59l.44.55-.55.27-.42-.27c.81-.44,1.39-1.32,1.74-2.3l.59-1.71,2.03-5.68h.86l-2.71,7.09c-.83,2.19-1.56,3.21-2.81,3.21-.73,0-1.36-.43-1.39-1.01h.02ZM211.56,47.18l-1.34-.21v-.56h3.74v.57l-1.49.21h-.9ZM213.8,54.06l-3.15-7.65h1.9l2.07,5.68-.82,1.98h0ZM216.23,47.18l-1.34-.21v-.56h2.75v.56l-1.12.21h-.29,0Z"/>
    <path class="st1" d="M221.42,44.44v-.67h4.25v.67l-1.98.21h-.36l-1.93-.21h.01ZM223.69,52.35l1.98.21v.67h-4.25v-.67l1.93-.21h.36-.01ZM222.63,48.19c0-1.48,0-2.95-.05-4.43h1.94c-.05,1.44-.05,2.93-.05,4.43v.43c0,1.65,0,3.14.05,4.6h-1.94c.05-1.44.05-2.93.05-4.43v-.62h0ZM223.55,48.75v-.75h5.71v.75h-5.71ZM227.15,44.44v-.67h4.25v.67l-1.95.21h-.35l-1.95-.21h0ZM229.45,52.35l1.95.21v.67h-4.25v-.67l1.95-.21h.35ZM228.34,48.19c0-1.48,0-2.95-.05-4.43h1.94c-.05,1.44-.05,2.93-.05,4.43v.62c0,1.48,0,2.95.05,4.43h-1.94c.05-1.44.05-2.93.05-4.6v-.43h0Z"/>
    <path class="st1" d="M234.51,50.81c0,1.07.33,1.44.96,1.44s1.36-.46,1.93-1.12h.43v.83h-.83l.48-.31c-.75,1.19-1.7,1.8-2.76,1.8-1.19,0-1.95-.69-1.93-2.57l.05-3.81.38.37-1.3-.29v-.55l2.49-.3.19.14-.07,2.01v2.36h-.01ZM237.24,53.37l-.15-1.68.05-4.64.38.37-1.28-.29v-.52l2.44-.32.18.14-.05,2.01v4.51l-.65-.62,1.51.32v.58l-2.44.13h.02Z"/>
    <path class="st1" d="M240.49,52.65l1.44-.29-.54.87c.02-.64.05-2.11.05-3v-6.15l-1.04-.13v-.55l2.55-.64.21.13-.06,2.01v2.45l.05.19v4.6l-.25,1.25-2.42-.17v-.58h0ZM246.18,49.83c0-1.76-.67-2.62-1.63-2.62-.63,0-1.3.51-2.05,1.27l-.13-.25c.82-1.39,1.76-2.03,2.88-2.03,1.53,0,2.75,1.26,2.75,3.56s-1.34,3.68-2.99,3.68c-1.08,0-1.89-.56-2.59-2.03l.13-.25c.67.87,1.26,1.28,1.95,1.28.93,0,1.67-.83,1.67-2.61h.01Z"/>
  </g>
</svg>