<?xml version="1.0" encoding="UTF-8"?>
<svg id="Capa_1" data-name="Capa 1" xmlns="http://www.w3.org/2000/svg" viewBox="0 0 261 101">
  <defs>
    <style>
      .cls-1 {
        fill: #274ff5;
      }
    </style>
  </defs>
  <path class="cls-1" d="M47.33,46.3c-.26-1.06-.29-2.21-.11-3.43.11-.7.08-1.43-.08-2.14-.48-2.09-2.14-3.75-4.23-4.23-.71-.17-1.43-.19-2.14-.08-1.22.19-2.38.15-3.43-.11-1.55-.4-3.15-.49-4.76-.31-6.42.71-11.47,5.9-12.03,12.33-.34,4.03,1.09,7.97,3.94,10.83,2.57,2.57,6.03,3.99,9.64,3.99.39,0,.79-.01,1.19-.05,6.43-.55,11.61-5.61,12.32-12.03.18-1.61.07-3.22-.3-4.77h-.01ZM36.43,38.9c.14.24.14.52.02.77-.42.93-.59,1.95-.47,2.98.28,2.62,2.4,4.72,5,5.01,1.03.11,2.05-.05,2.97-.47.25-.11.53-.11.77.02.24.13.39.36.44.62.16,1,.17,2.05.04,3.06-.62,5.15-4.82,9.26-9.97,9.78-3.37.33-6.67-.84-9.06-3.22-2.39-2.38-3.56-5.69-3.24-9.05.51-5.17,4.62-9.38,9.78-10,.46-.05.92-.08,1.37-.08.57,0,1.14.04,1.71.14.26.04.49.2.62.44h0s0,.01,0,.01ZM44.09,44.14c-.62.72-1.53,1.14-2.47,1.14-1.79,0-3.26-1.46-3.26-3.26,0-.95.42-1.84,1.14-2.47.6-.51,1.34-.78,2.11-.78h.11c1.71.06,3.09,1.44,3.15,3.15v.11c0,.77-.28,1.53-.79,2.12h0Z"/>
  <g>
    <path class="cls-1" d="M57.9,59.22v-20.16h7.2c3.83,0,6.17,1.9,6.17,5.18,0,1.87-1.33,3.37-2.68,3.94,2.08.7,3.58,2.34,3.58,5.16,0,3.62-2.45,5.87-6.6,5.87h-7.67ZM60.36,47.41h4.7c2.42,0,3.77-1.04,3.77-3.1s-1.35-3.08-3.77-3.08h-4.7v6.19ZM60.36,57h4.81c2.97,0,4.5-1.3,4.5-3.68s-1.53-3.72-4.5-3.72h-4.81v7.4Z"/>
    <rect class="cls-1" x="73.85" y="38.75" width="2.31" height="20.46"/>
    <path class="cls-1" d="M90.46,44.71v14.51h-2.31v-2.79c-.75,2.01-2.54,3.02-4.78,3.02-3.28,0-5.42-2.34-5.42-5.87v-8.86h2.31v8.49c0,2.48,1.44,4.14,3.64,4.14,2.5,0,4.26-1.98,4.26-4.81v-7.83h2.31,0Z"/>
    <path class="cls-1" d="M106.28,54.55c-.49,2.97-3.06,4.89-6.66,4.89-4.29,0-7.18-3.42-7.18-7.56s2.65-7.4,6.92-7.4,6.78,2.94,6.78,6.8c0,.32-.03.81-.06,1.01h-11.36c.18,2.99,2.16,5.13,4.9,5.13,2.36,0,3.87-1.04,4.32-2.85h2.35ZM94.83,50.43h8.94c-.18-2.45-1.82-4.01-4.41-4.01-2.45,0-4.09,1.44-4.53,4.01Z"/>
    <path class="cls-1" d="M108.5,59.22v-20.16h5.94c5.65,0,10.06,3.65,10.06,10.08s-4.41,10.08-10.06,10.08h-5.94ZM110.95,56.99h3.43c3.92,0,7.56-2.3,7.56-7.86s-3.64-7.86-7.56-7.86h-3.43v15.71Z"/>
    <path class="cls-1" d="M125.8,51.96c0-4.38,3.09-7.48,7.38-7.48s7.41,3.1,7.41,7.48-3.09,7.48-7.41,7.48-7.38-3.13-7.38-7.48ZM138.22,51.96c0-3.17-2.05-5.41-5.04-5.41s-5.02,2.24-5.02,5.41,2.05,5.41,5.02,5.41,5.04-2.24,5.04-5.41Z"/>
    <path class="cls-1" d="M143.98,40.07h2.31v4.64h4.47v2.04h-4.47v7.8c0,1.61.93,2.56,2.34,2.56h2.13v2.1h-2.22c-2.76,0-4.55-1.72-4.55-4.55v-7.92h-3.02v-2.04h3.02v-4.64Z"/>
    <rect class="cls-1" x="158.4" y="39.07" width="2.45" height="20.15"/>
    <path class="cls-1" d="M163.33,59.21v-14.51h2.31v2.79c.55-1.75,2.16-3.02,4.39-3.02,2.39,0,4.27,1.09,4.78,3.08.55-1.72,2.48-3.08,4.7-3.08,3.14,0,5.04,2.1,5.04,5.62v9.12h-2.31v-8.52c0-2.48-1.24-4.17-3.28-4.17-2.42,0-3.87,1.7-3.87,4.17v8.52h-2.31v-8.52c0-2.48-1.24-4.17-3.25-4.17-2.45,0-3.89,1.7-3.89,4.17v8.52h-2.31Z"/>
    <path class="cls-1" d="M187.48,65.08v-20.37h2.31v2.39c.89-1.59,2.76-2.61,4.84-2.61,4.5,0,6.97,3.25,6.97,7.48s-2.54,7.48-7.04,7.48c-2.05,0-3.92-1.01-4.78-2.56v8.21h-2.31s0-.01,0-.01ZM199.21,51.96c0-3.28-1.9-5.41-4.81-5.41s-4.81,2.13-4.81,5.41,1.9,5.41,4.81,5.41,4.81-2.13,4.81-5.41Z"/>
    <path class="cls-1" d="M215.21,49.86v9.35h-2.31v-2.5c-.78,1.67-2.71,2.74-4.96,2.74-3.06,0-5.04-1.72-5.04-4.38s2.28-4.52,5.79-4.52h3.28c.63,0,.92-.32.92-.78,0-1.98-1.41-3.34-3.89-3.34-2.13,0-3.8,1.33-3.92,2.91h-2.19c.26-2.79,2.91-4.87,6.16-4.87,3.77,0,6.14,2.16,6.14,5.38ZM212.91,52.68v-.37h-4.06c-2.16,0-3.58,1.04-3.58,2.73,0,1.49,1.19,2.45,3.02,2.45,2.91,0,4.61-1.82,4.61-4.81Z"/>
    <path class="cls-1" d="M216.8,51.96c0-3.88,2.48-7.48,7.06-7.48,3.25,0,6.17,1.9,6.6,5.13h-2.28c-.29-1.75-2.1-3.05-4.29-3.05-3.17,0-4.7,2.45-4.7,5.41s1.56,5.41,4.7,5.41c2.19,0,3.77-1.09,4.29-2.85h2.25c-.49,2.97-2.88,4.92-6.57,4.92-4.58,0-7.06-3.6-7.06-7.48h0s0,.01,0,.01Z"/>
    <path class="cls-1" d="M233.72,40.07h2.31v4.64h4.47v2.04h-4.47v7.8c0,1.61.92,2.56,2.34,2.56h2.13v2.1h-2.22c-2.76,0-4.55-1.72-4.55-4.55v-7.92h-3.02v-2.04h3.02v-4.64Z"/>
  </g>
</svg>