<?xml version="1.0" encoding="UTF-8"?>
<svg id="Capa_1" xmlns="http://www.w3.org/2000/svg" version="1.1" viewBox="0 0 261 101">
  <!-- Generator: Adobe Illustrator 29.8.5, SVG Export Plug-In . SVG Version: 2.1.1 Build 2)  -->
  <defs>
    <style>
      .st0 {
        fill: #fff;
      }
    </style>
  </defs>
  <path class="st0" d="M54.42,51.25c8.27,4.17,4.08,16.54-5.15,15.09-.84-.13-2.43-1.13-2.99-1.05s-2.36,1.34-3.16,1.67c-2.81,1.18-5.76,1.58-8.8,1.53-2.46,3.2-5.35,5.11-9.58,3.96-4.15-1.13-6.22-4.99-5.75-9.16.12-1.04,1.21-2.57,1.11-3.15-.06-.39-1.32-2.29-1.62-2.99-1.13-2.68-1.5-5.58-1.6-8.48-8.32-5.01-3.39-17.29,6.19-14.87.54.14,1.32.74,1.73.7.44-.04,3.07-1.72,3.9-2.05,2.8-1.12,5.73-1.43,8.74-1.37,5.11-7.52,16.29-3.62,15.07,5.63-.1.74-1.12,2.71-1.08,2.96.06.34,1.33,2.31,1.6,2.98,1.14,2.78,1.45,5.6,1.37,8.59h.02ZM43.53,28.91c-4.91.71-7,6.58-3.84,10.35,3.51,4.19,10.49,2.11,11.19-3.26.56-4.24-3.15-7.7-7.35-7.09ZM36.47,35.03c-3.03-.08-6.06.67-8.64,2.29.31,1.36,1.09,2.67,1.07,4.24-.04,3.15-2.4,6.68-5.48,7.61-.59.18-2.18.27-2.36.39-.51.34.27,3.83.49,4.58.34,1.16.98,2.19,1.39,3.32.27.2,1.75-.53,2.22-.62,5.35-.98,9.43,2.5,10.07,7.74,2.16.03,4.54-.42,6.53-1.27,2.97-1.28,1.29-1.47.98-3.95-.57-4.61,3.06-8.96,7.75-8.98.22-2.84-.66-5.48-1.86-8-1.44.32-2.69.96-4.23.92-4.28-.12-8.07-4-7.92-8.26h0ZM19.41,35.32c-7.61,1.13-6.09,13.83,2.41,12.48,7.84-1.25,6.7-13.83-2.41-12.48ZM50.44,52.04c-9.34.59-6.86,15.11,2.29,12.37,7.15-2.14,4.98-12.83-2.29-12.37ZM31.56,60.3c-5.88-6.04-14.98,2.91-9.2,8.82s15.05-2.81,9.2-8.82Z"/>
  <path class="st0" d="M175.94,40.76v-8.7h2.76v13.97l-2.53-.12c-2.09-2.73-3.79-5.81-5.91-8.52-.15-.19,0-.42-.53-.29v8.93h-2.76v-13.97l2.66.21c1.68,2.26,3.13,4.88,4.83,7.09.38.5.8,1.38,1.47,1.4h0Z"/>
  <path class="st0" d="M202.57,35.52l1.63,7.07c.45-.08.38-.48.47-.79.59-1.99.88-4.09,1.48-6.08l2.74-.24c.71,2.09,1,4.31,1.64,6.42.1.32-.05.8.45.69l1.51-7.09h2.75l-2.79,10.49h-2.93c-.62-1.96-.94-4.34-1.64-6.25-.09-.24-.11-.55-.45-.58l-1.87,6.84h-2.93l-2.78-10.38,2.74-.1h-.02Z"/>
  <path class="st0" d="M110.88,51.55l4.86,13.93-3-.1c-.55-.7-.67-3.03-1.53-3.29-.63-.19-4.51-.17-4.91.28-.47.53-.72,2.73-1.12,3l-3,.1,4.86-13.93h3.84ZM110.68,59.99c-.3-1.85-.86-3.83-1.72-5.49-.3,0-1.72,4.82-1.72,5.49h3.45,0Z"/>
  <path class="st0" d="M138.03,55.41h-2.6c-.54-2.85-6.09-2.21-4.86.46.87,1.9,7.52.95,7.61,5.42.11,5.83-11.17,5.71-10.94-.15h2.75c-.12,3.2,6.63,2.48,5.18-.46-.78-1.58-6.47-.84-7.48-4.22-1.8-6.01,10.01-7.37,10.35-1.05h0Z"/>
  <polygon class="st0" points="80.81 32.06 80.81 34.35 74.15 34.35 74.15 37.78 80.12 37.78 80.12 40.07 74.15 40.07 74.15 43.73 80.81 43.73 80.81 46.02 71.39 46.02 71.39 32.06 80.81 32.06"/>
  <path class="st0" d="M114.82,35.49h2.76l.12,1.83c.44.1.66-.91,1.05-1.24.2-.17.64-.41.89-.48,7.2-1.89,7.25,11.95.17,10.38-.26-.06-.93-.45-1.14-.64-.48-.43-.43-1.25-1.1-1.15v5.72h-2.76v-14.42h0ZM119.35,37.6c-2.61.59-2.39,6.78.85,6.36,2.86-.37,2.89-7.2-.85-6.36Z"/>
  <path class="st0" d="M239.59,32.06v7.33c.5.03.84-.48,1.15-.8.51-.52,2.13-2.8,2.52-2.98.76-.34,2.13,0,2.98-.12.1.4-.16.46-.34.69-.61.79-3.18,3.2-3.11,3.99l3.91,5.85-3.22-.11-2.76-4.24c-.34-.23-1.14.83-1.14,1.03v3.32h-2.76v-13.97h2.77Z"/>
  <path class="st0" d="M180.29,54.96l2.08,7.77c.35-.03.35-.35.44-.58.84-2.12,1.19-4.79,1.96-6.98.25-.33,2.05-.29,2.54-.22.32.04.4-.13.34.34l-4.36,12.15c-1.07,1.95-3.27,2.25-5.29,1.71l.83-2.04c1.15.41,2.07-.3,2.14-1.49l-3.67-10.67h2.99Z"/>
  <path class="st0" d="M149.29,65.48h-2.76v-1.6c-1.18,1.54-2.86,2.05-4.79,1.45-2.66-.82-2.68-4.83.61-5.73,1.12-.31,5.47-.15,3.73-2.25-1.4-1.7-2.68.32-3.39.53-.6.18-2.51.32-2.27-.65.71-2.86,6.78-3.19,8.28-.67.17.28.58,1.47.58,1.71v7.21h0ZM146.53,60.45c-1.07.42-4.12.39-4.12,1.95,0,1.2,1.22,1.37,2.17,1.26,1.76-.2,1.99-1.72,1.95-3.21Z"/>
  <path class="st0" d="M150.2,35.49h2.53l.12,1.83c.49,0,.96-1.29,1.82-1.62,1.26-.49,3.19-.34,4.16.69.25.26,1.02,1.72,1.02,1.96v7.67h-2.76v-6.75c0-2.15-4.14-2.15-4.14,0v6.75h-2.76v-10.53h0Z"/>
  <path class="st0" d="M86.1,35.49v6.98c0,.66,1.27,1.31,1.95,1.28.74-.04,1.96-.74,1.96-1.51v-6.75h2.76v10.53h-2.53l-.12-2.06c-.4-.09-.62.89-1.02,1.27-1.34,1.27-3.78,1.07-4.96-.35-.21-.26-.8-1.26-.8-1.5v-7.9h2.76Z"/>
  <path class="st0" d="M147.68,46.02h-2.53v-1.6c-1.87,2.45-6.58,2.35-6.68-1.26-.11-4.26,6.19-2.84,6.46-3.93.41-1.66-1.4-2.31-2.71-1.74-.56.24-.7.93-.91.98-.72.17-2.71.25-2.25-.91.98-2.47,5.96-2.78,7.7-1.05.2.2.91,1.23.91,1.38v8.13h0ZM144.92,40.99c-.95.55-3.51.34-3.86,1.54-.5,1.71,1.86,2.07,3.03,1.41,1.06-.6.83-1.94.83-2.95Z"/>
  <path class="st0" d="M168.36,60.91h-7.12c-.19,2.91,3.01,3.55,4.7,1.47l2.42.25c-1.76,4.45-9.2,3.78-9.86-1.16-1.15-8.66,10.72-8.83,9.86-.55h0ZM161.23,59.3h4.25l.35-.56c-.85-2.87-4.68-2.46-4.6.56Z"/>
  <path class="st0" d="M190.87,41.45h-7.35c-.21,2.06,2.13,3.39,3.84,2.34.44-.27.66-.88.89-.93.1-.02,1.75.16,2.05.19.71.08.02,1-.25,1.36-1.16,1.54-3.22,1.83-5.04,1.62-5.86-.67-5.63-10.71.92-10.63,3.67.04,4.94,2.76,4.94,6.05ZM188.12,39.84c.21-3.1-3.83-3.37-4.56-.53l.31.53h4.25Z"/>
  <path class="st0" d="M136.88,41.45h-7.35c-.21,2.06,2.13,3.39,3.84,2.34.44-.27.66-.88.89-.93.1-.02,1.75.16,2.05.19.71.08.02,1-.25,1.36-1.16,1.54-3.22,1.83-5.04,1.62-5.86-.67-5.63-10.71.92-10.63,3.67.04,4.94,2.76,4.94,6.05ZM134.12,39.84c.21-3.1-3.83-3.37-4.56-.53l.31.53h4.25Z"/>
  <path class="st0" d="M81.67,55.01c2.75-.51,5.44.34,6.34,3.19,1.34,4.28-1.32,7.85-5.94,7.29-5.21-.64-5.27-9.59-.4-10.48ZM83.22,56.9c-3.46,0-3.21,7.7.82,6.42,2.02-.64,2.1-6.42-.82-6.42Z"/>
  <path class="st0" d="M221.55,35.39c7.27,0,6.97,11.96-1.32,10.57-5.24-.88-5.27-10.58,1.32-10.57ZM221.55,37.44c-2.94,0-2.88,5.53-.98,6.35,4,1.72,4.61-6.35.98-6.35Z"/>
  <path class="st0" d="M107.58,35.39c7.27,0,6.97,11.96-1.32,10.57-5.24-.88-5.27-10.58,1.32-10.57ZM107.58,37.44c-2.94,0-2.88,5.53-.98,6.35,4,1.72,4.61-6.35.98-6.35Z"/>
  <path class="st0" d="M71.85,57.01h-1.38v-2.06h1.37c-.05-3.53,2.24-4.83,5.53-3.89l-.46,2.06c-2.59-1.03-3.48,2.65,0,1.83v2.06c-.16.16-1.99-.32-2.3.34v8.13h-2.76v-8.47Z"/>
  <path class="st0" d="M152.27,57.01h-1.38v-2.06h1.38c-.14-2.94,1.27-4.39,4.26-4.13,1.66.15.83.81.78,2.06l-1.9.22c-1.08,1.78.03,2.04,1.69,1.85v2.06h-2.07v8.47h-2.76s0-8.47,0-8.47Z"/>
  <path class="st0" d="M171.11,57.01l-1.38-.13v-1.93h1.38v-2.52h2.76l.1,2.31,1.97.21v2.06l-1.69.03-.34.34c.22,1.65-1.03,6.68,1.8,5.8l.46,1.93c-1.25.78-3.84.46-4.57-.92-.1-.2-.49-1.44-.49-1.58v-5.61h0Z"/>
  <path class="st0" d="M193.63,37.55l-1.38-.13v-1.93h1.38v-2.52h2.62l.13,2.52h2.07v2.06h-2.07v5.61c0,.33,1.39,1.11,1.84.57l.46,2.06c-1.45.81-5.06-.09-5.06-1.94v-6.3h0Z"/>
  <rect class="st0" x="117.58" y="51.52" width="2.76" height="13.97"/>
  <path class="st0" d="M228.79,35.49h2.76v1.83c1.01-1.11,1.92-2.55,3.64-1.8l.03,2.26c-1.05-.05-2.51-.11-3.19.83-.07.1-.49,1.06-.49,1.12v6.3h-2.76v-10.53h.01Z"/>
  <path class="st0" d="M90.46,54.95h2.53l.12,1.83,1.56-1.65c.66-.23,1.32-.51,1.97-.15l.03,2.26c-.95-.35-3.45.36-3.45,1.49v6.75h-2.76s0-10.53,0-10.53Z"/>
  <path class="st0" d="M95.52,35.49h2.53l.12,1.83,1.56-1.65c.66-.23,1.32-.51,1.97-.15l.03,2.26c-.77-.39-3.45.46-3.45,1.26v6.98h-2.76s0-10.53,0-10.53Z"/>
</svg>