<?xml version="1.0" encoding="UTF-8"?>
<svg id="Capa_1" xmlns="http://www.w3.org/2000/svg" version="1.1" viewBox="0 0 261 101">
  <!-- Generator: Adobe Illustrator 29.8.5, SVG Export Plug-In . SVG Version: 2.1.1 Build 2)  -->
  <defs>
    <style>
      .st0 {
        fill: none;
      }

      .st1 {
        fill: #426fd4;
      }

      .st2 {
        fill: #2f58d6;
      }

      .st3 {
        fill: #2f7dd5;
      }

      .st4 {
        fill: #fefefe;
      }

      .st5 {
        fill: #2f7dd6;
      }
    </style>
  </defs>
  <path class="st0" d="M139.54,81.72s-.03,0-.04-.01c0,0,.03,0,.04.01Z"/>
  <path class="st0" d="M53.57,55.82c.22.32.39.51.76.61.46.03.68,0,1.07-.26.26-.46.32-.79.21-1.3-.14-.22-.32-.4-.54-.54-.68-.12-1.14-.08-1.48.57-.14.4-.18.55-.03.93h.03-.02,0Z"/>
  <path class="st0" d="M77.77,80.94c.46,0,.67-.07,1.03-.32.18-.22.25-.62.21-1.18-.07-.85-.07-.07-.1-.12-.15-.18-.33-.36-.54-.54-.57-.12-1-.01-1.37.46-.18.42-.15.75-.03,1.18.24.36.39.42.79.54h.01v-.02Z"/>
  <path class="st0" d="M57.22,65.47c0,.3.06.57.1.87,0,.08.03.15.06.24.06.25.1.51.15.76.03.18.08.36.12.54.07.37.15.75.24,1.11.1.49.21.98.3,1.47.08.37.15.76.24,1.15.03.18.08.36.12.54.07.26.12.53.17.78,0,.08.03.15.06.24.06.25.12.51.18.76.08.03.15.07.22.1.18-1.11.39-2.25.57-3.35.08-.57.18-1.15.29-1.72.1-.55.18-1.11.29-1.69.03-.21.07-.42.1-.64.06-.3.1-.61.15-.93,0-.1.03-.18.06-.29.08-.49.15-.86.03-1.34-1.16.47-2.31.94-3.45,1.4h0,0Z"/>
  <path class="st0" d="M52.5,56.92c-.42-.15-.71-.08-1.11.08-.08.03-.15.07-.22.08-.15.07-.3.12-.46.18-.24.1-.49.21-.72.29-.15.07-.32.12-.47.18l-.22.08c-.15.07-.29.12-.42.17-.21.12-.35.28-.4.47,0,.26-.07.44-.18.69-.3.57-.68.96-1.29,1.18-.1.03-.18.07-.29.08l-.29.08s-.15.03-.22.07c-.06.55-.1,1.14-.15,1.69,0,.24-.03.47-.07.71-.12,1.33-.26,2.65-.22,3.99.22.15.42.33.57.54s.29.36.39.42c.29.14.4.12.72.03.18-.08.36-.15.54-.24.08-.03.15-.07.22-.08.3-.14.62-.26.93-.39.29-.12.55-.22.85-.33.14-.06.29-.12.42-.17l.64-.25s.12-.06.18-.08c.24-.1.44-.21.64-.3.08-.21.12-.39.15-.54l.06-.25c.03-.1.04-.19.07-.29s.04-.21.07-.3c.07-.33.14-.68.21-1.01.03-.12.06-.24.07-.36.39-1.86.76-3.72,1.1-5.57-.18-.1-.36-.21-.54-.32-.17-.18-.36-.37-.54-.54h-.03.01Z"/>
  <path class="st0" d="M69.35,64.78c-.24-.08-.46-.17-.69-.25l-.22-.08c-.44-.15-.86-.3-1.32-.37,0,.39.06.71.12,1.08.01.08.03.18.07.26.06.3.12.6.17.87.06.21.08.42.14.62.08.44.18.87.26,1.32.12.57.24,1.15.33,1.71.08.44.18.9.26,1.33.06.21.08.42.14.64.07.3.12.61.18.91l.07.26c.08.47.17.93.42,1.34.18-.94.37-1.89.57-2.84.08-.49.18-.96.29-1.46.1-.47.18-.94.29-1.41.03-.18.07-.36.12-.54.18-.94.39-1.89.47-2.84-.39-.15-.78-.29-1.15-.42-.15-.06-.32-.12-.47-.17h-.07v.03h.02Z"/>
  <path class="st0" d="M59.59,78.78c-.57-.1-1-.03-1.34.46-.17.36-.21.55-.15.94.26.42.42.61.91.76.42,0,.6-.07.91-.33.26-.32.32-.49.32-.91-.14-.46-.25-.64-.64-.93h0Z"/>
  <path class="st0" d="M69.68,78.78c-.69-.1-1.05,0-1.5.54-.08.36-.08.64,0,.98.25.37.44.51.85.67.42,0,.62-.08.98-.33.21-.36.32-.62.32-1.05-.15-.37-.32-.55-.64-.79h-.01v-.02Z"/>
  <path class="st0" d="M82.11,65.8c-.03-.33-.07-.67-.1-.98-.03-.22-.06-.44-.07-.67-.06-.53-.12-1.07-.17-1.59-.03-.18-.06-.37-.07-.55,0-.15-.03-.3-.06-.46,0-.14-.03-.25-.06-.39,0-.12-.03-.22-.03-.32-.04-.15-.18-.3-.42-.46-.14-.03-.26-.07-.4-.12-.36-.24-.57-.4-.76-.78-.37-.76-.78-1.03-1.55-1.33-.14-.06-.26-.08-.39-.14-.37-.15-.76-.29-1.14-.42-.12-.03-.24-.08-.36-.12-.49-.18-.87-.39-1.39-.22-.08.07-.15.12-.24.18-.15.12-.3.24-.42.36s-.11.26.06.46c.01.1.03.21.07.3l.15.76c.18.79.36,1.59.44,2.41.12,1.25.18,2.62.76,3.74.46.67,1.66,1.19,3.62,1.59.36.07.71.15,1.07.26.25.1.46.18.72.21.25-.12.4-.25.61-.44.15-.22.22-.55.18-1l-.03-.3h-.06l.04.02h0Z"/>
  <path class="st0" d="M78.79,26.12c.47.08.69-.01,1.1-.26.24-.36.32-.55.32-.98-.14-.42-.26-.61-.64-.86-.51-.12-.86-.07-1.3.21-.26.44-.3.79-.21,1.3.21.32.39.42.72.6h.01Z"/>
  <path class="st0" d="M81.81,59.08c.46,0,.69-.07,1.07-.33.21-.28.28-.68.22-1.18-.15-.32-.36-.46-.64-.64-.67-.07-.98,0-1.39.54-.12.42-.15.67,0,1.05.24.29.39.42.75.57h-.01Z"/>
  <path class="st0" d="M82.25,69.7c.15.32.33.46.64.64.46.08.78.06,1.18-.21.24-.37.32-.6.32-1.05-.12-.4-.18-.55-.53-.79-.57-.14-.87-.15-1.37.22-.21.28-.29.68-.24,1.18h-.01.01Z"/>
  <path class="st0" d="M75.76,81.32c-.42-.69-.39-1.54-.29-2.31.22-.6.51-1.05,1.07-1.37.12-.06.22-.1.33-.15,0-.33,0-.64-.06-.98-.01-.12-.06-.24-.07-.36-.06-.21-.08-.4-.12-.61-.03-.15-.07-.3-.08-.46-.08-.4-.17-.8-.25-1.23-.07-.36-.15-.69-.22-1.05-.17-.8-.33-1.64-.51-2.45-.18-.85-.36-1.69-.53-2.55-.15-.72-.3-1.47-.46-2.19-.08-.44-.18-.87-.26-1.32-.08-.42-.17-.85-.25-1.25-.03-.15-.07-.3-.1-.46s-.07-.29-.08-.44c-.03-.14-.07-.26-.08-.4-.08-.37-.08-.55-.36-.83-.32,1.64-.64,3.26-.96,4.89-.15.79-.32,1.61-.49,2.4-.14.69-.26,1.39-.42,2.09-.07.37-.15.75-.22,1.11-.39,1.98-.78,3.96-1.14,5.95.68.46,1.29.91,1.5,1.73.07.8.07,1.47-.36,2.18-.06.07-.1.15-.15.22-.1.15-.22.29-.36.42s-.42.28-.86.44v6.71h2.25v-4.8h0v-.36h0v-.29h0c.07-.46.25-.75.61-1.03.39-.17.75-.22,1.16-.14.53.33.71.61.86,1.19.03.4.03.8.01,1.22v4.09h-.1v.1h2.47v-6.71c-.62-.25-1.01-.53-1.44-1.05h-.07l.03.07s0-.02,0-.02Z"/>
  <path class="st0" d="M47.93,81.36c-.46-.8-.46-1.61-.29-2.5.25-.51.53-.94,1.07-1.16.21-.08.42-.18.62-.29s.46-.75.75-1.93c.03-.18.07-.39.12-.57.1-.51.21-1.01.3-1.5.08-.42.17-.85.24-1.25.1-.51.21-1.01.3-1.52,0-.1.03-.21.07-.29.06-.29.1-.55.15-.85,0-.08.03-.17.06-.25.08-.44.18-.85.03-1.29-.51.18-1.01.39-1.52.57-.21.08-.4.15-.61.24-.3.12-.61.22-.91.33-.08.03-.18.08-.29.12l-.54.21c-.39.18-.4.22-.57.64,0,.12-.03.24-.06.36-.18.39-.4.69-.79.87-.33.15-.55.26-.8.53-.14.47-.15.93-.14,1.41v5.99c.03,1.05.03,2.08.06,3.11,0,2.19.03,4.39.06,6.58v.1h4.08v-6.71c-.55-.18-1-.51-1.34-1h0l-.03.04h-.02Z"/>
  <path class="st0" d="M107.26,44.54c-.14-.37-.25-.72-.39-1.1-.12-.37-.25-.72-.39-1.1-.06-.14-.1-.26-.15-.42-.04-.14-.08-.26-.14-.39s-.08-.25-.14-.37c-.12-.36-.24-.61-.44-.93-.08.08-.19.33-.36.76-.03.1-.07.18-.1.29-.12.3-.22.61-.33.91-.07.22-.15.42-.24.64-.71,2-1.41,3.96-2.11,5.96h6.24c-.49-1.41-1-2.84-1.48-4.26h.03Z"/>
  <path class="st0" d="M184.73,46.37c-.24-.87-.71-1.57-1.5-2.04-1.54-.69-3.38-.42-4.7.57-.8.83-1.15,1.68-1.29,2.81h7.61c0-.49-.03-.87-.14-1.34h.02,0Z"/>
  <path class="st0" d="M67.42,81.82c-.57-.55-.76-1.23-.79-2.01.03-.76.25-1.32.79-1.89.22-.15.42-.29.64-.42.07-.22.1-.42.08-.55-.01-.08-.03-.18-.06-.26-.03-.1-.06-.21-.07-.3-.03-.12-.06-.24-.07-.33-.06-.24-.1-.49-.15-.75-.1-.47-.21-.96-.3-1.44-.08-.44-.18-.87-.26-1.33-.33-1.59-.67-3.17-.98-4.74-.1-.49-.21-.98-.3-1.46,0-.08-.03-.17-.06-.24-.03-.17-.07-.33-.1-.49-.08-.4-.17-.8-.25-1.23-.18-.93-.37-1.84-.57-2.77-.36-1.73-.71-3.48-1.07-5.21-.03-.07-.04-.14-.06-.21h-.22c-.36,2.08-.69,4.16-1.05,6.21-.17,1.01-.33,2.02-.51,3.04-.15.87-.3,1.77-.46,2.65-.08.47-.15.94-.24,1.41-.46,2.63-.87,5.25-1.3,7.89.07.03.12.07.18.12.08.06.15.1.24.15.57.36.87.72,1.08,1.37.12.83.14,1.65-.33,2.37-.06.07-.1.12-.15.18-.1.14-.22.26-.36.37s-.42.26-.86.44v6.71h2.69v-.1h-.12v-8.54c0-.67.08-1.11.51-1.62.44-.37.78-.39,1.34-.36.47.25.75.49.96.98.03.32.03.61.03.93h0v.26h0v8.41h3.11v-6.71c-.33-.18-.65-.36-.96-.54h-.03.04,0Z"/>
  <path class="st0" d="M56.98,81.29c-.36-.67-.47-1.32-.36-2.07.21-.79.62-1.3,1.3-1.76.06-.03.11-.07.17-.1-.07-.72-.21-1.44-.36-2.15-.03-.15-.07-.3-.08-.44-.08-.39-.17-.79-.25-1.19-.07-.33-.15-.68-.21-1.01-.17-.79-.33-1.61-.51-2.38-.18-.83-.36-1.65-.53-2.48-.15-.72-.3-1.44-.46-2.15-.08-.42-.18-.86-.26-1.29-.08-.4-.17-.8-.25-1.22-.03-.15-.07-.3-.08-.46-.03-.15-.07-.29-.08-.42-.03-.14-.07-.25-.08-.39-.08-.39-.17-.71-.36-1.07-.07.24-.12.46-.15.69,0,.1-.03.18-.07.29-.03.12-.06.22-.07.33-.03.12-.06.24-.07.36l-.25,1.19c-.03.22-.08.44-.14.67-.15.76-.32,1.52-.47,2.27-.15.71-.3,1.41-.44,2.11-.12.61-.25,1.23-.39,1.84-.08.37-.15.75-.24,1.1-.4,1.93-.79,3.87-1.15,5.79.55.37.94.67,1.26,1.26.32.71.36,1.47.12,2.19-.18.42-.37.78-.79,1-.32.15-.55.26-.8.53-.14.44-.14.86-.12,1.32v1.6c0,.4,0,.8.03,1.19,0,.83.03,1.65.06,2.5v.08h2.47v-.1h0v-4.81h0c0-.57.08-1,.25-1.29.4-.36.71-.44,1.18-.42h.22c.14.07.25.15.36.22.14.08.24.21.33.32.07.08.12.21.17.32v.55h0v.33h0v.37h0v4.34h0v.1h2.56v-6.71c-.62-.25-1-.54-1.41-1.05h-.08l.03.07-.02.03h.02Z"/>
  <path class="st0" d="M76.05,55.02c.01.21.06.4.07.61.08.08.28.18.61.32.07.03.14.06.21.08.22.08.44.18.67.26.15.07.3.12.47.18.46.18.91.36,1.37.54.22-.22.42-.46.62-.69.1-.14.22-.25.33-.39.19-.11.37-.26.54-.44.06-.24.03-.46,0-.69,0-.08-.01-.18-.03-.29-.03-.32-.07-.64-.08-.96-.03-.24-.06-.47-.07-.71l-.18-1.93c-.07-.68-.14-1.34-.21-2.02-.12-1.22-.24-2.41-.33-3.63-.12-1.18-.24-2.34-.33-3.53v-.22c-.06-.37-.08-.72-.12-1.1-.29-3.11-.6-6.2-.87-9.29h-.12c-.85,4.17-1.71,8.34-2.55,12.52l-.51,2.54c-.12.62-.25,1.23-.37,1.86-.07.37-.15.72-.22,1.1-.07.33-.14.68-.21,1.03l-.08.37c-.15.76-.29,1.48-.36,2.25.33.15.67.32.96.54.49.49.68,1,.78,1.68h.03v.03l-.02-.02h0Z"/>
  <path class="st0" d="M82.51,79.54v-7.01c0-.26-.01-.49-.06-.68-.1-.07-.22-.15-.32-.22-.14-.08-.29-.18-.42-.29-.67-.51-.85-1.07-1-1.87-.03-.18-.07-.36-.08-.54-.08-.08-.28-.18-.61-.3-.49-.18-.15-.06-.21-.08-.15-.06-.3-.1-.46-.15-.24-.08-.47-.17-.69-.25-.15-.07-.3-.12-.46-.17l-.22-.08c-.47-.17-.93-.3-1.44-.37,0,.36.03.67.12,1.01.18.85.36,1.71.54,2.55.12.55.22,1.11.33,1.69.08.42.17.83.25,1.25s.17.85.25,1.25l.1.47c.03.15.07.3.08.46.03.15.07.29.08.42.04.25.1.46.17.64.42.14.8.3,1.18.54.6.55.86,1.25.9,2.07-.07.76-.3,1.41-.9,1.94-.26.14-.51.25-.76.42-.21.22-.32.67-.32,1.3,0,.22,0,.42.01.64,0,.39,0,.76.01,1.15v1.18c.03.8.06,1.62.07,2.43v.12h3.87v-.12c0-2.09,0-4.2-.01-6.29v-3.11h-.06l.04.04s.02-.04.02-.04Z"/>
  <path class="st0" d="M50.24,78.75c-.69-.03-.93.18-1.23.78-.08.47,0,.69.26,1.1.33.25.54.33.96.33.42-.15.61-.29.86-.67.07-.37.07-.72-.12-1.08-.24-.24-.42-.4-.75-.47h.03,0Z"/>
  <path class="st0" d="M157.92,48.99c-.93.08-1.83.24-2.69.57-.72.46-1.23.87-1.5,1.72-.08.93.08,1.48.64,2.19.57.47,1.18.54,1.89.54h.29c.64,0,1.18,0,1.79-.26.12-.06.24-.1.36-.15.17-.08.36-.15.53-.25.07-.03.15-.08.21-.12.32-.15.57-.29.86-.49.25-.32.35-.93.3-1.86v-.51c0-.49-.03-1-.07-1.48-.78,0-1.54,0-2.31.07-.08,0-.17,0-.25.03h-.05Z"/>
  <path class="st0" d="M45.52,68.94c-.14-.29-.29-.44-.54-.64-.4-.12-.64-.15-1.05,0-.26.24-.42.4-.55.75,0,.46.07.69.33,1.08.32.22.39.25.76.26.46-.06.54-.07.85-.39.25-.39.24-.61.21-1.07h0Z"/>
  <path class="st0" d="M45.79,59.08c.42,0,.6-.06.91-.32.26-.39.33-.57.26-1.05-.18-.42-.3-.57-.69-.79-.71-.07-1,.03-1.39.64-.07.3-.07.55,0,.86.26.39.46.53.91.67h0Z"/>
  <path class="st0" d="M49.29,26.08c.21-.15.39-.3.51-.46.15-.36.17-.6.1-.98-.12-.36-.29-.47-.61-.64-.72-.12-1.19.06-1.5.76-.03.47.03.78.33,1.14.44.22.69.21,1.18.17h0Z"/>
  <path class="st0" d="M47.42,55.88c.25.17.46.36.67.57l.25.25c.26-.1.54-.22.8-.32.12-.06.22-.08.33-.14.33-.12.67-.25.98-.39l.33-.14c.12-.06.22-.08.33-.14.11-.04.22-.08.32-.14l.29-.12c.29-.18.33-.33.42-.68,0-.1.03-.18.07-.29.17-.62.67-1.05,1.19-1.34.1-.03.18-.07.26-.12,0-.21,0-.4-.03-.55s-.04-.25-.07-.26c-.03-.1-.06-.21-.07-.32s-.06-.24-.07-.36c-.08-.39-.17-.78-.25-1.18-.07-.36-.15-.71-.24-1.08-.03-.15-.07-.3-.1-.46,0-.08-.03-.15-.06-.22-.06-.24-.1-.47-.15-.69-.37-1.71-.72-3.41-1.1-5.13-.08-.42-.18-.83-.26-1.25-.15-.67-.29-1.33-.42-2-.21-.94-.4-1.89-.61-2.84-.37-1.77-.76-3.56-1.15-5.34,0-.07-.03-.15-.06-.21h-.1c-.08.08-.14.3-.18.69,0,.08,0,.17-.03.25-.03.29-.07.57-.08.86-.03.22-.06.42-.07.64-.07.57-.12,1.15-.18,1.73-.07.61-.12,1.23-.18,1.84-.1,1.03-.21,2.07-.3,3.11-.12,1.19-.24,2.4-.37,3.59-.12,1.16-.24,2.33-.36,3.49-.06.49-.1,1-.15,1.48-.07.6-.12,1.18-.18,1.77,0,.22-.06.44-.07.67-.15,1.4-.25,2.8-.32,4.23.25.1.51.18.72.33.07.06.12.08.18.14h.03v.07s.04,0,.04,0Z"/>
  <path class="st0" d="M72.67,56.17c.44.26.79.3,1.3.21.39-.26.47-.44.64-.87,0-.36-.07-.57-.22-.9-.37-.33-.91-.54-1.39-.3-.3.22-.51.39-.6.78-.03.46.01.69.25,1.08h.02Z"/>
  <path class="st0" d="M64.31,38.76c-.14-1.68-.29-3.33-.42-5h-.1c-.08,1.26-.15,2.54-.22,3.8-.03.64-.08,1.3-.12,1.94-.03.62-.07,1.26-.1,1.89,0,.24-.03.49-.06.72-.1,1.76-.18,3.51-.25,5.27h.33c.49,0,.96-.03,1.44.07.06,0,.1.03.17.06,0-.61-.01-1.19-.07-1.79,0-.12-.01-.24-.03-.36-.03-.39-.07-.79-.1-1.19-.03-.36-.07-.71-.08-1.07-.07-.68-.12-1.34-.17-2.02-.07-.78-.14-1.54-.18-2.31h-.06.02,0Z"/>
  <path class="st0" d="M67.2,50.64l.21.15.21.15c.08.06.17.12.24.17.83.57,1.64,1.15,2.45,1.73.08.07.17.12.24.18s.15.12.24.17c.14.1.26.19.39.26.29.1.37.14.67,0,.08-.06.15-.1.24-.15s.15-.11.24-.15c.18-.26.21-.96.08-2.11,0-.12-.01-.22-.03-.33-.03-.39-.08-.76-.12-1.15-.03-.36-.07-.71-.12-1.07l-.21-1.83c-.08-.9-.18-1.77-.29-2.66-.15-1.44-.3-2.88-.47-4.32-.15-1.4-.3-2.8-.46-4.23l-.03-.26c-.06-.44-.1-.87-.15-1.3l-1.18-11.08h-.1c-.1.42-.15.85-.18,1.29,0,.1-.01.21-.03.3-.03.33-.07.68-.08,1.01-.03.25-.06.49-.07.75-.07.68-.12,1.34-.18,2.02-.06.51-.08,1.01-.14,1.5v.22c-.03.15-.06.29-.07.44-.12,1.34-.25,2.72-.37,4.09-.12,1.25-.22,2.5-.33,3.74-.12,1.29-.24,2.56-.36,3.87-.07.67-.12,1.3-.18,1.95-.07.69-.12,1.39-.18,2.08-.01.25-.06.51-.07.76-.03.36-.07.71-.1,1.07,0,.12-.01.22-.03.32-.06.46-.08.91-.1,1.39,0,.37-.07.61.21.91l.24.12h.06-.09,0Z"/>
  <path class="st0" d="M64.79,53.27l.07.26c.01.1.03.21.07.3.01.12.06.24.07.33.14.62.26,1.26.4,1.89.25,1.16.54,2.31.62,3.51.06.78.08,1.57.4,2.3.57.69,2.16,1.34,4.78,1.95.14-.15.22-.29.26-.42.01-.08.03-.17.06-.25.01-.1.03-.18.07-.29.01-.1.03-.21.07-.3.03-.21.08-.42.12-.64.07-.33.14-.69.21-1.03.03-.22.08-.44.14-.67.01-.1.03-.22.07-.32.12-.55.22-1.14.29-1.69.03-.28-.01-.5-.12-.64s-.26-.24-.47-.26c-.57-.42-.78-1-.9-1.68-.03-.18-.06-.37-.08-.54-.08-.08-.18-.15-.29-.24-.17-.12-.15-.12-.24-.17-.08-.07-.18-.12-.26-.18-.85-.6-1.69-1.19-2.54-1.8-.53-.39-1.05-.76-1.62-1.08-.24.26-.47.42-.78.6-.15.08-.29.18-.4.29-.01.26,0,.53.03.79v-.03h-.03,0Z"/>
  <path class="st0" d="M75.15,17.41c.37.18.53.21.94.11.21-.12.39-.3.51-.53.1-.35.14-.5,0-.83-.19-.29-.35-.46-.68-.53-.4-.03-.62,0-.96.22-.24.4-.28.71-.18,1.16.1.17.22.29.37.39h-.01,0Z"/>
  <path class="st0" d="M59.27,53.23c-.12.07-.22.14-.33.21-.21.14-.42.26-.64.4-.3.18-.6.36-.86.57-.21.25-.32.67-.3,1.25v.29c-.17.71-.53,1.11-1.1,1.54-.15.1-.29.21-.4.3s-.1.29.06.57c0,.1.03.21.07.3.03.12.06.24.07.33.03.12.06.24.08.36.06.25.1.51.15.76.08.4.17.8.25,1.19.06.26.12.53.17.78.03.14.06.25.08.37s.06.25.07.37c.03.12.06.22.07.33.07.36.08.49.36.76.46-.18.93-.37,1.4-.55.18-.08.39-.15.57-.24.26-.12.55-.22.85-.33.08-.03.18-.07.26-.12l.25-.1c.08-.03.17-.07.24-.1.14-.06.26-.12.39-.21.21-.3.26-.64.32-1l.03-.22c.06-.25.08-.49.12-.75.03-.18.07-.36.08-.54.07-.37.12-.75.18-1.11.08-.49.15-.96.24-1.46.07-.39.12-.76.18-1.14.03-.18.07-.36.08-.54.18-1.11.36-2.19.42-3.33-.36-.24-.69-.46-1.08-.67-.12.08-.24.17-.36.25-.17.12-.33.24-.51.36-.49.33-.98.69-1.48,1.01v.06h.04s-.02.05-.02.05Z"/>
  <path class="st0" d="M65.35,17.51c.36.07.72.07,1.05-.1.28-.32.37-.5.39-.93-.12-.4-.24-.57-.57-.82-.33-.06-.65-.06-.97.1-.28.28-.37.44-.44.82.07.46.18.64.53.93h.01Z"/>
  <path class="st0" d="M63.47,22.21c.49,0,.72-.03,1.08-.37.26-.46.26-.67.21-1.18-.11-.17-.25-.32-.42-.44-.71-.3-1.15-.24-1.61.42-.14.4-.15.6,0,1,.22.3.37.51.76.57h-.03,0Z"/>
  <path class="st0" d="M64.11,51.07c.4-.14.6-.29.85-.64.07-.37.07-.72-.12-1.08-.22-.24-.42-.4-.75-.49-.69-.03-1.07.24-1.3.91,0,.42.08.64.32.98.33.24.55.32.98.32h.03,0Z"/>
  <path class="st0" d="M58.26,52.12c.39-.26.76-.54,1.15-.78.08-.06.17-.11.25-.17.15-.1.32-.21.47-.3.26-.18.51-.33.76-.55.03-.18,0-.61-.07-1.3,0-.1,0-.21-.03-.3-.03-.36-.07-.69-.1-1.05-.03-.25-.06-.51-.07-.76-.07-.62-.12-1.23-.18-1.86-.08-.8-.15-1.62-.24-2.41-.12-1.32-.25-2.62-.39-3.94-.12-1.29-.25-2.56-.37-3.84v-.24c-.07-.39-.1-.79-.14-1.19-.33-3.34-.67-6.71-.98-10.06h-.1c-.08.15-.14.43-.18.83v.25c-.06.29-.08.57-.1.86,0,.21-.03.42-.07.64-.06.57-.1,1.16-.15,1.73-.07.62-.12,1.25-.17,1.87l-.3,3.15c-.1,1.08-.21,2.16-.3,3.23-.53,5.63-1.05,11.24-1.54,16.87l1.08.54c.61-.39,1.18-.8,1.77-1.22h0Z"/>
  <g>
    <path class="st0" d="M44.98,68.29c-.41-.14-.65-.17-1.05,0-.26.24-.41.42-.55.75,0,.47.07.69.33,1.08h-.01c.3.24.39.27.76.27.45-.06.55-.07.85-.39.27-.38.27-.61.21-1.07-.15-.28-.29-.43-.54-.64Z"/>
    <path class="st0" d="M55.62,54.87c-.14-.22-.32-.4-.54-.54h0s-.02-.01-.02-.01h.03c-.68-.12-1.15-.1-1.48.57-.15.39-.2.54-.03.93.22.32.37.53.76.61.45.03.68-.02,1.07-.26.28-.44.33-.79.21-1.3Z"/>
    <path class="st0" d="M59.59,78.79c-.56-.11-.98-.03-1.34.46-.18.34-.22.55-.15.94.27.43.42.61.91.76.42,0,.59-.07.91-.33.26-.31.32-.49.32-.91h-.01c-.13-.46-.25-.66-.64-.92Z"/>
    <path class="st0" d="M52.48,56.94c-.42-.16-.71-.07-1.11.08-.07.01-.15.05-.22.08-.16.06-.31.11-.46.18-.23.11-.48.21-.72.29-.15.06-.32.11-.47.18l-.22.08c-.13.05-.27.1-.42.17-.21.12-.34.28-.4.47,0,.29-.06.45-.18.69-.31.56-.68.96-1.29,1.18-.11.02-.19.05-.29.08l-.29.08c-.07.01-.15.04-.22.07-.05.55-.09,1.12-.15,1.69-.04.24-.07.47-.07.71-.14,1.34-.28,2.66-.22,3.99.22.15.42.33.57.54.13.16.25.3.39.42.3.15.42.11.72.03.18-.09.36-.16.54-.24.07-.01.15-.05.22-.08.31-.14.63-.27.93-.39.3-.09.56-.21.85-.33.13-.05.27-.1.42-.17l.64-.25c.06-.02.12-.05.18-.08.25-.09.46-.2.64-.3.07-.21.12-.39.15-.54l.06-.25c.03-.1.04-.19.07-.29.03-.09.04-.2.07-.3.07-.33.14-.68.21-1.01,0-.12.04-.23.07-.35h-.02c.38-1.85.77-3.71,1.1-5.57-.18-.1-.36-.2-.54-.32-.18-.18-.36-.37-.54-.54Z"/>
    <path class="st0" d="M60.66,64.08c-1.16.47-2.31.94-3.45,1.4,0,.3.03.57.1.87.03.09.06.16.06.24.05.25.09.51.15.76.04.18.09.36.12.54.09.35.16.74.24,1.11.09.49.2.98.3,1.47.09.39.16.76.24,1.15.05.18.09.36.12.54.07.25.11.52.17.78.03.09.06.16.06.24.06.27.11.51.18.76.08.03.15.07.22.1.18-1.1.39-2.24.57-3.35.08-.57.18-1.14.29-1.72.11-.58.19-1.14.29-1.69.03-.22.07-.43.1-.64.05-.32.09-.63.15-.93.03-.11.06-.21.06-.29.1-.48.15-.85.03-1.34Z"/>
    <path class="st0" d="M78.06,25.51c.19.34.39.43.72.6.48.07.7-.02,1.1-.26.25-.34.32-.56.32-.98-.13-.42-.28-.61-.64-.86-.51-.12-.86-.08-1.29.21-.28.44-.31.79-.21,1.29Z"/>
    <path class="st0" d="M76.98,80.4c.24.36.39.42.79.54.43.01.66-.07,1.03-.32.18-.22.24-.61.21-1.18,0,0,0,0,0,0-.02-.02-.05-.05-.1-.12-.15-.18-.33-.36-.54-.54-.58-.09-.98,0-1.37.46-.17.41-.16.73-.02,1.16Z"/>
    <path class="st0" d="M61.26,51.86l-.02.05h.04v.06c-.18.12-.34.24-.51.36-.48.34-.97.69-1.48,1.01-.11.07-.21.14-.33.21-.22.14-.43.26-.64.4-.31.18-.6.36-.86.57-.2.25-.3.67-.3,1.25v.29c-.17.74-.53,1.12-1.1,1.54-.15.09-.29.2-.4.3,0,.21.03.4.06.57.04.12.07.22.07.3.04.11.07.21.07.33.02.12.05.24.08.36.05.25.09.51.15.76.08.39.17.79.25,1.19.05.25.11.53.17.78.02.13.07.24.08.37,0,.13.04.25.07.37.01.11.04.21.07.33.1.37.11.51.36.76.47-.18.93-.37,1.4-.55.18-.09.39-.16.57-.24.3-.11.59-.21.85-.33.08-.05.18-.09.26-.12l.25-.1c.09-.03.03-.02.24-.1.14-.06.27-.13.39-.21.2-.31.25-.64.32-1l.03-.22c.04-.26.09-.5.12-.75.01-.18.05-.36.08-.54.06-.36.11-.74.18-1.11.07-.5.16-.97.24-1.46.06-.38.11-.77.18-1.14.01-.18.05-.36.08-.54.2-1.11.35-2.19.42-3.33-.36-.27-.69-.49-1.08-.67-.12.08-.24.17-.36.25Z"/>
    <path class="st0" d="M47.47,55.95c.25.17.45.36.67.57l.25.25c.26-.1.54-.22.8-.32.11-.06.21-.08.33-.14.31-.13.66-.25.98-.39l.33-.14c.11-.06.21-.11.33-.14.11-.06.22-.1.32-.14l.29-.12c.3-.19.34-.35.42-.68.04-.11.07-.21.07-.29.16-.62.65-1.02,1.19-1.34.08-.05.18-.09.26-.12,0-.2,0-.4-.03-.55-.03-.08-.04-.18-.07-.26-.01-.11-.04-.22-.07-.32,0-.12-.04-.24-.07-.36-.08-.4-.17-.79-.25-1.18-.09-.36-.16-.72-.24-1.08-.03-.16-.07-.31-.1-.46-.02-.07-.03-.14-.06-.22-.05-.22-.09-.45-.15-.69-.38-1.72-.73-3.42-1.1-5.13-.08-.42-.18-.83-.26-1.25-.13-.67-.27-1.33-.42-2-.21-.95-.4-1.9-.61-2.84-.39-1.78-.76-3.57-1.15-5.34-.03-.07-.06-.21-.06-.21h-.1c-.07.08-.14.3-.18.69-.03.08-.03.17-.03.25-.01.29-.05.57-.08.86-.04.22-.07.43-.07.64-.06.58-.11,1.16-.18,1.73-.06.61-.11,1.23-.18,1.84-.09,1.03-.2,2.08-.3,3.11-.13,1.19-.25,2.4-.37,3.59-.12,1.16-.24,2.33-.36,3.49-.05.5-.09.99-.15,1.48-.06.59-.11,1.17-.18,1.77-.01.23-.07.45-.07.67h.04v.07h.03c-.14,1.43-.25,2.82-.32,4.23.25.09.48.18.72.33.06.06.11.08.18.14Z"/>
    <path class="st0" d="M50.25,78.76c-.69-.02-.93.18-1.23.78-.07.48.02.7.26,1.1.34.25.54.33.96.33.42-.16.61-.31.85-.66h0,0s0,0,0,0h.03c.05-.37.06-.72-.12-1.08-.24-.23-.42-.4-.75-.47Z"/>
    <path class="st0" d="M45.8,59.09c.42,0,.59-.06.91-.32.26-.41.33-.58.26-1.05-.18-.4-.3-.57-.69-.79-.71-.07-1,.03-1.39.64h0c-.07.3-.07.55,0,.85.27.42.45.53.91.67Z"/>
    <path class="st0" d="M45.16,82.37l-.02-.02s0,.01,0,.02h.02Z"/>
    <path class="st0" d="M57.65,13.6c.4.08.81.08,1.18-.1.3-.35.44-.56.44-1.03-.13-.45-.25-.65-.64-.91-.39-.07-.75-.07-1.08.1-.31.3-.42.49-.49.91h-.01c.09.5.21.71.6,1.03Z"/>
    <path class="st0" d="M75.27,53.36c.48.5.66,1,.78,1.68.01.21.04.4.07.61.08.08.28.18.61.32.07.02.14.05.21.08.23.08.45.18.67.26.17.06.32.11.47.18.46.18.91.36,1.37.54.22-.22.41-.44.62-.69.09-.14.21-.27.33-.39.19-.11.37-.26.54-.44.03-.23.01-.45,0-.69-.02-.11-.03-.21-.03-.29-.01-.32-.05-.64-.08-.96-.01-.24-.06-.47-.07-.71l-.18-1.93c-.09-.68-.14-1.34-.21-2.02-.09-1.22-.21-2.44-.33-3.63-.12-1.19-.22-2.35-.36-3.53v-.22c-.03-.38-.07-.74-.1-1.1-.27-3.11-.57-6.2-.87-9.29h-.12c-.86,4.18-1.7,8.35-2.55,12.52l-.51,2.54c-.12.63-.25,1.25-.37,1.86-.07.38-.15.75-.22,1.1-.07.35-.14.7-.21,1.03l-.08.37h-.01s.03.01.03.01c-.15.75-.29,1.49-.36,2.25.34.15.66.32.96.54Z"/>
    <path class="st0" d="M49.29,26.09c.22-.16.39-.31.51-.46.17-.37.17-.59.1-.98-.12-.35-.29-.47-.61-.64h0c-.72-.1-1.2.06-1.5.77-.03.47.03.78.33,1.14.43.24.69.23,1.18.17Z"/>
    <path class="st0" d="M58.26,52.12c.39-.25.76-.53,1.15-.78.08-.06.17-.11.25-.17.17-.09.32-.2.47-.3.29-.18.52-.34.76-.55.01-.18,0-.61-.07-1.3-.03-.09-.03-.2-.03-.3-.03-.36-.07-.72-.1-1.05-.01-.25-.04-.51-.07-.76-.06-.63-.11-1.24-.18-1.86-.09-.79-.16-1.61-.24-2.41-.14-1.32-.25-2.64-.39-3.94-.13-1.29-.24-2.58-.39-3.84v-.24c-.04-.4-.09-.79-.12-1.19-.31-3.34-.65-6.71-.98-10.06h-.1c-.1.16-.17.44-.21.83v.25c-.02.29-.05.57-.08.86-.04.22-.07.42-.07.64-.05.58-.09,1.16-.15,1.73-.05.62-.11,1.25-.17,1.87l-.3,3.15c-.09,1.07-.2,2.15-.3,3.23h.01c-.54,5.63-1.07,11.24-1.54,16.87.37.18.72.36,1.08.54.59-.42,1.17-.82,1.77-1.22Z"/>
    <path class="st0" d="M74.4,54.63c-.38-.36-.92-.54-1.39-.3h.02c-.31.24-.52.39-.6.78-.04.46.01.69.25,1.08.44.28.79.29,1.3.21.39-.26.47-.45.64-.87-.01-.36-.07-.6-.22-.9Z"/>
    <path class="st0" d="M71.87,57.28c-.58-.43-.78-1-.9-1.68-.02-.18-.05-.36-.08-.54-.07-.09-.17-.16-.29-.24-.09-.07-.16-.11-.24-.17-.09-.06-.18-.11-.26-.18-.85-.58-1.69-1.19-2.54-1.8-.52-.4-1.05-.76-1.62-1.08-.24.28-.48.43-.78.6h0s-.03.01-.03.01v-.03c-.14.1-.28.19-.4.29-.04.26,0,.53.03.79l.07.26c.01.09.04.2.07.3.01.11.06.21.07.33.14.63.26,1.27.4,1.89.25,1.17.55,2.32.62,3.51.04.8.08,1.58.4,2.3.57.69,2.16,1.34,4.78,1.95.12-.14.22-.28.26-.42.03-.08.05-.17.06-.25.04-.11.06-.19.07-.29.04-.09.06-.2.07-.3.04-.2.09-.42.12-.64.07-.34.14-.7.21-1.03.06-.21.08-.45.14-.67.04-.1.06-.22.07-.32.11-.55.22-1.12.29-1.69.02-.29-.02-.5-.12-.64-.15-.07-.32-.16-.47-.26Z"/>
    <path class="st0" d="M64.98,50.42c.05-.37.06-.72-.12-1.08-.24-.25-.43-.42-.75-.49-.68-.02-1.05.24-1.28.91,0,.43.08.62.32.98.34.24.56.32.98.32.41-.13.6-.28.85-.64Z"/>
    <path class="st0" d="M69.68,78.77c-.7-.1-1.04-.01-1.5.54-.08.36-.08.65,0,.98.25.38.43.52.85.67.43,0,.62-.08.98-.33.2-.36.32-.63.32-1.05v-.02h-.01c-.15-.37-.32-.55-.64-.79Z"/>
    <path class="st0" d="M68.6,13.53c.43.22.59.24,1.05.12.24-.16.43-.35.57-.6.1-.39.15-.56,0-.93-.22-.34-.37-.52-.76-.6-.45-.04-.68.01-1.07.25-.28.44-.31.79-.21,1.3v.02h.01-.01c.12.18.25.33.42.44Z"/>
    <path class="st0" d="M70.92,65.4c-.37-.16-.76-.28-1.15-.42-.15-.05-.32-.1-.47-.17-.22-.08-.45-.17-.69-.25l-.22-.08c-.45-.15-.86-.3-1.32-.37,0,.39.05.71.12,1.08.04.09.06.18.07.26.05.27.1.57.17.87.06.2.08.41.14.62.08.45.18.88.26,1.32.11.56.21,1.14.33,1.71.08.43.18.89.26,1.33.06.22.08.43.14.64.06.3.11.61.18.91l.07.26c.1.47.17.92.42,1.34.18-.95.39-1.9.57-2.84.11-.5.21-.97.29-1.46.11-.47.21-.94.29-1.41.05-.17.08-.33.11-.5h-.04c.21-.95.39-1.88.47-2.84Z"/>
    <path class="st0" d="M83.86,68.29h0s.01.01.01.01h-.01c-.59-.14-.88-.15-1.37.22-.21.27-.3.67-.24,1.18.15.32.34.46.64.64.46.08.79.05,1.18-.21.25-.38.32-.59.32-1.05-.11-.4-.2-.55-.53-.79Z"/>
    <path class="st0" d="M82.1,65.81c-.03-.34-.07-.66-.1-.98-.01-.23-.06-.45-.07-.67-.05-.52-.1-1.06-.17-1.59-.01-.18-.04-.37-.07-.55-.03-.16-.05-.31-.06-.46-.03-.14-.06-.28-.06-.39s-.03-.22-.03-.32c-.05-.16-.18-.31-.42-.46-.14-.05-.26-.09-.4-.12-.36-.24-.58-.39-.76-.78-.37-.76-.77-1.03-1.55-1.33-.14-.06-.27-.08-.39-.14-.38-.13-.77-.28-1.14-.42-.12-.04-.24-.09-.36-.12-.49-.19-.88-.39-1.39-.22-.09.06.01.01-.24.18-.17.12-.31.24-.42.36,0,.16.03.31.06.46.04.09.06.2.07.3l.15.76c.19.8.37,1.61.44,2.41.12,1.24.19,2.6.76,3.74.46.66,1.67,1.19,3.62,1.59.38.05.71.14,1.07.26.25.11.46.18.72.21.24-.12.42-.25.59-.42.17-.22.22-.56.18-1l-.03-.3Z"/>
    <path class="st0" d="M83.1,57.56c-.15-.31-.34-.46-.64-.64-.67-.07-.97.01-1.39.54h0s-.01-.01-.01-.01c-.12.41-.17.65,0,1.05.24.28.42.43.75.57.46,0,.7-.07,1.07-.33.19-.28.26-.67.22-1.18Z"/>
    <path class="st0" d="M66.93,50.52l.24.12.21.15.21.15c.09.05.16.11.24.17.83.57,1.66,1.13,2.45,1.73.09.06.15.13.24.18.09.05.06.02.24.17.13.09.25.18.39.26.3.08.41.12.67,0,.09-.05.12-.07.24-.15.09-.05.16-.11.24-.15.18-.25.2-.96.08-2.11,0-.11-.03-.21-.03-.33-.04-.39-.06-.78-.12-1.15-.04-.36-.09-.71-.12-1.07l-.21-1.83c-.11-.89-.21-1.76-.29-2.66-.17-1.44-.32-2.86-.47-4.32-.16-1.43-.31-2.83-.46-4.23l-.03-.26c-.07-.43-.09-.86-.15-1.3l-1.18-11.08h-.1c-.1.43-.15.85-.18,1.29-.03.09-.03.2-.03.3-.01.33-.05.68-.08,1.01-.01.26-.04.5-.07.75-.06.68-.11,1.34-.18,2.02-.05.49-.08.99-.15,1.5v.22l-.03.44c-.12,1.37-.25,2.75-.37,4.09-.09,1.24-.21,2.49-.33,3.74-.12,1.31-.24,2.58-.36,3.87-.06.65-.11,1.31-.18,1.95-.04.69-.11,1.39-.18,2.08-.01.25-.06.51-.07.76-.03.36-.07.71-.1,1.07-.02.11-.03.22-.03.32-.04.48-.09.93-.1,1.39h-.06c0,.38-.05.62.21.91Z"/>
    <path class="st0" d="M64.46,41.07c-.06-.77-.11-1.53-.18-2.31-.13-1.67-.28-3.35-.42-5h-.1c-.07,1.26-.15,2.54-.22,3.8-.04.64-.09,1.27-.12,1.94-.03.63-.07,1.25-.1,1.89-.03.23-.06.48-.06.72-.1,1.76-.18,3.51-.25,5.27h.33c.5,0,.97-.03,1.44.07.05.03.1.06.17.06.01-.6-.01-1.18-.07-1.79-.02-.12-.03-.24-.03-.36-.03-.4-.07-.79-.1-1.19-.01-.36-.05-.71-.08-1.07h0s-.04,0-.04,0c-.05-.68-.1-1.34-.17-2.02Z"/>
    <path class="st0" d="M63.45,22.2c.47,0,.72-.04,1.08-.37.29-.43.28-.65.21-1.18-.1-.18-.24-.32-.42-.44-.71-.29-1.15-.25-1.61.42-.12.4-.14.6,0,1h0-.03c.22.31.37.5.76.57Z"/>
    <polygon class="st1" points="78.26 24.21 78.26 24.22 78.27 24.22 78.27 24.21 78.26 24.21"/>
    <path class="st1" d="M85.55,67.9c-.39-.62-.96-1.03-1.68-1.19-.08,0-.18,0-.26-.01,0-.3,0-.62-.01-.93,0-.1,0-.21-.03-.3,0-.12-.03-.24-.03-.33,0-.12-.03-.24-.03-.36-.03-.39-.07-.78-.12-1.16-.03-.26-.06-.54-.07-.8-.07-.72-.15-1.44-.21-2.16,0-.07,0-.14-.01-.21l.54-.22c.42-.37.76-.8.96-1.33.21-.76.12-1.5-.22-2.23-.39-.64-.96-1.01-1.68-1.19h-.26c0-.42,0-.83-.07-1.23l-.03-.26c-.03-.32-.06-.62-.08-.94-.01-.24-.03-.46-.07-.69-.06-.51-.08-1-.14-1.5-.07-.8-.15-1.61-.22-2.41l-.33-3.59s0-.15,0-.22l-.1-1.08-.21-2.18v-.22c-.12-1.14-.24-2.26-.33-3.4-.07-.68-.12-1.34-.18-2.02-.25-2.69-.51-5.35-.69-8.03.1-.03.22-.07.32-.1.54-.4,1.05-.85,1.33-1.48.17-.69.18-1.57-.15-2.19-.51-.75-1.05-1.19-1.93-1.4-.8-.08-1.47.06-2.15.54-.67.61-.91,1.29-1.01,2.16.03.64.21,1.26.68,1.72.08.07.15.14.24.21.09.07.15.14.24.21l.18.15c-.47,2.41-.96,4.82-1.46,7.26-.08.46-.18.9-.26,1.33l-.51,2.55c-.21.96-.39,1.94-.6,2.92-.42,2.09-.85,4.19-1.26,6.28-.1-.32-.15-.61-.18-.93,0-.08,0-.17-.03-.25-.03-.29-.07-.55-.08-.85-.03-.21-.06-.42-.07-.62-.07-.55-.12-1.14-.18-1.69l-.21-1.84c-.12-1.03-.22-2.08-.33-3.11-.15-1.46-.3-2.88-.46-4.34-.68-6.32-1.34-12.63-2.01-18.96.51-.24.91-.55,1.29-.96.4-.61.49-1.18.46-1.89-.07-.78-.42-1.26-1-1.77-.64-.46-1.22-.62-2-.57-.78.1-1.39.53-1.87,1.11-.42.72-.57,1.47-.37,2.27.24.71.62,1.19,1.26,1.57.15.08.28.17.39.25v.64c0,.08,0,.15-.01.24,0,.08-.01.18-.03.26,0,.1,0,.21-.03.29-.03.33-.07.67-.08.98-.03.24-.06.47-.07.72l-.18,1.95c-.07.69-.12,1.39-.18,2.08-.12,1.23-.22,2.47-.33,3.72-.1,1.19-.22,2.41-.32,3.62,0,.08-.01.15-.03.22-.03.37-.07.75-.1,1.11-.29,3.17-.57,6.33-.86,9.5-.06-.46-.1-.9-.14-1.33,0-.12-.01-.24-.03-.36-.01-.21-.03-.42-.06-.62,0-.15-.03-.3-.03-.46-.03-.42-.07-.83-.1-1.23-.03-.44-.07-.87-.1-1.32-.07-.83-.14-1.65-.21-2.48l-.24-2.86c-.17-2.04-.33-4.09-.49-6.13.6-.33,1.03-.61,1.39-1.19.3-.64.42-1.26.26-1.95-.24-.85-.67-1.39-1.41-1.8-.69-.32-1.46-.36-2.18-.12-.75.46-1.34,1-1.61,1.84-.08.8-.08,1.52.4,2.22l.21.25c.15.17.3.32.46.46.21.08.43.15.64.22-.36,6.27-.72,12.32-1.07,18.41-.06-.25-.1-.51-.14-.78,0-.08,0-.15-.03-.24,0-.08,0-.18-.03-.26,0-.1,0-.18-.03-.29l-.1-1c0-.24-.06-.49-.07-.72l-.21-1.98c-.06-.55-.1-1.11-.17-1.69-.14-1.47-.29-2.94-.42-4.41-.12-1.22-.24-2.43-.36-3.65-.12-1.18-.24-2.37-.36-3.56-.07-.69-.14-1.4-.21-2.11-.07-.68-.14-1.34-.21-2.02-.03-.25-.06-.49-.07-.75-.03-.36-.07-.69-.1-1.03,0-.1-.03-.21-.03-.32-.07-.69-.1-1.34-.08-2.04.3-.15.57-.33.86-.54.57-.55.78-1.19.8-2-.03-.83-.3-1.54-.91-2.11-1.34-.87-2.87-.75-3.95.51-.49.75-.44,1.55-.36,2.4.22.68.57,1.05,1.16,1.4.18.08.33.19.46.33.03.6,0,1.18-.07,1.76,0,.12,0,.24-.03.33-.03.39-.07.78-.1,1.18-.03.36-.07.72-.1,1.08-.07.71-.14,1.41-.21,2.13-.06.57-.12,1.16-.17,1.73v.25c0,.17-.03.33-.06.51l-.42,4.46c-.14,1.46-.26,2.88-.4,4.32-.15,1.57-.29,3.16-.44,4.73,0,.17-.03.33-.06.51v.25c-.06.57-.12,1.16-.17,1.73-.07.72-.14,1.44-.21,2.15-.03.29-.06.6-.08.87-.15,1.52-.26,3.04-.51,4.56-.08-.42-.18-.86-.26-1.3,0-.08-.03-.17-.07-.25-.29-1.37-.6-2.76-.87-4.13-.29-1.33-.57-2.66-.86-4.01-.17-.83-.36-1.65-.53-2.47-.15-.75-.32-1.48-.47-2.23-.08-.39-.17-.78-.25-1.16-.32-1.48-.62-2.97-1-4.44-.03-.08-.06-.18-.07-.26h.22c.57-.33.94-.71,1.26-1.3.26-.72.26-1.52,0-2.25-.33-.67-.79-1.11-1.48-1.41-.71-.24-1.48-.24-2.18.08-.68.36-1.14.9-1.4,1.62-.08.85-.1,1.55.36,2.27l.15.22c.18.29.3.4.62.54l.25.1c-.07.67-.12,1.33-.18,2.01,0,.08,0,.18-.03.29-.03.33-.07.67-.1,1-.03.24-.06.49-.07.72-.07.53-.12,1.05-.17,1.57-.08.85-.17,1.69-.25,2.54-.03.36-.07.72-.12,1.08v.22c-.1.83-.18,1.64-.26,2.47,0,.08,0,.15-.03.24-.12,1.22-.24,2.45-.37,3.66l-.36,3.56c-.07.71-.15,1.41-.22,2.13-.07.68-.14,1.34-.21,2.02-.03.25-.06.51-.07.76-.14,1.26-.25,2.52-.33,3.77v.24h-.22c-.44.21-.69.47-.94.87-.4.69-.57,1.37-.39,2.16.21.61.55,1.22,1.15,1.52l.21.1c-.15,1.33-.26,2.65-.37,3.99,0,.21-.03.4-.03.61-.03.47-.07.94-.1,1.41,0,.14,0,.25-.03.37-.37,0-.53.07-.86.22-.72.42-1.16.93-1.4,1.73-.08.78-.08,1.48.36,2.15.06.07.1.12.15.18.1.12.22.25.36.37.24.08.46.18.68.33.22.5.33,1.03.3,1.61v15.72h1.5c-.03-2.19-.06-4.39-.06-6.58l.21-.03-.16-.14h0s.02.02.02.02h-.02s0-.01,0-.02l-.06-.05.06.05c0-1.02,0-2.07-.03-3.09v-2.72c0-.47,0-.96-.03-1.44v-1.84c0-.49,0-.94.14-1.41.25-.25.49-.39.8-.53.39-.18.61-.49.79-.87,0-.12.03-.24.06-.36.17-.42.21-.46.57-.64.18-.07.36-.15.54-.21.08-.03.18-.07.29-.12.3-.12.61-.24.91-.33.21-.08.4-.17.61-.24.51-.21,1.01-.39,1.52-.57.17.44.07.85-.03,1.29,0,.08-.03.17-.06.25-.06.26-.1.55-.15.85,0,.08-.03.18-.07.29-.1.51-.21,1.01-.3,1.52-.08.42-.17.83-.24,1.25-.08.51-.18,1.01-.3,1.5-.03.18-.07.39-.12.57-.18,1-.43,1.65-.75,1.93-.32.28-.53.37-.62.29-.54.21-.8.67-1.07,1.16-.17.91-.17,1.69.29,2.5.36.49.79.8,1.34,1v6.6c.54,0,1.07,0,1.61.01,0-.83-.06-1.65-.06-2.5,0-.4,0-.8-.03-1.19v-1.6c0-.46,0-.87.12-1.32.25-.24.49-.37.8-.53.42-.21.61-.57.79-1,.24-.75.21-1.5-.12-2.19-.33-.6-.72-.87-1.26-1.26.36-1.94.75-3.87,1.15-5.79.08-.36.15-.72.24-1.1.12-.61.25-1.23.39-1.84.15-.71.3-1.41.44-2.11.15-.76.32-1.52.47-2.27.06-.22.08-.44.14-.67l.25-1.19c0-.12.06-.24.07-.36.03-.1.06-.22.07-.33,0-.1.03-.18.07-.29.06-.24.1-.46.15-.69.18.36.29.68.36,1.07.03.14.06.25.08.39.03.15.07.29.08.42.03.15.07.3.08.46.08.4.17.8.25,1.22.08.42.18.86.26,1.29.15.71.3,1.44.46,2.15.17.83.33,1.65.53,2.48.17.79.33,1.59.51,2.38.07.33.14.68.21,1.01.08.4.17.8.25,1.19.03.15.07.3.08.44.15.71.29,1.41.36,2.15.04.49,0,.51-.17.1-.68.46-1.08.96-1.3,1.76-.12.75,0,1.4.36,2.07.42.51.79.8,1.41,1.05v6.64c.51,0,1-.01,1.5-.03v-6.6c.28-.15.57-.29.86-.44.15-.12.26-.25.36-.37.14-.18.1-.12.15-.18.47-.71.46-1.54.33-2.37-.22-.64-.51-1.01-1.08-1.37-.07-.06-.15-.1-.24-.15-.07-.03-.12-.07-.18-.12.42-2.63.85-5.25,1.3-7.89.08-.47.15-.94.24-1.41.15-.87.3-1.77.46-2.65.17-1.01.33-2.02.51-3.04.36-2.08.69-4.16,1.05-6.21h.22s.03.14.06.21c.36,1.73.71,3.48,1.07,5.21.18.93.37,1.84.57,2.77.08.4.17.8.25,1.23.03.15.07.32.1.49,0,.08.03.15.06.24.1.49.21.96.3,1.46.32,1.59.67,3.17.98,4.74.08.44.18.87.26,1.33.1.49.21.96.3,1.44.06.24.1.49.15.75.03.1.06.22.07.33.01.1.03.21.07.3,0,.08.03.17.06.26.03.15,0,.33-.08.55-.22.14-.42.29-.64.42-.54.57-.76,1.11-.79,1.89.03.78.22,1.46.79,2.01l.96.54v6.63h1.62v-6.63c.28-.15.57-.29.86-.44.15-.14.26-.28.36-.42.14-.22.1-.15.15-.22.42-.71.42-1.37.36-2.18-.22-.83-.83-1.29-1.5-1.73.36-2,.75-3.96,1.14-5.95.07-.37.15-.75.22-1.11.14-.69.26-1.4.42-2.09.17-.79.32-1.61.49-2.4.32-1.64.64-3.26.96-4.89.26.26.29.46.36.83.03.14.07.26.08.4.03.15.07.29.08.44.03.15.07.3.1.46.08.42.17.85.25,1.25.08.44.18.87.26,1.32.15.72.3,1.47.46,2.19.17.85.33,1.71.53,2.55.17.8.33,1.64.51,2.45.07.36.15.69.22,1.05.08.4.17.8.25,1.23.03.15.07.3.08.46.03.21.08.4.12.61.01.12.06.24.07.36.06.33.07.64.06.98-.12.06-.22.08-.33.15-.54.32-.85.78-1.07,1.37-.1.78-.14,1.62.29,2.31.42.51.8.79,1.44,1.05v6.6h1.5c-.01-.8-.03-1.62-.06-2.43v-1.18c-.03-.37-.03-.76-.03-1.15,0-.22,0-.42-.01-.64,0-.64.11-1.08.32-1.3.24-.17.49-.29.76-.42.6-.51.83-1.18.9-1.94-.03-.8-.3-1.5-.9-2.07-.37-.24-.76-.4-1.18-.54-.06-.18-.11-.39-.17-.64-.03-.14-.07-.26-.08-.42-.03-.15-.07-.3-.08-.46l-.1-.47c-.08-.42-.17-.85-.25-1.25-.08-.4-.17-.83-.25-1.25-.12-.55-.24-1.11-.33-1.69-.17-.85-.33-1.71-.54-2.55-.07-.36-.12-.64-.12-1.01.51.07.96.21,1.44.37l.22.08c.15.06.3.1.46.17.24.08.47.17.69.25.15.06.3.1.46.15.07.03.14.06.21.08.33.12.53.22.61.3.03.18.07.36.08.54.15.8.33,1.37,1,1.87.14.1.29.18.42.29.1.07.22.15.32.22.03.21.04.43.06.68v10.12c0,2.09,0,4.2.01,6.29.51,0,1,0,1.5.01.03-5.82.07-11.46.1-17.12.71-.36,1.33-.85,1.65-1.59.21-.8.15-1.68-.25-2.4ZM51.12,80.31h-.03c-.25.35-.44.5-.85.66-.42,0-.62-.08-.96-.33-.24-.4-.33-.62-.26-1.1.3-.6.54-.8,1.23-.78.33.07.51.24.75.47.18.36.17.71.12,1.08ZM57.05,12.57h.01c.07-.42.18-.61.49-.91.33-.17.69-.17,1.08-.1.39.26.51.46.64.91,0,.47-.14.68-.44,1.03-.37.18-.78.18-1.18.1-.39-.32-.51-.53-.6-1.03ZM56.95,35.93h-.01c.1-1.08.21-2.16.3-3.23l.3-3.15c.06-.62.12-1.25.17-1.87.06-.57.1-1.15.15-1.73,0-.22.03-.42.07-.64.03-.29.06-.57.08-.86v-.25c.04-.39.11-.67.21-.83h.1c.33,3.35.67,6.72.98,10.06.03.4.08.79.12,1.19v.24c.15,1.26.26,2.55.39,3.84.14,1.3.25,2.62.39,3.94.08.8.15,1.62.24,2.41.07.62.12,1.23.18,1.86.03.25.06.51.07.76.03.33.07.69.1,1.05,0,.1,0,.21.03.3.07.69.08,1.12.07,1.3-.24.21-.47.37-.76.55-.15.1-.3.21-.47.3-.08.06-.17.11-.25.17-.39.25-.76.53-1.15.78-.6.4-1.18.8-1.77,1.22-.36-.18-.71-.36-1.08-.54.47-5.63,1-11.24,1.54-16.87ZM47.78,24.78c.3-.71.78-.87,1.5-.76h0c.32.16.49.28.61.63.07.39.07.61-.1.98-.12.15-.29.3-.51.46-.49.06-.75.07-1.18-.17-.3-.36-.36-.67-.33-1.14ZM46.89,51.25h-.03v-.07h-.04c0-.22.06-.44.07-.67.07-.6.12-1.18.18-1.77.06-.49.1-.98.15-1.48.12-1.16.24-2.33.36-3.49.12-1.19.24-2.4.37-3.59.1-1.03.21-2.08.3-3.11.07-.61.12-1.23.18-1.84.07-.57.12-1.15.18-1.73,0-.21.03-.42.07-.64.03-.29.07-.57.08-.86,0-.08,0-.17.03-.25.04-.39.11-.61.18-.69h.1s.03.14.06.21c.39,1.77.76,3.56,1.15,5.34.21.94.4,1.89.61,2.84.15.67.29,1.33.42,2,.08.42.18.83.26,1.25.37,1.71.72,3.41,1.1,5.13.06.24.1.47.15.69.03.08.04.15.06.22.03.15.07.3.1.46.08.36.15.72.24,1.08.08.39.17.78.25,1.18.03.12.06.24.07.36.03.1.06.21.07.32.03.08.04.18.07.26.03.15.03.35.03.55-.08.03-.18.07-.26.12-.54.32-1.03.72-1.19,1.34,0,.08-.03.18-.07.29-.08.33-.12.49-.42.68l-.29.12c-.1.04-.21.08-.32.14-.12.03-.22.08-.33.14l-.33.14c-.32.14-.67.26-.98.39-.12.06-.22.08-.33.14-.26.1-.54.22-.8.32l-.25-.25c-.22-.21-.42-.4-.67-.57-.07-.06-.12-.08-.18-.14-.24-.15-.47-.24-.72-.33.07-1.41.18-2.8.32-4.23ZM44.89,57.56h0c.39-.6.68-.7,1.39-.63.39.22.51.39.69.79.07.47,0,.64-.26,1.05-.32.26-.49.32-.91.32-.46-.14-.64-.25-.91-.67-.07-.3-.07-.55,0-.86ZM45.31,70c-.3.32-.4.33-.85.39-.37,0-.46-.03-.76-.26h.01c-.26-.4-.33-.62-.33-1.09.14-.33.29-.51.55-.75.4-.17.64-.14,1.05,0,.25.21.39.36.54.64.06.46.06.69-.21,1.07ZM52.46,63.37h.02s0,0,0-.01h.01s-.01.01-.01.01c-.03.12-.06.23-.07.35-.07.33-.14.68-.21,1.01-.03.1-.04.21-.07.3-.03.1-.04.19-.07.29l-.06.25c-.03.15-.08.33-.15.54-.18.1-.39.21-.64.3-.06.03-.12.06-.18.08l-.64.25c-.15.07-.29.12-.42.17-.29.12-.55.24-.85.33-.3.12-.62.25-.93.39-.07.03-.15.07-.22.08-.18.08-.36.15-.54.24-.3.08-.42.12-.72-.03-.14-.12-.26-.26-.39-.42-.15-.21-.35-.39-.57-.54-.06-1.33.08-2.65.22-3.99,0-.24.03-.47.07-.71.06-.57.1-1.14.15-1.69.07-.03.15-.06.22-.07l.29-.08c.1-.03.18-.06.29-.08.61-.22.98-.62,1.29-1.18.12-.24.18-.4.18-.69.06-.19.19-.35.4-.47.15-.07.29-.12.42-.17l.22-.08c.15-.07.32-.12.47-.18.24-.08.49-.18.72-.29.15-.07.3-.12.46-.18.07-.03.15-.07.22-.08.4-.15.69-.24,1.11-.08.18.17.36.36.54.54.18.12.36.22.54.32-.33,1.86-.72,3.72-1.1,5.57ZM55.41,56.17c-.39.24-.62.29-1.07.26-.39-.08-.54-.29-.76-.61-.17-.39-.12-.54.03-.93.33-.67.8-.69,1.48-.57h-.01c.22.15.4.33.54.55.12.51.07.86-.21,1.3ZM60.23,79.72h.01c0,.41-.06.59-.32.9-.32.26-.49.33-.91.33-.49-.15-.64-.33-.91-.76-.07-.39-.03-.6.15-.94.36-.49.78-.57,1.34-.46.39.26.51.46.64.93ZM60.64,65.42h-.01c0,.08-.03.18-.06.29-.06.3-.1.61-.15.93-.03.21-.07.42-.1.64-.1.55-.18,1.11-.29,1.69-.11.58-.21,1.15-.29,1.72-.18,1.11-.39,2.25-.57,3.35-.07-.03-.14-.07-.22-.1-.07-.25-.12-.49-.18-.76,0-.08-.03-.15-.06-.24-.06-.26-.1-.53-.17-.78-.03-.18-.07-.36-.12-.54-.08-.39-.15-.76-.24-1.15-.1-.49-.21-.98-.3-1.47-.08-.37-.15-.76-.24-1.11-.03-.18-.08-.36-.12-.54-.06-.25-.1-.51-.15-.76,0-.08-.03-.15-.06-.24-.07-.3-.1-.57-.1-.87,1.14-.46,2.29-.93,3.45-1.4.12.49.07.86-.03,1.34h.01ZM62.28,55.61c-.03.18-.07.36-.08.54-.07.37-.12.76-.18,1.14-.08.49-.17.96-.24,1.46-.07.37-.12.75-.18,1.11-.03.18-.07.36-.08.54-.03.25-.08.49-.12.75l-.03.22c-.07.36-.12.69-.32,1-.12.08-.25.15-.39.21-.21.08-.15.07-.24.1l-.25.1c-.08.03-.18.07-.26.12-.26.12-.55.22-.85.33-.18.08-.39.15-.57.24-.47.18-.93.37-1.4.55-.25-.25-.26-.39-.36-.76-.03-.12-.06-.22-.07-.33-.03-.12-.06-.24-.07-.37-.01-.13-.06-.24-.08-.37-.06-.25-.12-.53-.17-.78-.08-.4-.17-.8-.25-1.19-.06-.25-.1-.51-.15-.76-.03-.12-.06-.24-.08-.36,0-.12-.03-.22-.07-.33,0-.08-.03-.18-.07-.3-.03-.17-.06-.36-.06-.57.11-.1.25-.21.4-.3.57-.42.93-.8,1.1-1.54v-.29c0-.58.1-1,.3-1.25.26-.21.55-.39.86-.57.21-.14.42-.26.64-.4.12-.07.22-.14.33-.21.51-.32,1-.67,1.48-1.01.17-.12.33-.24.51-.36v-.06h-.04l.02-.05c.12-.08.24-.17.36-.25.39.18.72.4,1.08.67-.07,1.14-.22,2.22-.42,3.33ZM77,79.24v-.02h.01s0,.01,0,.02c.39-.46.79-.54,1.37-.46.21.18.39.36.54.54.05.06.08.1.1.12,0,0,.04.05,0,0,0,0,0,0,0,0,.03.57-.03.96-.21,1.18-.37.25-.6.33-1.03.32-.4-.12-.55-.18-.79-.54-.14-.43-.15-.75.02-1.16,0,0,0,0,0,0ZM78.26,24.22h0s.01,0,.01,0c0,0,0,0,0,0,.44-.29.79-.33,1.29-.21.36.25.51.44.64.86,0,.42-.07.64-.32.98-.4.24-.62.33-1.1.26-.33-.17-.53-.26-.72-.6-.1-.51-.07-.86.21-1.29,0,0,0,0,0,0ZM74.64,50.57h0v-.03.02h.01l.08-.37c.07-.33.14-.68.21-1.03.07-.35.15-.72.22-1.1.12-.61.25-1.23.37-1.86l.51-2.54c.85-4.17,1.69-8.34,2.55-12.52h.12c.3,3.09.6,6.18.87,9.29.03.36.07.72.1,1.1v.22c.14,1.18.24,2.34.36,3.53.12,1.19.24,2.41.33,3.63.07.68.12,1.34.21,2.02l.18,1.93c.01.24.06.47.07.71.03.32.07.64.08.96,0,.08.01.18.03.29.01.24.03.46,0,.69-.17.18-.35.33-.54.44-.12.12-.24.25-.33.39-.21.25-.4.47-.62.69-.46-.18-.91-.36-1.37-.54-.15-.07-.3-.12-.47-.18-.22-.08-.44-.18-.67-.26-.07-.03-.14-.06-.21-.08-.33-.14-.53-.24-.61-.32-.03-.21-.06-.4-.07-.61-.12-.68-.3-1.18-.78-1.68-.3-.22-.62-.39-.96-.54.07-.76.21-1.5.36-2.25h-.03ZM68.18,13.09v-.02c-.1-.51-.07-.86.21-1.3.39-.24.62-.29,1.07-.25.39.08.54.26.76.6.15.37.1.54,0,.93-.14.25-.33.44-.57.6-.46.12-.62.1-1.05-.12-.17-.11-.3-.26-.42-.44ZM66.72,49.61h.06c0-.46.06-.91.1-1.39,0-.1.01-.21.03-.32.03-.36.07-.71.1-1.07.01-.25.06-.51.07-.76.07-.69.14-1.39.18-2.08.07-.64.12-1.3.18-1.95.12-1.29.24-2.56.36-3.87.12-1.25.24-2.5.33-3.74.12-1.34.25-2.72.37-4.09l.03-.44v-.22c.07-.51.1-1.01.15-1.5.07-.68.12-1.34.18-2.02.03-.25.06-.49.07-.75.03-.33.07-.68.08-1.01,0-.1,0-.21.03-.3.03-.44.08-.86.18-1.29h.1l1.18,11.08c.06.44.08.87.15,1.3l.03.26c.15,1.4.3,2.8.46,4.23.15,1.46.3,2.88.47,4.32.08.9.18,1.77.29,2.66l.21,1.83c.03.36.08.71.12,1.07.06.37.08.76.12,1.15,0,.12.03.22.03.33.12,1.15.1,1.86-.08,2.11-.08.04-.15.1-.24.15-.12.08-.15.1-.24.15-.26.12-.37.08-.67,0-.14-.08-.26-.17-.39-.26-.18-.15-.15-.12-.24-.17-.09-.05-.15-.12-.24-.18-.79-.6-1.62-1.16-2.45-1.73-.08-.06-.15-.12-.24-.17l-.21-.15-.21-.15-.24-.12c-.26-.29-.21-.53-.21-.91h-.03.03ZM64.67,43.09h.02-.02c.03.37.07.72.08,1.08.03.4.07.79.1,1.19,0,.12.01.24.03.36.06.61.08,1.19.07,1.79-.07,0-.12-.03-.17-.06-.47-.1-.94-.07-1.44-.07h-.33c.07-1.76.15-3.51.25-5.27,0-.24.03-.49.06-.72.03-.64.07-1.26.1-1.89.03-.67.08-1.3.12-1.94.07-1.26.15-2.54.22-3.8h.1c.14,1.65.29,3.33.42,5,.07.78.12,1.54.18,2.31.07.68.12,1.34.17,2.02h.04ZM62.69,21.63h.02c-.14-.4-.12-.6,0-1,.46-.67.9-.71,1.61-.42.18.12.32.26.42.44.07.53.08.75-.21,1.18-.36.33-.61.37-1.08.37-.39-.07-.54-.26-.76-.57ZM63.15,50.74c-.24-.36-.32-.55-.32-.98.24-.67.61-.93,1.28-.91,0,0,0,0,0,0h0,.03s-.01,0-.02,0c.32.07.51.24.75.49.18.36.17.71.12,1.08-.25.36-.44.51-.85.64-.42,0-.64-.08-.98-.32ZM70.32,79.56h.01v.02c0,.42-.12.69-.32,1.05-.36.25-.55.33-.98.33-.42-.15-.6-.29-.85-.67-.08-.33-.08-.62,0-.98.46-.55.8-.64,1.5-.54.32.24.49.42.64.79ZM70.5,68.2h0s.02,0,.02,0v.03h-.03c-.03.17-.06.33-.11.5-.08.47-.18.94-.29,1.41-.08.49-.18.96-.29,1.46-.18.94-.39,1.89-.57,2.84-.25-.42-.32-.87-.42-1.34l-.07-.26c-.07-.3-.12-.61-.18-.91-.06-.21-.08-.42-.14-.64-.08-.44-.18-.9-.26-1.33-.12-.57-.22-1.15-.33-1.71-.08-.44-.18-.87-.26-1.32-.06-.21-.08-.42-.14-.62-.07-.3-.12-.6-.17-.87-.01-.08-.03-.17-.07-.26-.07-.37-.12-.69-.12-1.08.46.07.87.22,1.32.37l.22.08c.24.08.47.17.69.25.15.07.32.12.47.17.39.14.78.26,1.15.42-.08.96-.26,1.89-.47,2.84h.04s0-.03,0-.04ZM72.17,59.87c-.01.1-.03.22-.07.32-.06.22-.08.46-.14.67-.07.33-.14.69-.21,1.03-.03.22-.08.44-.12.64-.01.1-.03.21-.07.3-.01.1-.03.18-.07.29,0,.08-.03.17-.06.25-.04.14-.14.28-.26.42-2.62-.61-4.21-1.26-4.78-1.95-.32-.72-.36-1.5-.4-2.3-.07-1.19-.37-2.34-.62-3.51-.14-.62-.26-1.26-.4-1.89-.01-.12-.06-.22-.07-.33-.03-.1-.06-.21-.07-.3l-.07-.26c-.03-.26-.07-.53-.03-.79.12-.1.26-.19.4-.29v.03h.03c.3-.18.54-.33.78-.61.57.32,1.1.68,1.62,1.08.85.61,1.69,1.22,2.54,1.8.08.07.17.12.26.18.08.06.15.1.24.17.12.08.22.15.29.24.03.18.06.36.08.54.12.68.32,1.25.9,1.68.15.1.32.19.47.26.1.14.14.35.12.64-.07.57-.18,1.14-.29,1.69ZM73.98,56.4c-.51.08-.86.07-1.3-.21-.24-.39-.29-.62-.25-1.08.08-.39.29-.54.6-.78h-.02c.47-.24,1.01-.06,1.39.3.15.3.21.54.22.9-.17.42-.25.61-.64.87ZM81.97,67.09h0s.04.02.04.02h-.06s0,0,0,0c-.17.17-.35.31-.59.42-.26-.03-.47-.1-.72-.21-.36-.12-.69-.21-1.07-.26-1.95-.4-3.16-.93-3.62-1.59-.57-1.14-.64-2.5-.76-3.74-.07-.8-.25-1.61-.44-2.41l-.15-.76c-.01-.1-.03-.21-.07-.3-.03-.15-.06-.3-.06-.46.11-.12.25-.24.42-.36.25-.17.15-.12.24-.18.51-.17.9.03,1.39.22.12.03.24.08.36.12.37.14.76.29,1.14.42.12.06.25.08.39.14.78.3,1.18.57,1.55,1.33.18.39.4.54.76.78.14.03.26.07.4.12.24.15.37.3.42.46,0,.1.03.21.03.32s.03.25.06.39c.01.15.03.3.06.46.03.18.06.37.07.55.07.53.12,1.07.17,1.59.01.22.06.44.07.67.03.32.07.64.1.98l.03.3c.04.44-.01.78-.18,1,0,0,.01-.01.02-.02ZM81.81,59.07c-.33-.14-.51-.29-.75-.57-.17-.4-.12-.64,0-1.05h.01c.42-.52.72-.6,1.39-.53.3.18.49.33.64.64.04.51-.03.9-.22,1.18-.37.26-.61.33-1.07.33ZM84.07,70.13c-.39.26-.72.29-1.18.21-.3-.18-.49-.32-.64-.64-.06-.51.03-.91.24-1.18.49-.37.78-.36,1.37-.22h0c.33.23.42.38.53.78,0,.46-.07.67-.32,1.05Z"/>
    <polygon class="st1" points="51.09 80.31 51.09 80.31 51.1 80.3 51.09 80.31"/>
    <path class="st1" d="M64.11,48.85s0,0,0,0c0,0,.01,0,.02,0h-.02Z"/>
    <polygon class="st1" points="45.14 82.35 45.14 82.35 45.08 82.3 45.14 82.35"/>
    <path class="st1" d="M70.52,68.21h-.02s0,.02,0,.03h.03v-.03Z"/>
    <polygon class="st1" points="52.48 63.36 52.48 63.37 52.49 63.37 52.48 63.36"/>
    <path class="st1" d="M82.01,67.11l-.04-.02h0s-.01.01-.02.02c0,0,0,0,0,0h.06Z"/>
    <path class="st1" d="M77,79.22v.02s0,0,0,0c0,0,0-.01,0-.02h-.01Z"/>
    <path class="st1" d="M79.01,79.44c.04.05,0,0,0,0h0Z"/>
  </g>
  <path class="st3" d="M84.73,88.86c-.1-.04-.21-.08-.29-.1h-1.83v-.08c-.47,0-.91-.01-1.37-.01v.11h-3.55v-.11h-1.37v.11h-2.26v-.1h-2.26v.1h-2.07v-.08h-1.48v.08h-2.86v-.1h-2.47v.1h-2.47v-.1c-.47,0-.91,0-1.37.03v.08h-2.36v-.1h-2.26v.1h-2.26v-.08c-.5,0-.97,0-1.47-.01v.1h-3.73v-.1h-1.37v.08h-2.09c-.15.01-.3.04-.47.1-.32.32-.49.61-.53,1.07.04.39.11.65.39.93.3.25.91.36,1.84.36h39.12c.37,0,.62-.01.9-.15.01,0,.04-.01.06-.03.01,0,.03-.01.04-.03.11-.08.18-.15.25-.26.18-.32.25-.64.24-1.03-.03-.21-.11-.39-.26-.57-.08-.08-.21-.15-.37-.26v-.03h-.01v-.02h0Z"/>
  <path class="st4" d="M65.31,83.95v-1.73,6.75h0v.1s0-5.12,0-5.12Z"/>
  <path class="st4" d="M65.31,81.59v-.93h0v.91h0v.02Z"/>
  <path class="st5" d="M98.76,55.95h1.3c.08-.08.18-.32.32-.71.03-.08.07-.17.08-.25.07-.18.12-.36.18-.54.1-.26.21-.55.3-.85.07-.18.12-.36.18-.54.03-.08.07-.18.08-.26.03-.08.07-.17.08-.25.03-.08.07-.15.08-.24.06-.15.1-.32.15-.49.07-.33.14-.67.21-.96h7.74c0,.33.07.57.18.9.03.08.06.15.08.24.07.15.12.32.17.49.08.25.18.51.26.76.07.17.12.33.17.49.03.08.06.15.08.24.24.68.49,1.33.76,2h2.69c0-.08-.03-.18-.07-.32l-.1-.26c-.03-.12-.08-.22-.12-.32-.03-.12-.08-.24-.12-.36l-.42-1.15c-.1-.26-.21-.54-.3-.8-.57-1.62-1.16-3.23-1.76-4.82-.44-1.18-.86-2.37-1.29-3.55-.06-.15-.1-.3-.15-.44-.24-.68-.49-1.34-.72-2.02-.08-.21-.15-.42-.24-.64l-.22-.61-.14-.39c-.06-.12-.08-.24-.14-.36-.12-.35-.39-1.01-.79-2h-3.33c-.72,1.87-1.4,3.77-2.08,5.66-.68,1.91-1.37,3.8-2.07,5.71-.8,2.23-1.62,4.46-2.41,6.72h1.29l.03-.03.04-.04h.02ZM104.62,42.84c.08-.22.15-.42.24-.64.12-.3.22-.61.33-.91.03-.08.07-.18.1-.29.15-.42.28-.67.36-.76.21.32.3.57.44.93.06.12.08.24.14.37.04.14.08.26.14.39.06.14.1.26.15.42.14.37.25.72.39,1.1.14.36.25.72.39,1.1.49,1.41,1,2.84,1.48,4.26h-6.24c.69-2,1.39-3.99,2.11-5.96h-.03Z"/>
  <path class="st5" d="M152.63,48.62c-.87.85-1.3,1.8-1.39,3.04,0,1.37.36,2.55,1.32,3.55.87.75,1.84,1.14,2.99,1.14h.32c1.71,0,2.88-.51,4.31-1.44.12-.08.22-.15.33-.22v1.3h2.37v-7.58c0-1.84.12-3.56-1.21-5-1.21-1.14-2.91-1.34-4.49-1.34h-.22c-1.57,0-2.99.24-4.51.61v2.38c.36,0,.62-.03.78-.08.57-.25,1.21-.4,1.8-.55,1.59-.32,3.42-.36,4.82.54.33.62.55,1.32.64,2.07-2.48-.1-5.85,0-7.87,1.65v-.03h0v-.04h0ZM160.56,50.39v.51c.06.93-.04,1.54-.3,1.86-.26.21-.54.33-.86.49-.07.03-.14.07-.21.12-.17.08-.36.17-.53.25-.12.06-.24.1-.36.15-.61.24-1.15.25-1.79.26h-.29c-.71,0-1.33-.07-1.89-.54-.55-.72-.72-1.29-.64-2.19.26-.85.78-1.29,1.5-1.72.86-.33,1.77-.47,2.69-.57.08,0,.17,0,.25-.03.78-.07,1.54-.07,2.31-.07.03.49.06,1,.07,1.48h.05Z"/>
  <path class="st5" d="M141.36,56.32c1.93.03,3.74-.26,5.35-1.46,1-.85,1.87-1.94,2-3.3.08-1.5,0-2.76-1.03-3.92-.1-.08-.21-.17-.29-.25-.8-.73-2.37-1.32-4.7-1.77-.36-.07-.71-.14-1.08-.21-.24-.06-.47-.08-.71-.14-.93-.17-1.8-.39-2.63-.87-.42-.46-.64-.85-.69-1.47,0-.87.07-1.48.68-2.15.93-.72,1.94-1.01,3.12-1.01h.33c1.86,0,3.47.4,5.06,1.37.46.26.71.4,1.23.51v-2.92c-3.15-1.34-7.19-1.93-10.37-.4-1.21.64-2.23,1.62-2.66,2.95-.26,1.44-.21,3.02.62,4.27,1.3,1.64,3.3,2.13,5.25,2.45,1.54.25,3.47.39,4.67,1.44.33.39.42.75.46,1.25,0,1-.1,1.59-.78,2.33-.98.78-2.15,1.01-3.38,1.01h-.33c-2.02,0-4.02-.54-5.67-1.76-.39-.3-.51-.36-1.03-.46v3.15c2.08.85,4.03,1.33,6.27,1.34h.3v.02h.01Z"/>
  <polygon class="st4" points="72.22 83.63 72.22 83.63 72.22 83.63 72.22 83.63"/>
  <path class="st4" d="M77.19,85.78v-.1h0v.1Z"/>
  <path class="st4" d="M77.18,82.76v-1.07,2.61-1.54h0Z"/>
  <path class="st4" d="M72.22,83.91h0s0,.01,0,0Z"/>
  <path class="st5" d="M175.1,51.83c.51,1.61,1.47,2.91,2.95,3.72,2.04.93,4.56,1.08,6.74.44.14-.06.25-.1.39-.15.57-.21,1.15-.42,1.72-.64v-2.61h-.32c-1.33.9-2.72,1.54-4.34,1.57h-.3c-1.1,0-2.07-.18-2.95-.85-1.26-1.05-1.5-2.23-1.72-3.87h9.88v-2.61c-.33-1.54-.76-2.77-2-3.8-2.62-1.8-6.47-1.32-8.64.96-1.3,1.54-1.8,3.53-1.76,5.54v.22c.03.71.15,1.39.33,2.07h.02,0ZM178.52,44.9c1.32-1,3.17-1.26,4.7-.57.78.47,1.26,1.16,1.5,2.04.1.47.14.87.14,1.34h-7.61c.14-1.15.47-2,1.29-2.81h-.02,0Z"/>
  <path class="st4" d="M155.32,81.84h.21c.47,0,.9-.01,1.32-.08-.42.06-.85.08-1.32.08h-.21Z"/>
  <path class="st5" d="M198.86,43.14l.18.42c.17.39.33.79.51,1.18.03.08.07.18.12.25.26.64.54,1.29.79,1.93.06.1.08.18.12.29.21.49.4.96.61,1.46.42,1,.85,2.01,1.26,3.01.14.3.26.61.39.91.08.18.17.39.25.57.12.26.24.54.36.8.03.08.07.17.12.25.07.15.14.3.18.46.07.62-.03,1.22-.3,1.8-.06.08-.08.18-.14.29-.14.3-.26.61-.42.93s-.29.62-.42.94c-.08.21-.18.4-.26.61-.06.1-.08.18-.14.29l-.12.26c-.17.37-.3.72-.42,1.14h2.58c1.08-2.54,2.18-5.09,3.24-7.64.6-1.39,1.18-2.77,1.77-4.16.07-.14.12-.26.17-.39l.8-1.87c.64-1.48,1.25-2.95,1.84-4.44h-2.58c-.15.39-.32.76-.49,1.15-.03.07-.07.15-.08.22-.4.98-.8,1.95-1.22,2.94-.04.11-.08.22-.14.33-.22.54-.46,1.1-.68,1.65-.47,1.16-.94,2.33-1.48,3.47-.1-.3-.22-.61-.36-.91l-.1-.24c-.07-.18-.15-.36-.22-.53-.21-.49-.4-.98-.61-1.47-.06-.1-.08-.21-.14-.3-.51-1.25-1.03-2.5-1.54-3.73-.04-.11-.08-.22-.14-.33-.17-.42-.36-.85-.53-1.29-.14-.32-.25-.62-.39-.93h-2.69s.03.19.1.37l.15.36v-.07h.03l.04.02h0Z"/>
  <path class="st4" d="M176.5,84.57c-.1-.03-.18-.08-.29-.14.1.03.18.1.29.14,1.41.37,3.17.37,4.62-.15-1.44.51-3.17.53-4.62.14h0Z"/>
  <path class="st5" d="M167.14,55.95h2.47v-11.59h3.96v-1.94h-4.08c.08-1.14,0-2.07.76-2.92,1.18-.42,2.43-.54,3.72-.39.15,0,.3.03.47.06v-2.07c-.57-.14-.98-.21-1.22-.24h-1.11c-1.25,0-2.38.07-3.38.91-1.23,1.18-1.52,2.63-1.57,4.28v.36h-1.5v1.94h1.5v11.59h-.03.01Z"/>
  <path class="st5" d="M122.94,54.11h-2.37v-14.4h2.37v-1.84h-7.19v1.84h2.37v14.4h-2.37v1.84h7.19v-1.84Z"/>
  <path class="st5" d="M190.54,47.3v4.09c0,1.46.12,2.91,1.21,4.02.8.67,1.77.93,2.8.93h.32c.94,0,1.79-.08,2.7-.37v-2.07h-.42c-.55.15-1.03.24-1.61.24h-.25c-.55,0-1.01,0-1.5-.26-.51-.94-.78-1.98-.78-3.09v-6.41h4.62v-1.94h-4.62v-3.9h-2.37v3.9h-1.61v1.94h1.61v2.94h-.1v-.02h0Z"/>
  <path class="st2" d="M65.26,85.34v-5.21c0-.51-.07-.83-.37-1.22-.42-.33-.76-.39-1.29-.32-.42.17-.61.25-.86.64-.14.49-.12.96-.12,1.46v8.28h2.69v-3.63h-.06.01Z"/>
  <path class="st2" d="M68.24,82.41v3.27-3.27Z"/>
  <path class="st2" d="M65.31,80.36c0-.32,0-.62-.03-.93.03.32.03.62.03.94h0Z"/>
  <path class="st2" d="M65.3,85.6v-4.02h0v-1.22c0-.32,0-.62-.03-.94-.24-.49-.49-.72-.96-.98-.55-.06-.91-.03-1.34.36-.42.49-.51.96-.51,1.62v8.54h.12v-8.28c0-.49,0-.98.12-1.46.25-.39.42-.49.86-.64.54-.07.86-.01,1.29.32.3.39.36.72.37,1.22v8.1c.01.25.01.51.03.76h0v-3.35h.07l-.03-.03h0Z"/>
  <g>
    <path class="st0" d="M176.5,84.57c-.1-.03-.18-.08-.29-.14.1.03.18.1.29.14,1.41.37,3.17.37,4.62-.15-1.44.51-3.17.53-4.62.14h0Z"/>
    <path class="st0" d="M157.45,84.77h.22c.51,0,.98-.01,1.44-.08-.46.07-.93.08-1.44.08h-.22Z"/>
    <path class="st0" d="M122.56,78.53c.01-.15.06-.3.07-.47,0-.24,0-.46-.03-.68.01.39,0,.78-.03,1.15h-.01Z"/>
    <path class="st0" d="M136.35,82.34c-.61-.71-1.03-1.5-1.29-2.38.25.86.68,1.68,1.29,2.38Z"/>
    <path class="st0" d="M146.03,74.01c-.54-.53-1.16-.91-1.87-1.15.71.25,1.33.62,1.87,1.15Z"/>
    <path class="st0" d="M134.73,77.78c0,.12-.03.22,0,.33h0s0,.01,0,0v-.33Z"/>
    <path class="st0" d="M146.14,83.78c.21-.12.4-.22.6-.36.29-.24.64-.53.93-.85-.29.32-.64.6-.93.85-.18.14-.39.24-.6.36Z"/>
    <path class="st0" d="M133.06,72.68s-.12-.01-.18-.03c.07,0,.12.01.18.03.06.03.12.04.18.06.1.01.1-.15.15-.24-.06.08-.1.15-.15.24-.06,0-.12-.03-.18-.06Z"/>
    <path class="st0" d="M129.19,82.04v-1.54,1.54Z"/>
    <path class="st0" d="M114.56,84.3c-.1-.03-.21-.08-.3-.14h0c.1.06.21.08.3.14,1,.46,1.94.47,3.04.47.69,0,1.34-.17,1.98-.39-.62.22-1.29.37-1.95.37-1.1,0-2.04,0-3.04-.47h-.03s0,.02,0,.02Z"/>
    <path class="st0" d="M120.01,84.25c.75-.32,1.44-.79,2.04-1.4.08-.1.12-.14.15-.18-.03.06-.08.08-.17.18-.61.61-1.29,1.08-2.02,1.4Z"/>
    <path class="st0" d="M112.87,83.22c-.69-.6-1.25-1.32-1.68-2.13.42.8.98,1.54,1.68,2.13Z"/>
    <path class="st0" d="M115.09,70.99c.57-.17,1.15-.25,1.72-.26-.57.03-1.16.1-1.73.26-1.25.44-2.31,1.26-3.15,2.3.83-1.03,1.89-1.84,3.15-2.27h.01v-.03Z"/>
    <path class="st0" d="M122.48,71.35c-.03.61-.07,1.19-.1,1.8-.26-.33-.53-.61-.8-.87.29.26.54.54.8.87.03-.6.07-1.19.1-1.8Z"/>
    <path class="st0" d="M129.45,72.38s-.14.15-.18.22h0c.07-.08.12-.15.18-.24h0v.02Z"/>
    <path class="st0" d="M122.38,82.48c.01.3.03.51.06.69,0-.17-.01-.37-.03-.69h-.03Z"/>
    <path class="st0" d="M111.02,74.68h0c.12-.22.26-.42.4-.64-.14.21-.29.4-.39.62h-.01v.02Z"/>
    <path class="st0" d="M129.9,74.43c.29-.61.68-1.15,1.26-1.57.12-.07.25-.12.39-.17-.14.03-.25.08-.39.17-.6.44-.98.98-1.26,1.59h0v-.03h0Z"/>
    <path class="st0" d="M124.21,84.42h0v-13.31h0v13.31Z"/>
    <path class="st0" d="M147.03,80.73c.29.12.53.25.78.44.08.07.17.12.25.18,0,0,.03.01.06.03,0,0-.03-.01-.06-.03-.08-.07-.17-.12-.25-.18-.25-.17-.51-.32-.79-.44-.18,0-.36.07-.53.21-.18.24-.39.44-.6.62.21-.21.4-.39.6-.62.17-.14.35-.21.53-.21h0Z"/>
    <path class="st0" d="M155.39,82.51l-.06-.03c-.06-.01-.08-.03-.12-.06.03.01.07.03.12.07.03,0,.03.01.06.03h0Z"/>
    <path class="st0" d="M152.68,78.07v-.14h11.81-11.81v.15h0Z"/>
    <path class="st0" d="M159.13,84.68c.53-.08,1.05-.22,1.57-.46.08-.06.12-.07.15-.08-.03.01-.08.03-.15.08-.53.25-1.03.39-1.57.47h0Z"/>
    <path class="st0" d="M163.54,80.36c.08.06.18.1.29.15.03,0,.06.03.08.06-.03,0-.06-.03-.08-.06-.1-.06-.18-.1-.29-.15-.37-.18-.69-.32-1.11-.39-.26.44-.55.79-.86,1.14.3-.33.6-.69.87-1.14.42.07.75.18,1.11.39h0Z"/>
    <path class="st0" d="M164.04,80.64h0c-.33.93-.91,1.72-1.61,2.38.69-.67,1.26-1.44,1.62-2.38h0Z"/>
    <path class="st0" d="M159.68,82.55s-.07.03-.1.07h0s.07-.03.1-.07Z"/>
    <path class="st0" d="M185.3,75.52c-.42-1.32-1.21-2.47-2.27-3.35,1.08.87,1.86,2.04,2.27,3.35Z"/>
    <path class="st0" d="M182.82,71.97h0c-1.52-1.07-3.45-1.48-5.28-1.19,1.84-.29,3.77.14,5.28,1.19Z"/>
    <path class="st0" d="M183.47,83.02s.03-.03.03-.06l-.06.06h.03Z"/>
    <path class="st0" d="M137.66,74.66c.1-.14.18-.26.29-.4.44-.42.91-.75,1.4-1.01-.49.26-.96.6-1.39,1-.12.14-.21.26-.3.42h0Z"/>
    <path class="st0" d="M147.39,74.62c-.26.14-.3.15-.47.15.17,0,.21,0,.47-.14.12-.08.22-.15.32-.22.18-.14.37-.26.55-.39h0c-.18.14-.37.25-.55.39l-.32.22h0Z"/>
    <path class="st0" d="M142.14,72.58h.25-.26,0Z"/>
    <path class="st0" d="M146.42,74.4c.12.17.22.26.4.37h0c-.18-.1-.29-.21-.42-.37h.02Z"/>
    <path class="st0" d="M143.31,82.9c.22-.03.42-.1.62-.15-.21.07-.4.12-.62.15-1.94.14-3.45-.08-5.05-1.3-.06-.03-.08-.1-.12-.14.06.06.08.1.14.15,1.61,1.19,3.11,1.44,5.05,1.3h-.02Z"/>
    <path class="st0" d="M160.31,71.2c-.76-.3-1.59-.47-2.45-.47h-.07.08c.86,0,1.68.15,2.45.47h0Z"/>
    <path class="st0" d="M152.38,73.11c-1,1.25-1.57,2.7-1.69,4.32,0,.54.03,1.08.12,1.59-.08-.51-.12-1.03-.12-1.57.1-1.62.68-3.09,1.68-4.34h.01Z"/>
    <path class="st0" d="M153.65,71.88c-.25.15-.49.33-.71.54-.06.08-.1.14-.15.18.06-.07.1-.12.17-.18.22-.22.46-.39.69-.54h0Z"/>
    <path class="st0" d="M154.93,84.35c.75.29,1.54.42,2.38.42h.14-.14c-.85,0-1.65-.14-2.4-.42h.02,0Z"/>
    <path class="st0" d="M103.83,66.76c-.93-.3-2.54-.3-6.79-.3v17.97h0v-17.97c4.24,0,5.85,0,6.79.3Z"/>
    <path class="st0" d="M104.82,74.73c-.12-.07-.24-.15-.33-.26h0c.12.12.24.18.36.26h-.03Z"/>
    <path class="st0" d="M104.72,74.23s.12-.1.18-.15c.32-.29.57-.61.8-.93-.22.32-.49.64-.8.93-.07.06-.12.1-.18.15Z"/>
    <path class="st0" d="M107.15,76.6c-.46-.69-1.05-1.22-1.84-1.62-.12-.06-.24-.12-.33-.17.1.06.22.12.33.17.8.4,1.39.93,1.84,1.62Z"/>
    <path class="st0" d="M174.45,72.19c-.98.78-1.77,1.76-2.27,3.01-.3.86-.44,1.77-.42,2.69,0-.91.12-1.83.44-2.69.51-1.25,1.29-2.23,2.27-3.01h-.03,0Z"/>
    <path class="st0" d="M215.15,73.14c-.26-.32-.53-.61-.8-.86.29.26.54.54.8.87h0Z"/>
    <path class="st0" d="M200.23,81.44v2.97h0v-5.59,2.63h0Z"/>
    <path class="st0" d="M198.29,76.02c-.08-1.01-.33-1.95-1.1-2.76.75.79,1,1.73,1.1,2.76Z"/>
    <path class="st0" d="M196.28,72.76c.29.1.57.22.85.42h0c-.26-.18-.55-.32-.85-.4h0v-.02Z"/>
    <path class="st0" d="M207.3,84.3c-.1-.03-.21-.08-.3-.14-.36-.17-.69-.39-1.01-.64.32.24.64.46,1.01.64.12.06.22.08.3.14,1.01.46,1.95.47,3.06.47.39,0,.76-.07,1.14-.14-.37.07-.75.12-1.14.14-1.08,0-2.04,0-3.04-.47h-.03,0Z"/>
    <path class="st0" d="M190.51,78.93v.22-.22c0-1.59,0-3.11.91-4.49.12-.15.25-.3.37-.44-.14.15-.26.29-.39.44-.9,1.39-.9,2.91-.91,4.49h.02Z"/>
    <path class="st0" d="M203.24,76.71c-.1.78-.1,1.55.03,2.31-.12-.76-.12-1.54-.03-2.31Z"/>
    <path class="st0" d="M214.87,82.74s.14-.14.25-.26h0c-.14.14-.18.21-.25.29h0v-.03Z"/>
    <path class="st0" d="M190.49,81.36v-1.47,1.46h0Z"/>
    <path class="st0" d="M200.23,76.71v-.85c-.1-1.22-.37-2.37-1.03-3.31.67.96.93,2.09,1.03,3.31v.85Z"/>
    <path class="st0" d="M190.56,73.04c0-.29-.03-.57-.06-.86,0,.29.03.57.06.87h0Z"/>
    <path class="st0" d="M192.66,71.35c-.61.3-1.16.71-1.65,1.19-.12.12-.22.24-.33.36.12-.12.22-.24.33-.36.49-.49,1.05-.9,1.64-1.19h0Z"/>
    <path class="st0" d="M207.83,70.99c.6-.17,1.18-.25,1.79-.26-.6.01-1.21.1-1.79.26-1.5.53-2.73,1.61-3.62,2.94.87-1.33,2.11-2.4,3.62-2.94Z"/>
    <path class="st0" d="M181.12,84.42c.17-.07.36-.1.53-.18.08-.03.12-.06.17-.08-.06.03-.08.03-.17.08-.17.08-.36.12-.53.18Z"/>
    <path class="st0" d="M172.33,80.71c.85,1.73,2.13,3.02,3.9,3.73-1.77-.71-3.04-2-3.9-3.73Z"/>
    <path class="st5" d="M121.76,80.84c.07-.12.12-.25.17-.37-.21.36-.44.71-.75,1.03.21-.21.39-.42.55-.67h.03Z"/>
    <path class="st5" d="M122.4,76.1s-.01-.03-.01-.06c.03.1.03.21.07.29-.01-.08-.01-.15-.03-.24h-.03Z"/>
    <path class="st5" d="M173.64,78.54c.06.36.15.69.25,1.01-.21-.62-.29-1.26-.26-1.93v.91h0Z"/>
    <path class="st5" d="M114.11,81.86h-.01s0-.01.01,0Z"/>
    <path class="st5" d="M214.48,80.84c.07-.12.1-.24.17-.36-.18.32-.4.64-.67.94.17-.18.36-.37.51-.6h0v.02h0Z"/>
    <path class="st5" d="M175.85,82.26s.15.07.24.12c-.14-.08-.29-.17-.42-.26.07.06.1.1.17.15h0Z"/>
    <path class="st5" d="M183.58,76.06c-.1-.29-.24-.55-.39-.83.49.96.64,2.01.61,3.16.08-.76,0-1.52-.22-2.33Z"/>
    <path class="st5" d="M180.1,82.94c.49-.15.94-.39,1.37-.68-.64.39-1.3.62-2,.72.21-.01.42,0,.62-.06h0v.02h.01Z"/>
    <path class="st5" d="M180.87,72.92c-.08-.03-.17-.06-.25-.08.49.22.93.51,1.34.86-.33-.3-.69-.57-1.1-.78h.01Z"/>
    <path class="st5" d="M174.66,74.51c-.32.46-.54.93-.71,1.4.33-.83.79-1.52,1.4-2.11-.24.22-.47.44-.69.69h0v.02h0Z"/>
    <path class="st5" d="M118.4,83.01c1.01-.18,1.94-.68,2.66-1.4-1.23,1.07-2.45,1.4-3.96,1.4.4.03.83.03,1.3,0Z"/>
    <path class="st5" d="M118.6,72.57c-.67-.15-1.33-.15-1.98-.06.67-.1,1.33-.1,1.98.06Z"/>
    <path class="st5" d="M119.64,72.9c-.1-.06-.21-.07-.3-.12.18.07.37.17.54.26-.08-.06-.15-.1-.24-.15h0Z"/>
    <path class="st5" d="M112.22,78.16c0,.08.03.17.06.24,0-.12-.03-.24-.06-.36v.12Z"/>
    <path class="st5" d="M183.13,80.51c.08-.17.14-.32.21-.49-.22.49-.51.96-.86,1.37.24-.26.47-.55.67-.87h-.02Z"/>
    <path class="st5" d="M113.57,74.15c-.15.18-.29.39-.4.6.17-.25.33-.49.54-.71-.06.06-.1.08-.14.12h0Z"/>
    <path class="st5" d="M206.32,74.15c-.17.21-.32.44-.46.67.18-.29.37-.54.61-.79-.06.06-.1.08-.15.14h0v-.02Z"/>
    <path class="st5" d="M215.15,76.1c-.06-.14-.12-.26-.17-.4.1.24.17.49.24.75,0-.12-.03-.24-.06-.36h-.01Z"/>
    <path class="st5" d="M211.38,72.57c-.67-.15-1.33-.17-2-.06.67-.1,1.33-.1,2,.06Z"/>
    <path class="st5" d="M219.37,65.54c-2.11-2.07-4.46-2.69-7.33-2.69h-111.42c-2.79,0-5.31.42-7.37,2.45-2.11,2.22-2.66,4.66-2.66,7.65,0,.21.01.42,0,.64v1.34c.01.57.01,1.15.01,1.72-.01.46-.01.91-.01,1.37,0,.22,0,.44.01.67-.01,2.91.32,5.54,2.41,7.74,2.11,2.04,4.48,2.69,7.35,2.69h111.41c2.8,0,5.31-.44,7.4-2.47,2.11-2.22,2.66-4.64,2.65-7.64v-5.75c0-2.91-.33-5.54-2.43-7.72h-.02,0ZM107.51,81.32c-.75,1.46-1.76,2.31-3.26,2.88-2.33.6-4.8.22-7.19.22h0v-17.97c4.26,0,5.86,0,6.79.3.57.18.9.47,1.4.96.91.98,1.19,2.15,1.18,3.45-.06.78-.32,1.41-.71,2.01-.22.32-.49.64-.8.93-.06.06-.12.1-.18.15-.08.07-.17.14-.25.22.12.12.22.21.33.26.06.03.1.06.14.08.1.06.22.1.33.17.8.4,1.39.93,1.84,1.62.01.03.06.06.07.08s.03.07.06.1c.14.22.25.44.37.69.07.22.12.46.15.69,0,.1.06.18.06.26.12.98,0,2.02-.32,2.87h.01-.03v.03h.01ZM124.21,84.42h-1.72c-.03-.67-.06-.87-.07-1.26,0-.17-.01-.37-.06-.69-.08.1-.14.15-.18.21-.03.06-.08.1-.15.18-.61.61-1.3,1.08-2.04,1.4-.14.07-.29.08-.44.14-.62.22-1.29.37-1.98.39-1.1,0-2.04-.01-3.04-.47-.1-.06-.21-.08-.3-.14h0c-.51-.25-.96-.6-1.39-.94-.69-.6-1.25-1.32-1.68-2.13-.15-.29-.29-.55-.4-.85-.57-1.77-.55-3.87.22-5.57h0c.12-.22.26-.42.39-.62.17-.26.33-.53.53-.76.83-1.03,1.89-1.86,3.15-2.3.57-.17,1.15-.24,1.73-.26,1.5-.07,2.99.3,4.27,1.14.18.14.32.26.47.42.29.26.54.54.8.87.06-.6.07-1.19.1-1.8v-.25h1.72v13.31h.07v-.02h0ZM133.61,72.15c-.07.11-.14.22-.21.32-.1.15,0,0,0,0-.06.08-.1.15-.15.24-.07,0-.12-.03-.18-.06-.08-.03-.12-.01-.18-.03-.46-.08-.9-.1-1.32.03-.14.06-.25.1-.39.17-.6.42-.98.96-1.26,1.57-.21.42-.36.86-.46,1.34-.22,1.55-.22,3.15-.24,4.71v1.77c0,.72-.03,1.44-.03,2.15h-1.83v-13.32h1.83c.06.75.06.76.1,1.5.07-.07.14-.15.18-.22.03-.06.08-.1.12-.15,1.11-1.29,2.92-2.08,4.53-1.14-.07.42-.26.71-.49,1.05v.06h-.04.02ZM148.25,74.04c-.18.12-.37.25-.55.39-.1.07-.21.14-.32.22-.26.14-.3.15-.47.14h-.07c-.18-.1-.29-.21-.4-.37,0-.01-.03-.03-.06-.07-.1-.12-.22-.22-.33-.32-.54-.53-1.16-.91-1.87-1.15-.26-.1-.55-.17-.85-.24-.3-.01-.62-.01-.93-.01h-.53c-.93,0-1.76.24-2.54.67-.49.26-.96.6-1.4,1.01-.12.14-.21.26-.29.4-.69.96-1.03,2.08-1.01,3.3.1,1.23.61,2.62,1.5,3.49.06.06.08.1.12.14,1.61,1.22,3.11,1.44,5.05,1.3.22-.03.42-.08.62-.15.22-.07.44-.17.67-.26.08-.03.18-.08.26-.14.39-.22.71-.49,1.01-.78.21-.21.4-.39.6-.62.17-.14.35-.21.53-.21.29.12.54.26.79.44.08.07.17.12.25.18,0,0,.03.03.06.03.06.03.08.07.14.1-.06.37-.26.72-.55,1.03,0,0,0,.03-.03.06h0c-.29.32-.64.6-.93.85-.18.14-.39.24-.6.36-1.23.72-2.58,1.03-4.03,1.01h-.39c-.51,0-1-.07-1.47-.15,0,0-.03,0-.06-.01-1.37-.29-2.56-.94-3.65-2.02-.07-.08-.12-.17-.18-.25-.61-.71-1.03-1.5-1.29-2.38-.15-.53-.29-1.07-.33-1.62v-.22h0v-.36c0-1.77.72-3.42,1.84-4.78.33-.36.69-.68,1.08-.94.07-.06.14-.07.21-.12.32-.22.67-.42,1.03-.57h.03c2.55-1.11,5.71-.79,8,.79.57.46,1.25,1.11,1.37,1.87h-.03v-.04h0ZM164.47,77.93h-11.81v.14c.26,1.87.71,3.04,2.23,4.19.15.08.21.12.3.17.03,0,.07.03.12.06.03.01.03.03.06.03.06.01.07.03.14.08,1.23.51,2.8.53,4.03.01.03-.01.07-.03.1-.07.78-.39,1.37-.86,1.87-1.44.3-.33.6-.71.86-1.14.42.07.75.21,1.11.39.1.06.18.1.29.15.03,0,.06.03.08.06.06.01.08.06.14.07h0c-.36.93-.91,1.72-1.62,2.38-.46.42-.94.79-1.5,1.08-.03.01-.07.03-.08.06-.06.01-.08.06-.15.08-.53.24-1.03.39-1.57.46-.46.07-.94.08-1.44.08h-.36c-.85,0-1.64-.14-2.38-.42s-1.41-.71-2.02-1.3c-1.14-1.18-1.83-2.52-2.08-4.03-.08-.51-.14-1.03-.12-1.59.1-1.62.68-3.08,1.69-4.32.14-.17.24-.33.39-.49h0s.12-.14.15-.21c.22-.21.46-.39.71-.54.26-.17.54-.32.85-.47.07-.03.15-.07.22-.1.37-.18.72-.29,1.08-.37.14-.03.25-.07.39-.08.42-.07.86-.08,1.34-.08h.33c.86,0,1.69.17,2.45.47s1.47.76,2.09,1.34c1.44,1.46,2.07,3.33,2.07,5.36h.04ZM169.08,84.42h-1.84v-18.41h1.84v18.41ZM185.47,79.32c-.07.32-.15.62-.26.93-.25.71-.6,1.4-1.08,2.04-.15.17-.29.33-.44.51-.06.06-.1.12-.17.17,0,0-.03.03-.03.06h0c-.49.49-1.01.8-1.62,1.11,0,0-.03,0-.06.01-.06.03-.08.06-.17.08-.17.08-.36.12-.53.18-1.44.53-3.17.53-4.62.15-.1-.03-.18-.1-.29-.14-1.77-.71-3.06-2-3.9-3.73h0c-.36-.86-.55-1.79-.57-2.72h0v-.08c0-.91.12-1.83.42-2.69.51-1.25,1.3-2.23,2.27-3.01.51-.4,1.07-.78,1.68-1.07.46-.17.93-.29,1.41-.36,1.84-.29,3.77.12,5.28,1.19h0s.14.14.21.18c1.08.9,1.86,2.04,2.27,3.35.14.42.25.86.32,1.32.08.86,0,1.69-.15,2.48h0v.03h.03,0ZM200.23,78.46v5.96h-1.83v-7.01c0-.47,0-.94-.06-1.39-.08-1.01-.36-1.95-1.1-2.76-.03-.03-.03-.06-.07-.08-.29-.21-.55-.32-.85-.42-.69-.22-1.4-.24-2.18-.15-.91.18-1.68.69-2.27,1.37-.14.15-.25.29-.37.44-.9,1.39-.9,2.91-.91,4.49v2.99c0,.83,0,1.65-.03,2.5h-1.83v-13.32h1.83c0,.36.03.72.06,1.08,0,.29.03.57.06.86.03-.06.08-.08.12-.14.12-.12.22-.24.33-.36.49-.49,1.05-.9,1.65-1.19.22-.12.46-.21.68-.29.08-.03.17-.07.25-.1.3-.1.62-.17.94-.22h0c.29-.03.57-.06.87-.06h.1c.98.03,1.95.33,2.84.96.32.26.6.57.8.9.68.96.93,2.09,1.03,3.31v2.58h-.03v.05h-.03ZM216.96,84.42h-1.72c-.04-.64-.07-1.28-.1-1.94-.12.12-.18.18-.25.26-.03.03-.06.06-.1.1-.93.93-2.07,1.55-3.31,1.79-.37.07-.75.12-1.14.14-1.1,0-2.04-.01-3.06-.47-.08-.06-.18-.08-.3-.14-.36-.18-.69-.4-1.01-.64-1.11-.83-1.95-2-2.45-3.3-.14-.39-.22-.8-.29-1.22-.12-.76-.12-1.54-.03-2.31.08-.71.24-1.4.53-2.04.14-.26.3-.51.47-.75.86-1.33,2.11-2.41,3.62-2.94.6-.17,1.18-.24,1.79-.26,1.48-.07,2.95.3,4.24,1.14.18.14.32.26.47.42.29.25.54.54.8.86.03-.68.07-1.34.1-2.04h1.72v13.32h0v.03h.02Z"/>
    <rect class="st4" x="167.25" y="66.01" width="1.84" height="18.41"/>
    <path class="st5" d="M212.39,72.9c-.1-.06-.21-.07-.3-.1.18.08.37.17.55.25-.08-.06-.17-.12-.25-.17h0v.02Z"/>
    <path class="st5" d="M204.96,78.16s.03.15.06.24c0-.12-.03-.24-.06-.36v.12Z"/>
    <path class="st5" d="M206.83,81.86h0s-.06-.06-.07-.07c0,.01.03.03.06.06h.01Z"/>
    <path class="st5" d="M211.17,83.01c1.01-.18,1.93-.68,2.66-1.39-1.23,1.07-2.45,1.4-3.95,1.4.4.03.83.03,1.3,0h-.01Z"/>
    <path class="st4" d="M104.24,84.2c1.52-.57,2.52-1.44,3.26-2.88.33-.85.46-1.91.33-2.87,0-.1-.03-.18-.06-.26-.03-.24-.08-.47-.15-.69-.12-.25-.24-.47-.37-.69-.01-.03-.03-.07-.06-.1s-.06-.06-.07-.08c-.46-.69-1.05-1.22-1.84-1.62l-.33-.17s-.1-.06-.14-.08c-.12-.07-.24-.15-.36-.26h0c.08-.07.17-.14.25-.21.07-.06.12-.1.18-.15.32-.29.57-.61.8-.93.4-.57.67-1.23.71-2.01.01-1.32-.26-2.47-1.18-3.45-.51-.47-.83-.78-1.4-.96-.93-.3-2.55-.3-6.79-.3v17.97c2.41,0,4.88.37,7.19-.22h-.01.04v-.04h0ZM98.89,68.17c2.59,0,4.2.25,4.82.76.54.62.79,1.19.78,2.02-.1.86-.44,1.52-1.05,2.13-.75.53-1.47.69-2.34.76-.08,0-.18,0-.29.03-.64.06-1.26.06-1.93.06v-5.74h0v-.03h.01ZM98.89,82.67v-7.03c3.24.1,5.27.51,6.06,1.23.72.83.96,1.64.94,2.72-.1.93-.6,1.69-1.29,2.27-.72.46-1.41.67-2.26.72-.08,0-.17,0-.25.03-1.07.08-2.13.06-3.2.06h0Z"/>
    <path class="st4" d="M106.41,71.17c-.06.78-.32,1.41-.71,2.01.4-.57.67-1.22.71-2.01.01-1.32-.26-2.47-1.18-3.45-.51-.47-.83-.78-1.4-.96.57.18.9.49,1.4.96.91.98,1.19,2.13,1.18,3.45Z"/>
    <path class="st4" d="M107.49,81.32c-.75,1.46-1.73,2.31-3.26,2.88-2.31.6-4.78.22-7.19.22h0c2.4,0,4.87.37,7.19-.22,1.5-.57,2.52-1.44,3.26-2.88.33-.85.44-1.91.32-2.87.12.96,0,2.02-.33,2.87h.01Z"/>
    <path class="st4" d="M107.77,78.16c-.03-.24-.08-.47-.15-.69-.12-.25-.24-.47-.37-.69.14.22.25.44.37.69.07.22.12.46.15.69Z"/>
    <path class="st4" d="M104.47,74.45c.08-.07.17-.14.25-.22-.08.07-.17.14-.25.21h0Z"/>
    <path class="st4" d="M160.31,71.2c-.76-.3-1.59-.47-2.45-.47h-.36c-.47,0-.91,0-1.34.07-.14.01-.26.06-.39.08-.36.08-.71.21-1.08.39-.07,0-.15.07-.22.1-.29.15-.57.3-.83.47-.25.15-.47.33-.69.54-.07.07-.12.12-.17.18h0c-.15.15-.26.33-.39.51-1,1.25-1.59,2.7-1.68,4.34,0,.54.03,1.07.12,1.57.26,1.52.94,2.86,2.09,4.02.61.6,1.29,1.03,2.02,1.32s1.54.42,2.4.42h.36c.51,0,.98,0,1.44-.08.53-.08,1.05-.22,1.57-.47.08-.06.12-.07.15-.08,0,0,.03-.01.08-.06.57-.29,1.07-.67,1.5-1.08.69-.67,1.26-1.46,1.61-2.38-.06-.01-.08-.06-.14-.07-.03,0-.06-.03-.08-.06-.08-.06-.18-.1-.29-.15-.37-.18-.69-.32-1.11-.39-.29.42-.57.79-.87,1.14-.53.57-1.1,1.05-1.87,1.44-.03.01-.07.03-.1.07h0c-1.25.51-2.8.49-4.03,0-.07-.03-.1-.06-.15-.08,0,0-.03,0-.06-.03-.07-.03-.08-.03-.12-.07-.08-.03-.15-.07-.3-.17-1.52-1.15-1.95-2.31-2.23-4.19v-.15h11.81c0-2.04-.62-3.92-2.07-5.36-.62-.6-1.33-1.05-2.09-1.34v.06h0l-.02-.04h-.02ZM152.78,76.4c.64-1.8,1.26-2.81,2.99-3.63,1.52-.67,3.34-.3,4.73.53.93.64,1.48,1.39,1.84,2.47l.1.64h-9.66Z"/>
    <path class="st4" d="M150.83,79.02c.25,1.52.94,2.84,2.08,4.03.61.6,1.29,1.03,2.02,1.3-.72-.29-1.4-.71-2.02-1.32-1.15-1.18-1.83-2.52-2.09-4.02h0Z"/>
    <path class="st4" d="M160.85,84.13s.06-.01.08-.06c.55-.29,1.05-.67,1.5-1.08-.46.42-.94.79-1.5,1.08-.03.01-.06.03-.08.06Z"/>
    <path class="st4" d="M159.68,82.55c.78-.39,1.37-.86,1.87-1.44-.53.57-1.1,1.05-1.87,1.44Z"/>
    <path class="st4" d="M154.9,82.26c.15.1.22.14.3.17-.08-.06-.15-.07-.3-.17-1.52-1.16-1.95-2.31-2.23-4.19.26,1.87.71,3.04,2.23,4.19Z"/>
    <path class="st4" d="M159.56,82.62h0c-1.25.51-2.8.49-4.03-.01-.07-.03-.1-.06-.14-.08.06.03.07.06.15.08,1.23.51,2.79.53,4.03,0h0Z"/>
    <path class="st4" d="M164.04,80.62s-.08-.06-.14-.07c.03.01.08.06.14.07h0Z"/>
    <path class="st4" d="M152.8,72.6h0c-.15.17-.25.33-.39.51.14-.17.25-.33.39-.51h0Z"/>
    <path class="st4" d="M162.42,72.57c-.62-.6-1.33-1.05-2.09-1.34.76.3,1.47.76,2.09,1.34,1.44,1.46,2.07,3.33,2.07,5.36h0c0-2.02-.62-3.9-2.07-5.36Z"/>
    <path class="st4" d="M154.69,71.29c.37-.18.72-.3,1.08-.39-.36.08-.71.18-1.08.37-.07.03-.15.07-.22.1-.29.15-.57.3-.85.47.26-.17.54-.32.83-.47.07-.03.15-.08.22-.1h0v.02h.02Z"/>
    <path class="st4" d="M157.79,70.74h-.26c-.47,0-.91.01-1.34.08.42-.07.86-.08,1.34-.07h.26Z"/>
    <path class="st5" d="M215.31,78.49c.06-.36.06-.71.03-1.07v-.14c0-.26-.08-.55-.14-.85-.06-.25-.14-.51-.24-.75-.08-.21-.15-.42-.26-.61-.18-.33-.42-.62-.68-.9-.12-.14-.24-.25-.37-.36-.25-.22-.51-.46-.79-.64-.07-.06-.15-.1-.22-.14-.18-.1-.37-.18-.55-.25-.24-.08-.47-.17-.71-.24h0c-.67-.15-1.33-.17-2-.06h-.1c-.12.01-.25.06-.37.08-.17.06-.33.08-.49.15,0,0-.06.01-.07.01-.47.18-.94.44-1.37.76-.15.12-.3.25-.44.39-.03.03-.07.06-.08.08-.24.25-.42.51-.61.79,0,.03-.06.06-.07.08-.17.26-.3.55-.42.85,0,.06-.06.1-.07.15-.07.21-.12.4-.17.62-.06.18-.1.36-.14.55v.15c-.03.26-.03.55,0,.83,0,.12.03.24.06.36.1.64.26,1.25.54,1.79h0c.15.32.32.61.53.87h0c.21.26.42.51.68.75,0,.01.06.06.07.07,1,.76,1.93,1.08,3.01,1.15,1.5,0,2.72-.33,3.95-1.4.07-.06.1-.14.17-.18.26-.3.49-.61.67-.94.14-.25.25-.49.36-.75,0-.03,0-.07.03-.12.12-.33.21-.69.25-1.03v-.1h.07l-.03.05h-.03Z"/>
    <path class="st5" d="M122.59,77.32c-.01-.32-.08-.64-.15-.98-.01-.1-.03-.21-.07-.29-.12-.33-.25-.67-.4-.94-.18-.32-.4-.6-.64-.86-.12-.14-.26-.26-.4-.4-.24-.22-.47-.42-.75-.61-.08-.07-.18-.12-.26-.17-.18-.1-.36-.18-.54-.26h-.03c-.21-.08-.42-.15-.64-.21h-.07c-.64-.15-1.32-.15-1.98-.06h-.08c-.14.01-.26.07-.39.1-.15.03-.32.08-.47.14-.03,0-.07.01-.1.03-.47.18-.93.44-1.34.76-.12.1-.25.21-.37.32-.06.06-.12.1-.17.15-.21.22-.39.47-.54.71-.03.07-.08.12-.12.18-.14.24-.25.47-.36.72-.03.08-.08.17-.12.26-.07.18-.1.37-.15.55s-.12.39-.14.6v.15c-.03.26-.03.55-.01.83,0,.12.03.24.06.36.1.62.26,1.23.53,1.76,0,.01.01.06.03.07.3.6.71,1.14,1.25,1.61h.01c1,.78,1.94,1.1,3.02,1.16,1.52,0,2.73-.33,3.96-1.4.03-.03.07-.07.1-.12.3-.32.54-.68.75-1.03.12-.25.25-.49.36-.75,0-.01,0-.06.01-.07.12-.36.22-.72.26-1.1v-.06c.06-.37.07-.76.03-1.15v-.06h-.07v.06h0Z"/>
    <path class="st5" d="M183.17,75.2c-.1-.21-.25-.39-.39-.6-.25-.33-.53-.64-.85-.93-.42-.36-.86-.67-1.34-.86-.1-.03-.21-.07-.32-.1-.15-.06-.29-.1-.46-.15-.3-.07-.62-.1-.93-.12h-.3c-.24,0-.44.03-.67.07-.94.17-1.84.6-2.61,1.26-.61.57-1.07,1.29-1.4,2.11-.18.55-.3,1.14-.32,1.72,0,.67.07,1.3.26,1.93h0c.03.12.08.22.14.32.24.57.53,1.1.93,1.55.12.14.25.25.39.37.1.1.21.21.32.29.14.1.26.18.42.26.85.46,1.72.68,2.65.68.24,0,.49-.03.72-.06.69-.1,1.34-.32,2-.72.1-.07.22-.14.32-.21.24-.18.44-.39.64-.6,0-.01.03-.03.06-.06.36-.4.64-.87.86-1.37.08-.18.17-.37.24-.55,0-.03,0-.08.03-.12.1-.32.17-.67.21-.98.06-1.15-.1-2.19-.61-3.16h0l.03.03h-.02,0Z"/>
    <path class="st4" d="M215.24,84.42h1.71v-13.31h-1.71c-.03.69-.08,1.37-.1,2.04h0c-.26-.33-.54-.61-.8-.87-.15-.14-.3-.29-.47-.4-1.29-.83-2.73-1.19-4.23-1.15-.6.01-1.21.1-1.79.26-1.5.53-2.73,1.61-3.62,2.94-.15.25-.33.49-.46.75-.29.64-.44,1.34-.54,2.07-.1.76-.1,1.55.03,2.31.07.4.15.83.29,1.22.47,1.32,1.33,2.47,2.43,3.3.32.24.67.46,1.01.64.1.06.21.08.3.14,1.01.47,1.95.47,3.04.47.39,0,.76-.06,1.14-.14,1.25-.25,2.37-.86,3.3-1.79.06-.06.07-.08.1-.12.08-.08.14-.14.25-.29h0c.03.65.07,1.3.1,1.94h.03,0ZM215.04,79.63s0,.08-.03.12c-.08.25-.22.49-.36.75-.07.12-.1.24-.17.36-.15.21-.32.4-.51.6-.06.06-.08.12-.14.17h0c-.72.71-1.65,1.19-2.66,1.39-.46.03-.9.03-1.3,0h-.49c-.9-.07-1.8-.54-2.52-1.15h0l-.06-.06c-.15-.14-.3-.26-.44-.4-.08-.1-.17-.21-.24-.32h0s-.06-.08-.08-.12l-.15-.21c-.12-.17-.21-.37-.3-.55h0c-.29-.57-.46-1.18-.54-1.8,0-.08-.03-.15-.06-.24v-1.21c.03-.15.08-.29.12-.44.06-.21.1-.42.17-.62,0-.06.06-.1.07-.15.12-.29.25-.57.42-.85,0-.03.03-.06.07-.08.14-.22.29-.46.46-.67.06-.06.1-.08.15-.14.03-.03.07-.06.08-.08.14-.14.29-.25.44-.39.1-.08.21-.21.32-.29.33-.21.68-.36,1.03-.49,0,0,.06-.01.07-.01.17-.07.33-.1.49-.15.12-.03.25-.07.37-.08h.1c.67-.1,1.32-.1,2,.06h0c.24.06.47.15.71.24.1.03.21.06.3.1.08.06.17.12.25.17,0,0,.06.01.07.03l.15.1c.29.18.54.4.79.64.1.1.21.18.3.29,0,.01.06.06.07.07l.08.08c.24.25.42.53.6.8.1.18.18.4.26.61.06.14.14.25.17.4.03.12.03.24.06.36.06.29.12.55.14.85v.14c0,.21.03.42.03.62,0,.15-.06.29-.07.44v.1c-.06.36-.14.69-.25,1.03h0l.03.03v-.05h0Z"/>
    <path class="st4" d="M213.95,74.14c-.1-.1-.21-.21-.3-.29.14.12.25.24.37.36,0-.01-.06-.06-.07-.07h0Z"/>
    <path class="st4" d="M215.15,73.14h0c0-.68.07-1.34.1-2.04h1.71v13.31h-1.71c-.03-.64-.07-1.29-.1-1.94-.06-.98,0,0,0,0,.04.66.07,1.3.1,1.94h1.72v-13.32h-1.72c-.03.69-.07,1.37-.1,2.04h0Z"/>
    <path class="st4" d="M204.24,73.93c-.17.25-.33.49-.47.75-.29.64-.44,1.33-.53,2.04.08-.71.24-1.4.54-2.07.14-.25.3-.51.46-.75h0v.03Z"/>
    <path class="st4" d="M211.47,84.66c1.25-.25,2.38-.86,3.31-1.79.06-.06.07-.07.1-.1-.03.03-.06.06-.1.12-.93.93-2.07,1.54-3.3,1.79h0v-.03h0Z"/>
    <path class="st4" d="M203.54,80.25c-.14-.39-.22-.79-.29-1.22.07.42.15.83.29,1.22.47,1.3,1.33,2.47,2.45,3.3-1.1-.83-1.98-2-2.43-3.3h-.03,0Z"/>
    <path class="st4" d="M214.33,72.28c-.15-.14-.29-.29-.47-.42-1.29-.83-2.76-1.19-4.24-1.14,1.48-.06,2.95.32,4.23,1.15.18.14.32.26.47.4h.01Z"/>
    <path class="st4" d="M212.71,73.11s-.06-.01-.07-.03c.07.06.15.1.22.14l-.15-.1h0Z"/>
    <path class="st4" d="M205.87,80.76l.15.21s.06.07.08.1c-.21-.26-.39-.55-.53-.86.1.18.18.37.3.55h0Z"/>
    <path class="st4" d="M209.37,83.02h.49c-1.08-.07-2.01-.39-3.01-1.15.71.61,1.62,1.08,2.52,1.15h0Z"/>
    <path class="st4" d="M215.37,78.06c0-.22,0-.42-.03-.62,0,.36,0,.71-.03,1.07,0-.15.06-.29.07-.44h-.01Z"/>
    <path class="st4" d="M205.01,76.95v.12c.03-.18.08-.37.14-.55-.03.15-.1.29-.12.44h-.02Z"/>
    <path class="st4" d="M205.55,80.18c-.26-.54-.44-1.15-.54-1.79.07.62.25,1.22.54,1.79Z"/>
    <path class="st4" d="M206.34,81.4c.14.15.29.26.44.4-.25-.24-.49-.47-.68-.72.08.1.15.21.24.32h0Z"/>
    <path class="st4" d="M207.3,73.28c-.12.08-.22.18-.32.29.42-.32.87-.57,1.37-.76-.36.14-.71.29-1.03.49h-.03v-.02h.01Z"/>
    <path class="st4" d="M213.86,81.59s.08-.12.14-.17c-.06.07-.1.14-.17.18h.03Z"/>
    <path class="st4" d="M122.49,71.11v.24c-.03.61-.07,1.22-.1,1.8-.26-.33-.53-.61-.8-.87-.15-.14-.3-.29-.47-.4-1.29-.85-2.77-1.22-4.27-1.15-.57.03-1.16.1-1.72.26-1.25.44-2.31,1.26-3.15,2.27-.18.24-.37.49-.53.76-.14.22-.29.4-.4.64-.78,1.72-.79,3.8-.22,5.57.1.3.25.57.4.86.42.8.98,1.54,1.68,2.13.42.37.87.71,1.39.94.1.06.21.08.3.14,1.01.47,1.95.47,3.04.47.69,0,1.33-.15,1.95-.37.14-.06.29-.08.44-.14.75-.32,1.44-.79,2.02-1.4.08-.08.12-.14.17-.18s.08-.1.18-.21h0c.01.3.03.53.03.69.01.37.03.6.07,1.25h1.72v-13.31h-1.73,0ZM122.56,78.53v.06c-.06.37-.14.75-.26,1.1,0,.01,0,.06-.01.07-.08.25-.22.49-.36.75-.07.12-.1.25-.17.37-.17.24-.37.46-.55.67-.03.03-.06.07-.08.1h0c-.72.71-1.65,1.22-2.66,1.4-.46.03-.87.03-1.3,0h-.51c-.91-.07-1.8-.55-2.52-1.16h-.01c-.17-.17-.33-.3-.47-.47l-.33-.44-.15-.21c-.12-.17-.18-.33-.29-.53,0-.01-.01-.06-.03-.07-.29-.55-.46-1.15-.53-1.76,0-.08-.03-.15-.06-.24v-.12c0-.29,0-.55.01-.83v-.26c.03-.17.08-.32.14-.47.06-.18.08-.39.15-.55.03-.08.08-.17.12-.26.1-.25.22-.49.36-.72.03-.07.08-.12.12-.18.14-.21.25-.4.4-.6.06-.06.08-.08.14-.12.06-.06.12-.1.17-.15.12-.12.24-.22.37-.32.12-.08.21-.21.32-.29.32-.21.68-.36,1.03-.47.03,0,.07-.01.1-.03.15-.06.3-.1.47-.14.14-.03.25-.07.39-.1h.08c.64-.12,1.32-.1,1.98.06h.07c.22.06.42.12.64.21h.03c.1.03.21.07.3.12.08.06.15.1.24.15.03,0,.07.03.08.06.07.03.12.08.18.14.26.18.51.39.75.61.1.1.21.18.3.29l.1.1.06.06c.24.25.42.53.6.8.17.29.3.61.4.94,0,.01.01.03.01.06.01.08.01.15.03.24.07.32.14.67.15.98v.06c0,.22.03.46.03.68,0,.17-.06.3-.07.47l.06.03v-.04l-.02-.05h0Z"/>
    <path class="st4" d="M121.22,74.14c-.1-.1-.21-.21-.3-.29.14.14.29.25.4.4l-.1-.1h0Z"/>
    <path class="st4" d="M122.2,82.66s.08-.1.18-.21h0c-.08.1-.14.15-.18.21Z"/>
    <path class="st4" d="M111.02,74.68h0c-.78,1.72-.79,3.8-.22,5.57.1.29.25.57.4.85-.15-.29-.29-.55-.4-.86-.57-1.77-.55-3.85.22-5.57h0Z"/>
    <path class="st4" d="M122.42,83.16c.01.39.03.61.07,1.26h1.72-1.72c-.03-.67-.06-.87-.07-1.25h0Z"/>
    <path class="st4" d="M121.58,72.28c-.15-.14-.29-.29-.47-.42-1.29-.85-2.79-1.22-4.27-1.14,1.5-.07,2.99.3,4.27,1.15.18.14.32.26.47.4h0Z"/>
    <path class="st4" d="M114.26,84.17h0c-.51-.25-.96-.6-1.39-.94.42.37.87.71,1.39.94Z"/>
    <path class="st4" d="M124.21,71.11h-1.72v.25-.24h1.72Z"/>
    <path class="st4" d="M121.36,74.29l-.06-.06c.24.26.47.54.64.86-.17-.29-.36-.55-.6-.8h.02Z"/>
    <path class="st4" d="M114.56,73.28c-.12.08-.21.18-.32.29.42-.32.86-.57,1.34-.76-.36.14-.69.29-1.03.47h.01Z"/>
    <path class="st4" d="M113.12,80.76l.15.21.33.44c.14.15.3.3.47.46-.54-.49-.94-1.01-1.25-1.61.08.17.17.36.29.53h0v-.03h0Z"/>
    <path class="st4" d="M112.8,80.17c-.26-.54-.42-1.14-.53-1.76.07.61.25,1.22.53,1.76Z"/>
    <path class="st4" d="M112.26,76.95v.12c.03-.21.08-.39.14-.6-.06.15-.1.3-.14.47h0Z"/>
    <path class="st4" d="M121.09,81.59s.06-.07.08-.1c-.03.03-.07.08-.1.12h.01v-.03h0Z"/>
    <path class="st4" d="M116.62,83.02h.51c-1.08-.07-2.02-.39-3.02-1.15.71.61,1.62,1.1,2.52,1.16h-.01Z"/>
    <path class="st4" d="M119.98,73.11s-.07-.03-.08-.06c.1.06.18.12.26.17-.07-.06-.12-.08-.18-.14h0v.03Z"/>
    <path class="st4" d="M185.61,76.84c-.07-.46-.17-.9-.3-1.32-.42-1.32-1.21-2.47-2.27-3.35-.07-.07-.14-.14-.21-.18-1.52-1.07-3.45-1.48-5.28-1.19-.49.08-.96.18-1.41.37-.62.29-1.16.67-1.68,1.07-.98.78-1.77,1.77-2.27,3.01-.32.86-.46,1.77-.44,2.69v.08h0c.03.93.24,1.86.57,2.72h0c.86,1.73,2.13,3.01,3.9,3.73.1.03.18.1.29.14,1.44.37,3.17.37,4.62-.14.17-.07.36-.1.53-.18.08-.03.12-.06.17-.08l.06-.03c.6-.3,1.14-.62,1.62-1.11,0-.01.03-.03.06-.06.06-.06.1-.12.15-.17.15-.17.3-.33.44-.51.49-.64.83-1.33,1.08-2.04.1-.3.21-.61.26-.93.17-.79.22-1.62.14-2.48h0v-.04h-.04.01ZM183.8,78.57c-.06.26-.12.53-.21.78,0,.03,0,.08-.03.12-.07.18-.15.37-.24.55-.07.17-.12.32-.21.49-.18.32-.42.61-.67.87,0,.01-.03.03-.06.06-.18.22-.4.4-.64.6-.03.03-.07.07-.1.08-.07.06-.15.07-.22.12-.42.29-.86.53-1.37.68-.22.03-.42.03-.62.06-.24.01-.49.07-.72.06-.47,0-.94-.01-1.44-.1-.44-.14-.85-.33-1.22-.57-.08-.06-.17-.07-.24-.12s-.12-.1-.17-.15c-.12-.08-.22-.18-.32-.29-.14-.12-.26-.24-.39-.37-.24-.25-.44-.53-.62-.8-.12-.25-.22-.49-.3-.75-.03-.1-.1-.21-.14-.3h0c-.1-.33-.21-.68-.25-1.03-.03-.3-.03-.61,0-.91,0-.44.06-.87.17-1.34.06-.14.12-.25.17-.39.17-.49.39-.96.71-1.4.22-.25.46-.49.69-.69.32-.3.67-.57,1.07-.83.53-.25,1.01-.37,1.54-.44.22-.03.42-.07.67-.07h.33c.3,0,.61.06.9.12.15.03.3.08.46.15.1.03.21.07.32.1.08.03.17.06.25.08.39.21.76.47,1.1.78.18.17.39.33.57.53.1.14.17.26.26.4.14.18.29.39.39.6h0c.15.29.29.55.39.85.22.79.3,1.57.22,2.33v.21h-.03v-.07h0Z"/>
    <path class="st4" d="M177.54,70.77c-.47.07-.96.18-1.41.36-.62.29-1.16.67-1.68,1.07.51-.4,1.05-.78,1.68-1.07.46-.17.94-.29,1.41-.37h0Z"/>
    <path class="st4" d="M181.81,84.14h.06c.61-.31,1.14-.65,1.62-1.12h0c-.49.49-1.03.8-1.62,1.11,0,0-.03.01-.06.03h0v-.02Z"/>
    <path class="st4" d="M182.82,71.97h0s.14.14.21.18c-.07-.06-.12-.14-.21-.18Z"/>
    <path class="st4" d="M183.68,82.8s-.1.12-.15.17c.06-.06.12-.12.17-.17.15-.17.3-.33.44-.51.49-.64.83-1.33,1.08-2.04-.25.71-.6,1.4-1.08,2.04-.14.17-.29.33-.44.51h-.02Z"/>
    <path class="st4" d="M185.3,75.52c.14.42.24.86.3,1.32.08.86.03,1.69-.14,2.48.17-.79.24-1.62.15-2.48-.07-.46-.17-.9-.32-1.32h.01Z"/>
    <path class="st4" d="M171.74,77.96c.03.93.22,1.86.57,2.72h0c-.36-.86-.55-1.79-.57-2.72Z"/>
    <path class="st4" d="M178.95,72.46h-.03c.3,0,.62.06.93.12-.29-.07-.57-.1-.9-.12Z"/>
    <path class="st4" d="M183.8,78.57v-.21c-.03.33-.1.67-.21.98.08-.25.15-.51.21-.78h0Z"/>
    <path class="st4" d="M182.52,74.22c-.18-.18-.37-.36-.57-.53.32.26.6.6.85.93-.08-.14-.15-.26-.26-.4h-.02Z"/>
    <path class="st4" d="M181.68,82.13s.07-.07.1-.08c-.1.08-.22.14-.32.21.07-.06.15-.07.22-.12h0Z"/>
    <path class="st4" d="M176.4,72.99c-.4.24-.75.53-1.07.83.76-.68,1.65-1.1,2.61-1.26-.53.07-1.03.21-1.54.44h0Z"/>
    <path class="st4" d="M178.68,72.46h-.07.3-.24.01Z"/>
    <path class="st4" d="M174.34,80.62c.18.29.39.55.62.8-.4-.46-.71-1-.93-1.55.1.25.18.49.3.75h0Z"/>
    <path class="st4" d="M177.29,82.94c.49.08.96.12,1.44.1-.91,0-1.8-.22-2.65-.68.37.24.78.44,1.22.57h-.01Z"/>
    <path class="st4" d="M173.78,76.3c-.12.46-.15.91-.17,1.34,0-.6.14-1.16.32-1.72-.06.14-.12.25-.17.39h.02,0Z"/>
    <path class="st4" d="M200.23,76.71v-.85c-.1-1.22-.37-2.34-1.03-3.31-.22-.32-.49-.62-.8-.9-.87-.62-1.86-.93-2.84-.96h-.1c-.29,0-.6,0-.87.06h0c-.32.06-.64.12-.94.22-.08.03-.17.07-.25.1-.24.08-.46.17-.68.29-.6.3-1.15.71-1.64,1.19-.12.12-.22.24-.33.36-.03.06-.08.08-.12.14h0c0-.3-.03-.6-.06-.87,0-.36-.03-.71-.07-1.07h-1.8v13.31h1.8c0-.83.03-1.65.03-2.48v-2.99c0-1.59,0-3.12.91-4.49.12-.15.25-.3.39-.44.61-.68,1.34-1.19,2.27-1.39.79-.07,1.5-.07,2.19.15.29.1.57.22.85.4h0s.03.06.07.08c.75.79,1.01,1.73,1.1,2.76.03.46.06.91.06,1.39v7h1.83v-7.72h0v.04-.02h.03Z"/>
    <path class="st4" d="M197.13,73.19s.03.06.07.08c0-.03-.03-.06-.07-.08h0Z"/>
    <path class="st4" d="M199.18,72.54c-.22-.32-.49-.62-.8-.9-.87-.62-1.86-.93-2.84-.96.98.03,1.95.33,2.84.96.32.26.6.57.8.9Z"/>
    <path class="st4" d="M198.39,83.65v-6.22c0-.47,0-.93-.06-1.39.03.46.06.91.06,1.39v7.01h1.83-1.83v-.78h.03-.03Z"/>
    <path class="st4" d="M190.5,79.92v-.76.76Z"/>
    <path class="st4" d="M190.43,84.42h-1.8v-13.31h1.8c.03.36.06.71.07,1.07,0-.36-.03-.72-.06-1.08h-1.83v13.32h1.83c0-.83,0-1.65.03-2.5v-.55.55c0,.83,0,1.65-.03,2.48h0v.02h-.01Z"/>
    <path class="st4" d="M194.08,72.61c-.91.18-1.68.69-2.27,1.39.61-.68,1.37-1.19,2.27-1.37.78-.08,1.5-.08,2.18.15-.69-.24-1.4-.24-2.19-.15h0v-.02h.01Z"/>
    <path class="st4" d="M200.23,77.88v.94-2.11,1.16h0Z"/>
    <path class="st4" d="M190.69,72.92s-.08.08-.12.14h0s.08-.08.12-.14Z"/>
    <path class="st4" d="M146.88,72.15c-2.3-1.59-5.46-1.91-8-.79h-.03c-.36.15-.69.36-1.03.57-.07.03-.14.07-.21.12-.39.26-.75.6-1.08.94-1.11,1.34-1.83,3.01-1.84,4.78,0,.12-.03.22,0,.33h0c0,.1,0,.17.03.24.06.55.17,1.1.32,1.62.26.86.68,1.68,1.29,2.38.07.08.12.17.18.24,1.08,1.08,2.26,1.73,3.65,2.02,0,0,.03,0,.06.01.47.1.94.15,1.47.15h.39c1.46,0,2.8-.29,4.03-1.01.21-.12.39-.22.6-.36.29-.24.64-.53.93-.85h0s0-.03.03-.06c.26-.3.51-.67.54-1.03-.06-.03-.08-.07-.14-.1,0,0-.03-.01-.06-.03-.08-.07-.17-.12-.25-.18-.25-.18-.49-.32-.78-.44-.18,0-.36.07-.53.21-.21.22-.39.42-.6.62-.3.29-.62.55-1.01.78-.1.06-.18.08-.29.14-.22.12-.44.21-.67.26-.21.07-.4.12-.62.15-1.94.14-3.45-.1-5.05-1.3-.06-.06-.08-.1-.14-.15-.91-.87-1.41-2.26-1.52-3.51,0-1.22.33-2.33,1.03-3.3.1-.14.18-.29.3-.42.44-.4.9-.72,1.39-1,.76-.42,1.59-.67,2.52-.67h1.47c.29.07.57.15.85.24.71.25,1.33.62,1.87,1.15.1.1.22.21.32.32,0,.03.03.06.07.07.12.15.22.26.42.37h.07c.17,0,.21,0,.47-.15l.32-.22c.18-.12.37-.25.55-.39-.12-.76-.79-1.41-1.37-1.87l.03.08h.04v.04h-.02Z"/>
    <path class="st4" d="M146.85,74.77h.07-.07Z"/>
    <path class="st4" d="M141.72,84.8c-.51,0-1-.07-1.47-.15.47.1.96.15,1.47.15h.39c1.46.01,2.8-.29,4.03-1.01-1.23.72-2.58,1.03-4.03,1.01h-.39Z"/>
    <path class="st4" d="M139.35,73.23c.76-.4,1.59-.67,2.54-.67h.26-.26c-.93,0-1.76.25-2.52.67h-.02,0Z"/>
    <path class="st4" d="M138.14,81.44c-.91-.9-1.41-2.26-1.5-3.49,0-1.22.32-2.33,1.01-3.3-.69.96-1.05,2.08-1.03,3.3.1,1.23.61,2.63,1.52,3.51h0v-.02Z"/>
    <path class="st4" d="M146.03,74.01c.12.1.24.21.33.32,0,.03.03.03.06.07,0-.03-.03-.03-.07-.07-.1-.12-.22-.22-.32-.32h0Z"/>
    <path class="st4" d="M144.89,82.34c.39-.22.71-.49,1.01-.78-.3.29-.62.55-1.01.78-.08.06-.18.08-.26.14-.22.12-.44.21-.67.26.22-.07.44-.15.67-.26.1-.06.18-.08.29-.14h-.03Z"/>
    <path class="st4" d="M146.9,72.15c-2.31-1.61-5.46-1.93-8-.79,2.55-1.11,5.71-.79,8,.79.57.46,1.25,1.11,1.37,1.87h0c-.12-.76-.79-1.4-1.37-1.87Z"/>
    <path class="st4" d="M142.4,72.6c.3,0,.61,0,.93.01.29.07.57.14.85.24-.26-.1-.55-.18-.85-.24h-.93Z"/>
    <path class="st4" d="M134.71,78.14v.22c.06.55.17,1.1.33,1.62-.15-.53-.29-1.07-.32-1.62,0-.07-.03-.14-.03-.22h.02Z"/>
    <path class="st4" d="M136.35,82.34s.12.17.18.25c1.08,1.08,2.26,1.73,3.65,2.02-1.37-.29-2.56-.94-3.65-2.02-.07-.08-.12-.17-.18-.24h0Z"/>
    <path class="st4" d="M147.71,82.52c.26-.3.51-.64.55-1.03-.06-.03-.1-.07-.14-.1.06.03.08.07.14.1-.06.37-.26.72-.54,1.03h-.01Z"/>
    <path class="st4" d="M137.64,72.06c-.39.26-.75.6-1.08.94-1.11,1.34-1.83,3.01-1.84,4.78,0-1.77.72-3.42,1.84-4.78.32-.36.69-.67,1.08-.94Z"/>
    <path class="st5" d="M102.35,82.59c.85-.07,1.54-.26,2.26-.72.69-.6,1.18-1.34,1.29-2.27,0-1.08-.22-1.89-.94-2.72-.8-.72-2.83-1.14-6.06-1.23v7.03c1.08,0,2.15.03,3.2-.06.08,0,.17-.01.25-.03h0Z"/>
    <path class="st4" d="M133.6,72.15c.24-.36.42-.64.49-1.05-1.59-.94-3.4-.15-4.51,1.14-.06.06-.08.1-.12.15-.07.08-.14.15-.18.24h0c-.03-.51-.07-1.01-.1-1.5h-1.83v13.31h1.83c0-.71,0-1.41.03-2.15v-1.77c0-1.57,0-3.16.24-4.71.1-.49.25-.94.46-1.37.29-.61.68-1.15,1.26-1.59.12-.07.25-.12.39-.17.42-.14.87-.12,1.32-.03.07,0,.12.01.18.03.06.03.12.04.18.06.1.01.1-.15.15-.24h0c.07-.1.14-.21.21-.32h0v-.03h0Z"/>
    <path class="st4" d="M129.15,84.42h-1.83v-13.31h1.83c.03.5.07,1,.1,1.5.06.76,0,0,0,0-.06-.75-.06-.76-.1-1.5h-1.83v13.32h1.83c0-.72,0-1.44.03-2.15v-.24.24c0,.72-.03,1.44-.03,2.15h0Z"/>
    <path class="st4" d="M129.22,80.48c0-1.57,0-3.15.24-4.71.1-.49.25-.94.46-1.34-.21.42-.36.87-.46,1.37-.22,1.55-.22,3.15-.24,4.71h0v-.03Z"/>
    <path class="st4" d="M129.58,72.22s-.08.1-.12.15c.03-.06.08-.1.12-.15,1.11-1.29,2.92-2.08,4.51-1.14-.07.4-.25.69-.49,1.05-.07.11-.14.22-.21.32-.1.15,0,0,0,0h0c.07-.1.14-.21.21-.32.22-.36.42-.64.49-1.05-1.59-.93-3.41-.15-4.53,1.14h.03,0Z"/>
    <path class="st4" d="M131.54,72.68c.42-.14.87-.12,1.32-.03-.44-.08-.9-.1-1.32.03Z"/>
    <path class="st5" d="M160.47,73.29c-1.39-.83-3.19-1.19-4.73-.53-1.72.8-2.33,1.84-2.99,3.63h9.66l-.1-.64c-.37-1.07-.91-1.83-1.84-2.47h0Z"/>
    <path class="st5" d="M101.08,73.83c.9-.07,1.62-.24,2.34-.76.61-.61.94-1.26,1.05-2.13.01-.83-.24-1.4-.78-2.02-.62-.51-2.25-.76-4.82-.76v5.74c.67,0,1.26,0,1.93-.06.1,0,.18-.01.29-.03h0v.03h-.01Z"/>
  </g>
  <path class="st2" d="M74.74,86.81v-2.25c0-.72-.06-1.3-.54-1.87-.37-.17-.71-.18-1.11-.12-.33.18-.58.43-.75.76,0,.18-.01.37-.03.55v1.11c0,.4,0,.8-.01,1.22v.83c0,.64-.01,1.29-.03,1.91h2.47v-2.16h.01-.01v.02Z"/>
  <path class="st2" d="M72.22,83.91v-.26.26Z"/>
  <path class="st2" d="M77.19,84.3v1.4-1.4Z"/>
  <path class="st2" d="M72.22,83.6h0c.07-.44.25-.72.61-1.01-.33.29-.54.57-.61,1.01Z"/>
  <path class="st2" d="M74.84,87.11v-2.23c0-.4,0-.8-.01-1.22-.15-.6-.33-.86-.86-1.19-.42-.08-.76-.03-1.16.14-.33.29-.54.57-.61,1.03h0v.26h0v.33h0v4.71h0c0-.64.01-1.29.03-1.91v-.83c0-.4,0-.8.01-1.22v-1.11c0-.18,0-.37.03-.55.15-.33.4-.58.75-.76.39-.07.75-.07,1.11.12.49.57.54,1.15.54,1.87v4.41h.1v-1.86h.08,0Z"/>
  <path class="st2" d="M55.8,86.65v-3.04c-.07-.4-.22-.72-.55-.96-.36-.1-.62-.12-1-.07-.3.15-.55.37-.75.64,0,.18,0,.37-.03.55v3.22c0,.67,0,1.3-.03,1.95h2.47v-2.31h-.1v.02h-.01Z"/>
  <path class="st2" d="M59.86,84.23v1.46-1.46Z"/>
  <path class="st2" d="M53.32,84.17h0c0-.85,0-.86.25-1.29-.17.28-.25.71-.25,1.29Z"/>
  <path class="st2" d="M55.86,83.89v-.55c-.06-.14-.1-.24-.17-.32.15.29.21.54.18.9h0v-.03h-.01Z"/>
  <path class="st2" d="M54.97,82.47h-.22c.24.06.4.12.57.22-.1-.07-.22-.15-.36-.22h.01Z"/>
  <path class="st2" d="M55.83,86.99v-2.34h0v-.37h0v-.36c0-.36-.03-.61-.18-.9-.08-.14-.21-.24-.33-.32-.17-.12-.33-.18-.57-.22-.47-.01-.79.07-1.18.42-.25.42-.25.44-.25,1.29v4.81h0c0-.67,0-1.3.03-1.95v-3.22c0-.18,0-.37.03-.55.19-.26.44-.49.75-.64.37-.03.64-.03,1,.07.33.25.49.55.55.96v4.23c.03.57.03.64.03,1.14h0v-1.98l.12-.06h0Z"/>
</svg>