<?xml version="1.0" encoding="UTF-8"?>
<svg id="Capa_1" data-name="Capa 1" xmlns="http://www.w3.org/2000/svg" viewBox="0 0 130 70">
  <defs>
    <style>
      .cls-1 {
        fill: #f2f2f2;
      }
    </style>
  </defs>
  <g>
    <path class="cls-1" d="M7.76,64.71v-11.2h1.39v4.74h5.28v-4.74h1.39v11.2h-1.39v-5.15h-5.28v5.15h-1.39Z"/>
    <path class="cls-1" d="M21.61,64.9c-1.01,0-1.76-.3-2.24-.9-.49-.6-.73-1.51-.73-2.75v-4.72h1.39v4.93c0,.69.15,1.22.46,1.59.3.37.74.55,1.3.55.62,0,1.09-.18,1.41-.54s.48-.88.48-1.58v-4.96h1.39v8.18h-1.39v-.78c-.26.34-.56.58-.88.74s-.72.24-1.18.24Z"/>
    <path class="cls-1" d="M31.21,64.9c-.41,0-.77-.07-1.1-.22-.33-.14-.66-.37-.99-.68v.7h-1.39v-10.9l1.39-.66v4.08c.26-.28.56-.5.92-.66.36-.16.74-.24,1.12-.24.69,0,1.29.17,1.8.52.51.35.9.84,1.18,1.48.28.64.42,1.4.42,2.27,0,1.36-.29,2.41-.88,3.16-.59.75-1.41,1.12-2.46,1.12ZM31.02,63.61c.68,0,1.21-.26,1.57-.78.36-.52.54-1.26.54-2.22s-.18-1.72-.54-2.23c-.36-.51-.88-.76-1.57-.76-.37,0-.73.1-1.09.31-.36.21-.63.47-.82.78v3.79c.2.34.47.6.81.8.34.2.7.3,1.09.3Z"/>
    <path class="cls-1" d="M43.37,64.9c-1.04,0-1.86-.39-2.47-1.16s-.91-1.81-.91-3.13c0-.88.14-1.63.41-2.27.27-.64.66-1.13,1.17-1.48s1.1-.52,1.8-.52c.8,0,1.49.26,2.06.77v-3.3l1.39-.66v11.55h-1.39v-.64c-.54.55-1.23.83-2.06.83ZM43.57,63.61c.38,0,.74-.1,1.07-.29.33-.19.6-.46.8-.82v-3.84c-.21-.32-.48-.57-.81-.76-.33-.19-.69-.28-1.06-.28-.69,0-1.22.26-1.6.78-.38.52-.56,1.26-.56,2.22,0,.59.09,1.11.27,1.56.18.45.43.8.76,1.05.33.25.7.38,1.13.38Z"/>
    <path class="cls-1" d="M52.62,64.9c-.75,0-1.39-.18-1.94-.55-.54-.37-.96-.87-1.26-1.52-.29-.65-.44-1.38-.44-2.22,0-.9.15-1.67.46-2.31.3-.64.73-1.12,1.27-1.46s1.18-.5,1.9-.5c.61,0,1.18.14,1.69.41s.92.7,1.23,1.27c.31.57.46,1.31.46,2.2,0,.13,0,.28-.01.44s-.02.34-.04.52h-5.54c.05.5.18.93.37,1.3.19.37.45.67.76.88.31.21.68.32,1.11.32.35,0,.67-.06.96-.18.3-.12.57-.31.83-.57l.82.91c-.3.3-.68.56-1.13.76-.45.2-.95.3-1.51.3ZM50.4,59.97h4.19c0-.46-.08-.88-.23-1.24-.15-.37-.37-.65-.67-.86-.29-.21-.65-.31-1.07-.31-.59,0-1.1.19-1.52.58s-.66,1-.7,1.84Z"/>
    <path class="cls-1" d="M62.08,64.71v-11.2h1.39v11.2h-1.39Z"/>
    <path class="cls-1" d="M65.53,64.71l3.97-11.2h1.3l3.97,11.2h-1.42l-.96-2.74h-4.45l-.94,2.74h-1.46ZM68.35,60.74h3.6l-1.44-4.14c-.04-.11-.08-.23-.12-.37-.04-.14-.09-.28-.13-.42-.04-.14-.08-.25-.1-.35-.03.1-.06.21-.1.35-.04.14-.08.28-.13.42-.04.14-.09.27-.12.37l-1.46,4.14Z"/>
    <path class="cls-1" d="M83.53,64.9c-.65,0-1.24-.11-1.77-.32-.53-.22-.98-.51-1.34-.89-.37-.38-.63-.8-.8-1.28l1.31-.48c.22.5.56.9,1.02,1.2s.99.46,1.6.46c.67,0,1.21-.16,1.61-.48.4-.32.6-.79.6-1.4,0-.43-.12-.79-.36-1.09-.24-.29-.55-.54-.94-.74-.38-.2-.79-.38-1.23-.54-.39-.14-.78-.3-1.17-.48-.39-.18-.74-.38-1.06-.63-.32-.24-.57-.54-.76-.89-.19-.35-.29-.77-.29-1.25s.14-.96.41-1.38c.27-.42.66-.75,1.18-1.01.51-.25,1.13-.38,1.86-.38.59,0,1.11.09,1.56.26.45.17.82.41,1.11.71s.49.64.6,1.03l-1.28.43c-.13-.31-.38-.58-.73-.8-.35-.22-.81-.33-1.36-.33-.59,0-1.06.13-1.4.39-.34.26-.51.62-.51,1.08,0,.35.11.64.34.87.23.23.52.43.89.6.37.17.76.34,1.18.5.39.15.79.32,1.19.51.4.19.76.42,1.1.69.33.27.6.6.8,1,.2.39.3.87.3,1.42,0,.69-.16,1.27-.48,1.75-.32.48-.76.85-1.31,1.1-.55.25-1.18.38-1.89.38Z"/>
    <path class="cls-1" d="M91.98,64.9c-.89,0-1.58-.25-2.09-.74-.51-.49-.76-1.16-.76-2.02,0-.55.13-1.03.38-1.43.25-.41.61-.72,1.06-.94.46-.22,1-.33,1.62-.33.4,0,.77.04,1.12.13.35.09.68.22.99.4v-.58c0-.63-.14-1.1-.43-1.4s-.74-.44-1.34-.44c-.39,0-.79.07-1.21.22-.42.14-.81.34-1.17.6l-.4-1.17c.41-.27.88-.48,1.4-.64.52-.15,1.04-.23,1.56-.23.97,0,1.7.25,2.18.74s.73,1.23.73,2.2v5.42h-1.31v-.75c-.32.3-.68.54-1.08.7-.4.16-.81.24-1.24.24ZM92.19,63.69c.38,0,.75-.09,1.12-.28.37-.19.7-.45.99-.79v-1.41c-.27-.17-.58-.3-.93-.4-.35-.1-.68-.14-.99-.14-.6,0-1.07.13-1.42.4-.35.27-.52.64-.52,1.1s.15.84.46,1.11c.31.27.74.41,1.28.41Z"/>
    <path class="cls-1" d="M98.49,64.71v-6.96h-1.26v-1.22h1.26v-1.36c0-.59.16-1.04.47-1.37.31-.33.75-.49,1.31-.49.27,0,.53.03.78.1.25.06.5.16.74.29v1.17c-.23-.11-.43-.18-.62-.23-.18-.05-.37-.07-.55-.07-.26,0-.45.06-.56.2-.12.13-.17.35-.17.65v1.12h1.9v1.22h-1.9v6.96h-1.39Z"/>
    <path class="cls-1" d="M106.11,64.9c-.75,0-1.39-.18-1.94-.55-.54-.37-.96-.87-1.26-1.52-.29-.65-.44-1.38-.44-2.22,0-.9.15-1.67.46-2.31.3-.64.73-1.12,1.27-1.46s1.18-.5,1.9-.5c.61,0,1.18.14,1.69.41s.92.7,1.23,1.27c.31.57.46,1.31.46,2.2,0,.13,0,.28-.01.44s-.02.34-.04.52h-5.54c.05.5.18.93.37,1.3.19.37.45.67.76.88.31.21.68.32,1.11.32.35,0,.67-.06.96-.18.3-.12.57-.31.83-.57l.82.91c-.3.3-.68.56-1.13.76-.45.2-.95.3-1.51.3ZM103.88,59.97h4.19c0-.46-.08-.88-.23-1.24-.15-.37-.37-.65-.67-.86-.29-.21-.65-.31-1.07-.31-.59,0-1.1.19-1.52.58s-.66,1-.7,1.84Z"/>
    <path class="cls-1" d="M113.68,64.9c-.56,0-.99-.17-1.28-.5-.3-.34-.44-.82-.44-1.45v-5.2h-1.33v-1.22h1.33v-2.7l1.39-.67v3.38h2.02v1.22h-2.02v4.74c0,.39.07.67.2.85s.35.27.64.27c.37,0,.78-.14,1.22-.43l-.16,1.36c-.24.13-.49.22-.75.28-.26.06-.53.09-.82.09Z"/>
    <path class="cls-1" d="M118.13,67.81l1.25-3.31-3.02-7.97h1.39l2.03,5.57c.06.14.11.28.14.39s.08.25.11.39c.04-.14.08-.27.12-.39.04-.12.08-.25.14-.39l2.06-5.57h1.42l-4.24,11.28h-1.41Z"/>
  </g>
  <g>
    <path class="cls-1" d="M55.97,11.85c-1.33,0-2.47-.48-3.42-1.44-.96-.96-1.44-2.1-1.44-3.42s.47-2.46,1.42-3.39c.95-.94,2.09-1.41,3.44-1.41s2.57.46,3.5,1.38c.93.92,1.39,2.06,1.39,3.42s-.47,2.49-1.42,3.44-2.1,1.42-3.47,1.42ZM51.78,46.42V15.18h8.41v31.24h-8.41Z"/>
    <path class="cls-1" d="M74.31,47.15c-3.42,0-6.13-.92-8.13-2.75-2-1.83-3-4.31-3-7.43,0-2.04.52-3.82,1.57-5.35,1.05-1.53,2.51-2.72,4.39-3.56,1.87-.85,4.06-1.27,6.54-1.27,1.32,0,2.61.11,3.87.34,1.25.22,2.32.54,3.19.95v-1.86c0-1.55-.47-2.73-1.42-3.53-.95-.81-2.32-1.21-4.11-1.21-1.53,0-3.1.28-4.72.83-1.62.55-3.29,1.39-5,2.51l-2.57-6.51c1.85-1.24,3.92-2.2,6.19-2.86,2.27-.66,4.58-.99,6.92-.99,4.34,0,7.59,1.01,9.75,3.03,2.16,2.02,3.24,5.03,3.24,9.05v19.9h-8.28v-2.38c-1,1.02-2.22,1.79-3.65,2.32-1.44.53-3.03.79-4.78.79ZM76.39,40.12c1.2,0,2.35-.21,3.44-.64,1.09-.43,2.06-1.05,2.92-1.86v-3.12c-.82-.37-1.71-.64-2.69-.83s-1.98-.27-3-.27c-1.77,0-3.16.31-4.17.93-1.01.62-1.51,1.49-1.51,2.61,0,1,.44,1.78,1.31,2.34.88.56,2.11.84,3.7.84Z"/>
    <path class="cls-1" d="M109.65,47.15c-2.73,0-5.22-.49-7.46-1.47-2.24-.98-4.16-2.37-5.76-4.19-1.6-1.81-2.82-3.97-3.65-6.48l7.89-2.96c.94,2,2.21,3.63,3.82,4.91,1.61,1.27,3.4,1.91,5.38,1.91s3.67-.41,4.89-1.22c1.22-.81,1.83-2,1.83-3.55,0-1.06-.36-1.94-1.07-2.63-.71-.69-1.69-1.3-2.93-1.82-1.24-.52-2.67-1.04-4.28-1.57-1.59-.53-3.2-1.12-4.83-1.76-1.63-.64-3.13-1.44-4.49-2.4-1.37-.96-2.46-2.18-3.29-3.65-.83-1.48-1.24-3.31-1.24-5.49s.58-4.14,1.73-5.95c1.15-1.8,2.82-3.25,5.01-4.33,2.19-1.08,4.85-1.62,7.96-1.62,2.57,0,4.85.45,6.85,1.36,2,.91,3.65,2.13,4.95,3.68,1.3,1.55,2.22,3.29,2.75,5.23l-7.83,2.6c-.59-1.3-1.44-2.39-2.55-3.27-1.11-.88-2.65-1.31-4.63-1.31-1.75,0-3.1.32-4.05.96s-1.42,1.57-1.42,2.8c0,.79.32,1.47.96,2.03.64.56,1.53,1.07,2.66,1.51,1.13.45,2.43.93,3.9,1.44,1.75.59,3.5,1.24,5.23,1.96,1.73.71,3.31,1.59,4.72,2.63,1.42,1.04,2.55,2.33,3.39,3.88.85,1.55,1.27,3.46,1.27,5.75,0,2.75-.69,5.09-2.08,7.03-1.39,1.94-3.27,3.42-5.64,4.45-2.37,1.03-5.04,1.54-7.99,1.54Z"/>
  </g>
  <path class="cls-1" d="M43.77,6.99H11.15c-1.9,0-3.43,1.54-3.43,3.43v28.68l-2.76,5.52c-.69.69-.2,1.86.77,1.86h38.04c1.9,0,3.43-1.54,3.43-3.43V10.42c0-1.9-1.54-3.43-3.43-3.43ZM39.49,24.34l-5.24,6.39-1.14.27c-.54,0-1.28-.11-2.22-.33-.94-.22-1.91-.48-2.92-.77-1.01-.29-1.95-.55-2.82-.77-.87-.22-1.58-.34-2.12-.34-.4,0-.85.18-1.34.54-.49.36-.96.75-1.41,1.18-.45.43-.96,1-1.55,1.71h-.74l-2.55-2.42v-.67l5.24-6.38,1.08-.27c.58,0,1.34.11,2.28.34.94.22,1.92.48,2.92.77,1.01.29,1.96.55,2.86.77.9.23,1.57.34,2.02.34.4,0,.85-.18,1.34-.54.49-.36.96-.75,1.41-1.18.45-.43.98-1,1.61-1.71h.67l2.62,2.42v.67Z"/>
</svg>